OFLGoudyStM-Italic.ufo
<glyph name="exclam" format="1">
  <advance width="249"/>
  <unicode hex="0021"/>
  <outline>
    <contour>
      <point x="68" y="40"/>
      <point x="85" y="27"/>
      <point x="98" y="11" type="curve" smooth="yes"/>
      <point x="109" y="-2"/>
      <point x="117" y="-11"/>
      <point x="129" y="-11" type="curve" smooth="yes"/>
      <point x="135" y="-11"/>
      <point x="149" y="4"/>
      <point x="161" y="16" type="curve" smooth="yes"/>
      <point x="176" y="30"/>
      <point x="191" y="43"/>
      <point x="191" y="55" type="curve" smooth="yes"/>
      <point x="191" y="62"/>
      <point x="182" y="73"/>
      <point x="173" y="83" type="curve" smooth="yes"/>
      <point x="157" y="102"/>
      <point x="150" y="116"/>
      <point x="142" y="116" type="curve" smooth="yes"/>
      <point x="126" y="116"/>
      <point x="116" y="100"/>
      <point x="94" y="83" type="curve" smooth="yes"/>
      <point x="90" y="80"/>
      <point x="68" y="58"/>
      <point x="68" y="50" type="curve" smooth="yes"/>
    </contour>
    <contour>
      <point x="133" y="200"/>
      <point x="136" y="194"/>
      <point x="146" y="194" type="curve" smooth="yes"/>
      <point x="158" y="194"/>
      <point x="166" y="208"/>
      <point x="167" y="214" type="curve"/>
      <point x="185" y="300"/>
      <point x="198" y="378"/>
      <point x="209" y="457" type="curve" smooth="yes"/>
      <point x="230" y="609"/>
      <point x="245" y="618"/>
      <point x="245" y="654" type="curve" smooth="yes"/>
      <point x="245" y="680"/>
      <point x="227" y="687"/>
      <point x="209" y="687" type="curve" smooth="yes"/>
      <point x="158" y="687"/>
      <point x="162" y="647"/>
      <point x="161" y="627" type="curve" smooth="yes"/>
      <point x="135" y="239" type="line" smooth="yes"/>
      <point x="134" y="228"/>
      <point x="133" y="218"/>
      <point x="133" y="211" type="curve" smooth="yes"/>
    </contour>
  </outline>
</glyph>
<glyph name="numbersign" format="1">
  <advance width="533"/>
  <unicode hex="0023"/>
  <outline>
    <contour>
      <point x="59" y="139" type="line" smooth="yes"/>
      <point x="59" y="129"/>
      <point x="60" y="121"/>
      <point x="73" y="121" type="curve" smooth="yes"/>
      <point x="143" y="121" type="line" smooth="yes"/>
      <point x="149" y="121"/>
      <point x="151" y="119"/>
      <point x="151" y="114" type="curve" smooth="yes"/>
      <point x="151" y="109"/>
      <point x="128" y="-47"/>
      <point x="128" y="-53" type="curve" smooth="yes"/>
      <point x="128" y="-63"/>
      <point x="137" y="-66"/>
      <point x="146" y="-66" type="curve" smooth="yes"/>
      <point x="160" y="-66"/>
      <point x="165" y="-64"/>
      <point x="169" y="-58" type="curve"/>
      <point x="170" y="-55"/>
      <point x="170" y="-58"/>
      <point x="193" y="113" type="curve" smooth="yes"/>
      <point x="194" y="119"/>
      <point x="195" y="121"/>
      <point x="234" y="121" type="curve" smooth="yes"/>
      <point x="300" y="121" type="line" smooth="yes"/>
      <point x="304" y="121"/>
      <point x="307" y="120"/>
      <point x="307" y="115" type="curve" smooth="yes"/>
      <point x="307" y="110"/>
      <point x="284" y="-47"/>
      <point x="284" y="-53" type="curve" smooth="yes"/>
      <point x="284" y="-60"/>
      <point x="289" y="-66"/>
      <point x="303" y="-66" type="curve" smooth="yes"/>
      <point x="331" y="-66"/>
      <point x="324" y="-66"/>
      <point x="349" y="111" type="curve" smooth="yes"/>
      <point x="350" y="117"/>
      <point x="351" y="121"/>
      <point x="360" y="121" type="curve" smooth="yes"/>
      <point x="458" y="121" type="line" smooth="yes"/>
      <point x="471" y="121"/>
      <point x="475" y="128"/>
      <point x="475" y="143" type="curve" smooth="yes"/>
      <point x="475" y="161"/>
      <point x="468" y="163"/>
      <point x="458" y="163" type="curve" smooth="yes"/>
      <point x="363" y="163" type="line" smooth="yes"/>
      <point x="358" y="163"/>
      <point x="356" y="165"/>
      <point x="356" y="169" type="curve" smooth="yes"/>
      <point x="356" y="173"/>
      <point x="368" y="256"/>
      <point x="374" y="299" type="curve"/>
      <point x="375" y="302"/>
      <point x="375" y="305"/>
      <point x="379" y="305" type="curve" smooth="yes"/>
      <point x="460" y="305" type="line" smooth="yes"/>
      <point x="469" y="305"/>
      <point x="475" y="307"/>
      <point x="475" y="322" type="curve" smooth="yes"/>
      <point x="475" y="339"/>
      <point x="471" y="347"/>
      <point x="457" y="347" type="curve" smooth="yes"/>
      <point x="388" y="347" type="line" smooth="yes"/>
      <point x="384" y="347"/>
      <point x="383" y="349"/>
      <point x="383" y="352" type="curve" smooth="yes"/>
      <point x="383" y="361"/>
      <point x="408" y="531"/>
      <point x="408" y="540" type="curve" smooth="yes"/>
      <point x="408" y="550"/>
      <point x="400" y="550"/>
      <point x="392" y="550" type="curve" smooth="yes"/>
      <point x="380" y="550"/>
      <point x="373" y="550"/>
      <point x="369" y="544" type="curve"/>
      <point x="366" y="540"/>
      <point x="367" y="540"/>
      <point x="341" y="354" type="curve" smooth="yes"/>
      <point x="340" y="348"/>
      <point x="336" y="347"/>
      <point x="332" y="347" type="curve" smooth="yes"/>
      <point x="234" y="347" type="line" smooth="yes"/>
      <point x="229" y="347"/>
      <point x="228" y="348"/>
      <point x="228" y="352" type="curve" smooth="yes"/>
      <point x="228" y="358"/>
      <point x="254" y="532"/>
      <point x="254" y="538" type="curve" smooth="yes"/>
      <point x="254" y="549"/>
      <point x="241" y="550"/>
      <point x="234" y="550" type="curve" smooth="yes"/>
      <point x="220" y="550"/>
      <point x="216" y="549"/>
      <point x="212" y="543" type="curve"/>
      <point x="209" y="538"/>
      <point x="212" y="540"/>
      <point x="186" y="354" type="curve"/>
      <point x="186" y="349"/>
      <point x="183" y="347"/>
      <point x="177" y="347" type="curve" smooth="yes"/>
      <point x="75" y="347" type="line" smooth="yes"/>
      <point x="62" y="347"/>
      <point x="59" y="339"/>
      <point x="59" y="325" type="curve" smooth="yes"/>
      <point x="59" y="307"/>
      <point x="65" y="305"/>
      <point x="75" y="305" type="curve" smooth="yes"/>
      <point x="170" y="305" type="line" smooth="yes"/>
      <point x="174" y="305"/>
      <point x="177" y="304"/>
      <point x="177" y="300" type="curve" smooth="yes"/>
      <point x="177" y="295"/>
      <point x="164" y="210"/>
      <point x="158" y="165" type="curve"/>
      <point x="158" y="163"/>
      <point x="157" y="163"/>
      <point x="155" y="163" type="curve" smooth="yes"/>
      <point x="73" y="163" type="line" smooth="yes"/>
      <point x="59" y="163"/>
      <point x="59" y="156"/>
      <point x="59" y="142" type="curve" smooth="yes"/>
    </contour>
    <contour>
      <point x="201" y="173"/>
      <point x="213" y="255"/>
      <point x="219" y="298" type="curve"/>
      <point x="220" y="302"/>
      <point x="222" y="305"/>
      <point x="228" y="305" type="curve" smooth="yes"/>
      <point x="326" y="305" type="line" smooth="yes"/>
      <point x="332" y="305"/>
      <point x="332" y="303"/>
      <point x="332" y="300" type="curve" smooth="yes"/>
      <point x="332" y="292"/>
      <point x="327" y="265"/>
      <point x="314" y="170" type="curve" smooth="yes"/>
      <point x="313" y="163"/>
      <point x="308" y="163"/>
      <point x="304" y="163" type="curve" smooth="yes"/>
      <point x="209" y="163" type="line" smooth="yes"/>
      <point x="204" y="163"/>
      <point x="201" y="164"/>
      <point x="201" y="168" type="curve" smooth="yes"/>
    </contour>
  </outline>
</glyph>
<glyph name="dollar" format="1">
  <advance width="488"/>
  <unicode hex="0024"/>
  <outline>
    <contour>
      <point x="20" y="51"/>
      <point x="100" y="-4"/>
      <point x="183" y="-17" type="curve"/>
      <point x="186" y="-17"/>
      <point x="193" y="-17"/>
      <point x="193" y="-28" type="curve" smooth="yes"/>
      <point x="193" y="-34"/>
      <point x="173" y="-118"/>
      <point x="173" y="-143" type="curve" smooth="yes"/>
      <point x="173" y="-154"/>
      <point x="176" y="-160"/>
      <point x="195" y="-160" type="curve" smooth="yes"/>
      <point x="220" y="-160"/>
      <point x="216" y="-122"/>
      <point x="228" y="-24" type="curve"/>
      <point x="228" y="-19"/>
      <point x="236" y="-13"/>
      <point x="245" y="-13" type="curve" smooth="yes"/>
      <point x="378" y="-13"/>
      <point x="468" y="65"/>
      <point x="468" y="189" type="curve" smooth="yes"/>
      <point x="468" y="376"/>
      <point x="280" y="364"/>
      <point x="280" y="407" type="curve" smooth="yes"/>
      <point x="280" y="437"/>
      <point x="290" y="469"/>
      <point x="306" y="616" type="curve" smooth="yes"/>
      <point x="307" y="624"/>
      <point x="311" y="645"/>
      <point x="320" y="645" type="curve" smooth="yes"/>
      <point x="342" y="645"/>
      <point x="388" y="606"/>
      <point x="406" y="577" type="curve" smooth="yes"/>
      <point x="419" y="556"/>
      <point x="426" y="534"/>
      <point x="436" y="534" type="curve" smooth="yes"/>
      <point x="441" y="534"/>
      <point x="463" y="545"/>
      <point x="463" y="594" type="curve" smooth="yes"/>
      <point x="463" y="606"/>
      <point x="438" y="648"/>
      <point x="350" y="674" type="curve"/>
      <point x="341" y="676"/>
      <point x="319" y="677"/>
      <point x="319" y="684" type="curve" smooth="yes"/>
      <point x="319" y="706"/>
      <point x="330" y="719"/>
      <point x="330" y="738" type="curve" smooth="yes"/>
      <point x="330" y="754"/>
      <point x="314" y="756"/>
      <point x="305" y="756" type="curve" smooth="yes"/>
      <point x="272" y="756"/>
      <point x="301" y="682"/>
      <point x="270" y="682" type="curve" smooth="yes"/>
      <point x="183" y="680"/>
      <point x="79" y="627"/>
      <point x="79" y="500" type="curve" smooth="yes"/>
      <point x="79" y="362"/>
      <point x="237" y="353"/>
      <point x="237" y="315" type="curve" smooth="yes"/>
      <point x="237" y="308"/>
      <point x="217" y="172"/>
      <point x="201" y="36" type="curve" smooth="yes"/>
      <point x="199" y="21"/>
      <point x="197" y="17"/>
      <point x="188" y="17" type="curve" smooth="yes"/>
      <point x="156" y="17"/>
      <point x="114" y="48"/>
      <point x="91" y="99" type="curve" smooth="yes"/>
      <point x="78" y="127"/>
      <point x="75" y="168"/>
      <point x="54" y="168" type="curve" smooth="yes"/>
      <point x="38" y="168"/>
      <point x="20" y="100"/>
      <point x="20" y="91" type="curve" smooth="yes"/>
    </contour>
    <contour>
      <point x="131" y="634"/>
      <point x="233" y="650"/>
      <point x="257" y="650" type="curve" smooth="yes"/>
      <point x="270" y="650"/>
      <point x="277" y="646"/>
      <point x="277" y="635" type="curve" smooth="yes"/>
      <point x="277" y="634"/>
      <point x="277" y="631"/>
      <point x="252" y="436" type="curve"/>
      <point x="251" y="423"/>
      <point x="249" y="414"/>
      <point x="239" y="414" type="curve" smooth="yes"/>
      <point x="234" y="414"/>
      <point x="205" y="431"/>
      <point x="174" y="451" type="curve" smooth="yes"/>
      <point x="151" y="466"/>
      <point x="131" y="498"/>
      <point x="131" y="531" type="curve" smooth="yes"/>
    </contour>
    <contour>
      <point x="234" y="41"/>
      <point x="262" y="250"/>
      <point x="269" y="295" type="curve"/>
      <point x="270" y="304"/>
      <point x="272" y="311"/>
      <point x="285" y="311" type="curve" smooth="yes"/>
      <point x="289" y="311"/>
      <point x="401" y="274"/>
      <point x="401" y="177" type="curve" smooth="yes"/>
      <point x="401" y="44"/>
      <point x="282" y="12"/>
      <point x="256" y="12" type="curve" smooth="yes"/>
      <point x="240" y="12"/>
      <point x="234" y="19"/>
      <point x="234" y="28" type="curve" smooth="yes"/>
    </contour>
  </outline>
</glyph>
<glyph name="ampersand" format="1">
  <advance width="834"/>
  <unicode hex="0026"/>
  <outline>
    <contour>
      <point x="39" y="66"/>
      <point x="161" y="-10"/>
      <point x="315" y="-10" type="curve" smooth="yes"/>
      <point x="434" y="-10"/>
      <point x="510" y="26"/>
      <point x="586" y="102" type="curve" smooth="yes"/>
      <point x="632" y="147"/>
      <point x="653" y="208"/>
      <point x="653" y="264" type="curve" smooth="yes"/>
      <point x="653" y="348"/>
      <point x="593" y="358"/>
      <point x="593" y="369" type="curve" smooth="yes"/>
      <point x="593" y="390"/>
      <point x="815" y="439"/>
      <point x="815" y="605" type="curve" smooth="yes"/>
      <point x="815" y="667"/>
      <point x="765" y="719"/>
      <point x="707" y="719" type="curve" smooth="yes"/>
      <point x="657" y="719"/>
      <point x="594" y="678"/>
      <point x="594" y="617" type="curve" smooth="yes"/>
      <point x="594" y="582"/>
      <point x="611" y="554"/>
      <point x="641" y="554" type="curve" smooth="yes"/>
      <point x="679" y="554"/>
      <point x="688" y="576"/>
      <point x="688" y="595" type="curve" smooth="yes"/>
      <point x="688" y="614"/>
      <point x="641" y="609"/>
      <point x="641" y="640" type="curve" smooth="yes"/>
      <point x="641" y="684"/>
      <point x="680" y="692"/>
      <point x="696" y="692" type="curve" smooth="yes"/>
      <point x="747" y="692"/>
      <point x="774" y="651"/>
      <point x="774" y="620" type="curve" smooth="yes"/>
      <point x="774" y="548"/>
      <point x="716" y="501"/>
      <point x="617" y="457" type="curve" smooth="yes"/>
      <point x="490" y="400"/>
      <point x="373" y="375"/>
      <point x="373" y="267" type="curve" smooth="yes"/>
      <point x="373" y="237"/>
      <point x="397" y="173"/>
      <point x="456" y="173" type="curve" smooth="yes"/>
      <point x="491" y="173"/>
      <point x="513" y="196"/>
      <point x="513" y="212" type="curve" smooth="yes"/>
      <point x="513" y="216"/>
      <point x="511" y="221"/>
      <point x="506" y="221" type="curve" smooth="yes"/>
      <point x="493" y="221"/>
      <point x="492" y="199"/>
      <point x="465" y="199" type="curve" smooth="yes"/>
      <point x="451" y="199"/>
      <point x="424" y="214"/>
      <point x="424" y="252" type="curve" smooth="yes"/>
      <point x="424" y="303"/>
      <point x="464" y="332"/>
      <point x="509" y="332" type="curve" smooth="yes"/>
      <point x="567" y="332"/>
      <point x="599" y="288"/>
      <point x="599" y="234" type="curve" smooth="yes"/>
      <point x="599" y="129"/>
      <point x="485" y="31"/>
      <point x="360" y="31" type="curve" smooth="yes"/>
      <point x="200" y="31"/>
      <point x="121" y="158"/>
      <point x="121" y="265" type="curve" smooth="yes"/>
      <point x="121" y="357"/>
      <point x="186" y="423"/>
      <point x="202" y="423" type="curve" smooth="yes"/>
      <point x="215" y="423"/>
      <point x="237" y="354"/>
      <point x="311" y="354" type="curve" smooth="yes"/>
      <point x="364" y="354"/>
      <point x="391" y="386"/>
      <point x="391" y="419" type="curve" smooth="yes"/>
      <point x="391" y="452"/>
      <point x="363" y="486"/>
      <point x="307" y="486" type="curve" smooth="yes"/>
      <point x="274" y="486"/>
      <point x="250" y="476"/>
      <point x="235" y="476" type="curve" smooth="yes"/>
      <point x="229" y="476"/>
      <point x="223" y="478"/>
      <point x="223" y="494" type="curve" smooth="yes"/>
      <point x="223" y="562"/>
      <point x="269" y="664"/>
      <point x="382" y="664" type="curve" smooth="yes"/>
      <point x="418" y="664"/>
      <point x="443" y="640"/>
      <point x="443" y="621" type="curve" smooth="yes"/>
      <point x="443" y="602"/>
      <point x="430" y="585"/>
      <point x="430" y="575" type="curve" smooth="yes"/>
      <point x="430" y="571"/>
      <point x="433" y="568"/>
      <point x="442" y="568" type="curve" smooth="yes"/>
      <point x="495" y="568"/>
      <point x="507" y="606"/>
      <point x="507" y="638" type="curve" smooth="yes"/>
      <point x="507" y="709"/>
      <point x="431" y="722"/>
      <point x="400" y="722" type="curve" smooth="yes"/>
      <point x="323" y="722"/>
      <point x="190" y="665"/>
      <point x="190" y="519" type="curve" smooth="yes"/>
      <point x="190" y="477"/>
      <point x="197" y="465"/>
      <point x="197" y="458" type="curve" smooth="yes"/>
      <point x="197" y="446"/>
      <point x="172" y="444"/>
      <point x="136" y="413" type="curve" smooth="yes"/>
      <point x="92" y="376"/>
      <point x="39" y="298"/>
      <point x="39" y="219" type="curve" smooth="yes"/>
    </contour>
    <contour>
      <point x="246" y="444"/>
      <point x="267" y="457"/>
      <point x="288" y="457" type="curve" smooth="yes"/>
      <point x="303" y="457"/>
      <point x="339" y="450"/>
      <point x="339" y="419" type="curve" smooth="yes"/>
      <point x="339" y="400"/>
      <point x="321" y="385"/>
      <point x="301" y="385" type="curve" smooth="yes"/>
      <point x="270" y="385"/>
      <point x="246" y="416"/>
      <point x="246" y="430" type="curve" smooth="yes"/>
    </contour>
  </outline>
</glyph>
<glyph name="quotesingle" format="1">
  <advance width="239"/>
  <unicode hex="0027"/>
  <outline>
    <contour>
      <point x="36" y="434"/>
      <point x="38" y="427"/>
      <point x="48" y="427" type="curve" smooth="yes"/>
      <point x="68" y="427"/>
      <point x="166" y="498"/>
      <point x="166" y="605" type="curve" smooth="yes"/>
      <point x="166" y="687"/>
      <point x="121" y="708"/>
      <point x="113" y="708" type="curve" smooth="yes"/>
      <point x="92" y="708"/>
      <point x="56" y="659"/>
      <point x="56" y="650" type="curve" smooth="yes"/>
      <point x="56" y="623"/>
      <point x="107" y="621"/>
      <point x="107" y="562" type="curve" smooth="yes"/>
      <point x="107" y="544"/>
      <point x="100" y="529"/>
      <point x="95" y="517" type="curve" smooth="yes"/>
      <point x="73" y="459"/>
      <point x="36" y="462"/>
      <point x="36" y="439" type="curve" smooth="yes"/>
    </contour>
  </outline>
</glyph>
<glyph name="parenleft" format="1">
  <advance width="288"/>
  <unicode hex="0028"/>
  <outline>
    <contour>
      <point x="63" y="-36"/>
      <point x="192" y="-214"/>
      <point x="220" y="-214" type="curve" smooth="yes"/>
      <point x="227" y="-214"/>
      <point x="241" y="-205"/>
      <point x="241" y="-194" type="curve" smooth="yes"/>
      <point x="241" y="-168"/>
      <point x="104" y="-61"/>
      <point x="104" y="195" type="curve" smooth="yes"/>
      <point x="104" y="221"/>
      <point x="106" y="248"/>
      <point x="109" y="277" type="curve" smooth="yes"/>
      <point x="146" y="631"/>
      <point x="343" y="716"/>
      <point x="343" y="755" type="curve" smooth="yes"/>
      <point x="343" y="764"/>
      <point x="340" y="772"/>
      <point x="326" y="772" type="curve" smooth="yes"/>
      <point x="298" y="772"/>
      <point x="63" y="546"/>
      <point x="63" y="207" type="curve" smooth="yes"/>
    </contour>
  </outline>
</glyph>
<glyph name="parenright" format="1">
  <advance width="288"/>
  <unicode hex="0029"/>
  <outline>
    <contour>
      <point x="-55" y="-206"/>
      <point x="-52" y="-214"/>
      <point x="-38" y="-214" type="curve" smooth="yes"/>
      <point x="-10" y="-214"/>
      <point x="225" y="13"/>
      <point x="225" y="352" type="curve" smooth="yes"/>
      <point x="225" y="595"/>
      <point x="96" y="772"/>
      <point x="68" y="772" type="curve" smooth="yes"/>
      <point x="61" y="772"/>
      <point x="47" y="764"/>
      <point x="47" y="753" type="curve" smooth="yes"/>
      <point x="47" y="727"/>
      <point x="184" y="619"/>
      <point x="184" y="363" type="curve" smooth="yes"/>
      <point x="184" y="337"/>
      <point x="182" y="310"/>
      <point x="179" y="281" type="curve" smooth="yes"/>
      <point x="142" y="-73"/>
      <point x="-55" y="-158"/>
      <point x="-55" y="-197" type="curve" smooth="yes"/>
    </contour>
  </outline>
</glyph>
<glyph name="asterisk" format="1">
  <advance width="431"/>
  <unicode hex="002A"/>
  <outline>
    <contour>
      <point x="59" y="373"/>
      <point x="72" y="348"/>
      <point x="91" y="348" type="curve" smooth="yes"/>
      <point x="103" y="348"/>
      <point x="173" y="401"/>
      <point x="182" y="401" type="curve" smooth="yes"/>
      <point x="186" y="401"/>
      <point x="187" y="395"/>
      <point x="187" y="378" type="curve" smooth="yes"/>
      <point x="187" y="355"/>
      <point x="184" y="324"/>
      <point x="184" y="306" type="curve" smooth="yes"/>
      <point x="184" y="285"/>
      <point x="196" y="282"/>
      <point x="211" y="282" type="curve" smooth="yes"/>
      <point x="244" y="282"/>
      <point x="247" y="286"/>
      <point x="247" y="324" type="curve" smooth="yes"/>
      <point x="247" y="339"/>
      <point x="244" y="363"/>
      <point x="244" y="382" type="curve" smooth="yes"/>
      <point x="244" y="396"/>
      <point x="245" y="401"/>
      <point x="249" y="401" type="curve" smooth="yes"/>
      <point x="256" y="401"/>
      <point x="324" y="348"/>
      <point x="339" y="348" type="curve" smooth="yes"/>
      <point x="360" y="348"/>
      <point x="373" y="373"/>
      <point x="373" y="383" type="curve" smooth="yes"/>
      <point x="373" y="404"/>
      <point x="264" y="436"/>
      <point x="264" y="448" type="curve" smooth="yes"/>
      <point x="264" y="458"/>
      <point x="373" y="493"/>
      <point x="373" y="514" type="curve" smooth="yes"/>
      <point x="373" y="526"/>
      <point x="358" y="549"/>
      <point x="340" y="549" type="curve" smooth="yes"/>
      <point x="328" y="549"/>
      <point x="259" y="495"/>
      <point x="248" y="495" type="curve" smooth="yes"/>
      <point x="245" y="495"/>
      <point x="243" y="499"/>
      <point x="243" y="513" type="curve" smooth="yes"/>
      <point x="243" y="533"/>
      <point x="247" y="560"/>
      <point x="247" y="578" type="curve" smooth="yes"/>
      <point x="247" y="612"/>
      <point x="240" y="614"/>
      <point x="210" y="614" type="curve" smooth="yes"/>
      <point x="189" y="614"/>
      <point x="184" y="610"/>
      <point x="184" y="593" type="curve" smooth="yes"/>
      <point x="184" y="567"/>
      <point x="187" y="535"/>
      <point x="187" y="514" type="curve" smooth="yes"/>
      <point x="187" y="500"/>
      <point x="185" y="495"/>
      <point x="182" y="495" type="curve" smooth="yes"/>
      <point x="173" y="495"/>
      <point x="107" y="548"/>
      <point x="91" y="548" type="curve" smooth="yes"/>
      <point x="71" y="548"/>
      <point x="59" y="522"/>
      <point x="59" y="513" type="curve" smooth="yes"/>
      <point x="59" y="492"/>
      <point x="167" y="458"/>
      <point x="167" y="447" type="curve" smooth="yes"/>
      <point x="167" y="438"/>
      <point x="59" y="405"/>
      <point x="59" y="383" type="curve" smooth="yes"/>
    </contour>
  </outline>
</glyph>
<glyph name="plus" format="1">
  <advance width="508"/>
  <unicode hex="002B"/>
  <outline>
    <contour>
      <point x="21" y="195"/>
      <point x="21" y="188"/>
      <point x="39" y="188" type="curve" smooth="yes"/>
      <point x="208" y="188" type="line" smooth="yes"/>
      <point x="225" y="188"/>
      <point x="231" y="188"/>
      <point x="231" y="170" type="curve" smooth="yes"/>
      <point x="231" y="-4" type="line" smooth="yes"/>
      <point x="231" y="-22"/>
      <point x="236" y="-22"/>
      <point x="256" y="-22" type="curve" smooth="yes"/>
      <point x="267" y="-22"/>
      <point x="276" y="-22"/>
      <point x="276" y="-5" type="curve" smooth="yes"/>
      <point x="276" y="170" type="line" smooth="yes"/>
      <point x="276" y="182"/>
      <point x="276" y="188"/>
      <point x="293" y="188" type="curve" smooth="yes"/>
      <point x="465" y="188" type="line" smooth="yes"/>
      <point x="486" y="188"/>
      <point x="486" y="194"/>
      <point x="486" y="211" type="curve" smooth="yes"/>
      <point x="486" y="225"/>
      <point x="486" y="232"/>
      <point x="470" y="232" type="curve" smooth="yes"/>
      <point x="293" y="232" type="line" smooth="yes"/>
      <point x="277" y="232"/>
      <point x="276" y="245"/>
      <point x="276" y="259" type="curve" smooth="yes"/>
      <point x="276" y="422" type="line" smooth="yes"/>
      <point x="276" y="442"/>
      <point x="266" y="442"/>
      <point x="252" y="442" type="curve" smooth="yes"/>
      <point x="238" y="442"/>
      <point x="231" y="442"/>
      <point x="231" y="427" type="curve" smooth="yes"/>
      <point x="231" y="251" type="line" smooth="yes"/>
      <point x="231" y="240"/>
      <point x="228" y="232"/>
      <point x="209" y="232" type="curve" smooth="yes"/>
      <point x="40" y="232" type="line" smooth="yes"/>
      <point x="22" y="232"/>
      <point x="21" y="225"/>
      <point x="21" y="212" type="curve" smooth="yes"/>
    </contour>
  </outline>
</glyph>
<glyph name="comma" format="1">
  <advance width="226"/>
  <unicode hex="002C"/>
  <outline>
    <contour>
      <point x="42" y="-161"/>
      <point x="50" y="-166"/>
      <point x="57" y="-166" type="curve" smooth="yes"/>
      <point x="87" y="-166"/>
      <point x="172" y="-73"/>
      <point x="172" y="0" type="curve" smooth="yes"/>
      <point x="172" y="87"/>
      <point x="134" y="118"/>
      <point x="114" y="118" type="curve" smooth="yes"/>
      <point x="96" y="118"/>
      <point x="57" y="59"/>
      <point x="57" y="56" type="curve" smooth="yes"/>
      <point x="57" y="35"/>
      <point x="112" y="28"/>
      <point x="112" y="-26" type="curve" smooth="yes"/>
      <point x="112" y="-64"/>
      <point x="94" y="-96"/>
      <point x="75" y="-117" type="curve" smooth="yes"/>
      <point x="65" y="-128"/>
      <point x="42" y="-140"/>
      <point x="42" y="-153" type="curve" smooth="yes"/>
    </contour>
  </outline>
</glyph>
<glyph name="hyphen" format="1">
  <advance width="282"/>
  <unicode hex="002D"/>
  <outline>
    <contour>
      <point x="39" y="164"/>
      <point x="43" y="152"/>
      <point x="56" y="152" type="curve" smooth="yes"/>
      <point x="77" y="152"/>
      <point x="90" y="163"/>
      <point x="168" y="190" type="curve" smooth="yes"/>
      <point x="235" y="213"/>
      <point x="243" y="208"/>
      <point x="243" y="246" type="curve" smooth="yes"/>
      <point x="243" y="264"/>
      <point x="231" y="268"/>
      <point x="221" y="268" type="curve" smooth="yes"/>
      <point x="198" y="268"/>
      <point x="193" y="258"/>
      <point x="83" y="225" type="curve" smooth="yes"/>
      <point x="43" y="213"/>
      <point x="39" y="200"/>
      <point x="39" y="185" type="curve" smooth="yes"/>
    </contour>
  </outline>
</glyph>
<glyph name="period" format="1">
  <advance width="222"/>
  <unicode hex="002E"/>
  <outline>
    <contour>
      <point x="49" y="36"/>
      <point x="58" y="30"/>
      <point x="73" y="15" type="curve" smooth="yes"/>
      <point x="86" y="2"/>
      <point x="90" y="-15"/>
      <point x="106" y="-15" type="curve" smooth="yes"/>
      <point x="120" y="-15"/>
      <point x="130" y="-2"/>
      <point x="142" y="10" type="curve" smooth="yes"/>
      <point x="157" y="24"/>
      <point x="173" y="33"/>
      <point x="173" y="46" type="curve" smooth="yes"/>
      <point x="173" y="67"/>
      <point x="160" y="72"/>
      <point x="152" y="83" type="curve"/>
      <point x="140" y="101"/>
      <point x="132" y="113"/>
      <point x="123" y="113" type="curve" smooth="yes"/>
      <point x="110" y="113"/>
      <point x="95" y="96"/>
      <point x="82" y="84" type="curve" smooth="yes"/>
      <point x="66" y="70"/>
      <point x="49" y="55"/>
      <point x="49" y="46" type="curve" smooth="yes"/>
    </contour>
  </outline>
</glyph>
<glyph name="zero" format="1">
  <advance width="518"/>
  <unicode hex="0030"/>
  <outline>
    <contour>
      <point x="32" y="37"/>
      <point x="126" y="-25"/>
      <point x="229" y="-25" type="curve" smooth="yes"/>
      <point x="352" y="-25"/>
      <point x="486" y="64"/>
      <point x="486" y="232" type="curve" smooth="yes"/>
      <point x="486" y="353"/>
      <point x="393" y="434"/>
      <point x="284" y="434" type="curve" smooth="yes"/>
      <point x="123" y="434"/>
      <point x="32" y="295"/>
      <point x="32" y="170" type="curve" smooth="yes"/>
    </contour>
    <contour>
      <point x="91" y="312"/>
      <point x="191" y="384"/>
      <point x="283" y="384" type="curve" smooth="yes"/>
      <point x="360" y="384"/>
      <point x="430" y="333"/>
      <point x="430" y="230" type="curve" smooth="yes"/>
      <point x="430" y="97"/>
      <point x="325" y="24"/>
      <point x="232" y="24" type="curve" smooth="yes"/>
      <point x="158" y="24"/>
      <point x="91" y="71"/>
      <point x="91" y="170" type="curve" smooth="yes"/>
    </contour>
  </outline>
</glyph>
<glyph name="one" format="1">
  <advance width="309"/>
  <unicode hex="0031"/>
  <outline>
    <contour>
      <point x="20" y="2"/>
      <point x="27" y="-4"/>
      <point x="43" y="-4" type="curve" smooth="yes"/>
      <point x="70" y="-4"/>
      <point x="104" y="3"/>
      <point x="146" y="3" type="curve" smooth="yes"/>
      <point x="189" y="3"/>
      <point x="222" y="-4"/>
      <point x="253" y="-4" type="curve" smooth="yes"/>
      <point x="266" y="-4"/>
      <point x="272" y="-1"/>
      <point x="272" y="9" type="curve" smooth="yes"/>
      <point x="272" y="30"/>
      <point x="220" y="30"/>
      <point x="212" y="32" type="curve"/>
      <point x="182" y="42"/>
      <point x="175" y="61"/>
      <point x="175" y="81" type="curve" smooth="yes"/>
      <point x="175" y="93"/>
      <point x="178" y="104"/>
      <point x="179" y="114" type="curve" smooth="yes"/>
      <point x="199" y="338"/>
      <point x="201" y="396"/>
      <point x="255" y="396" type="curve" smooth="yes"/>
      <point x="267" y="396"/>
      <point x="289" y="396"/>
      <point x="289" y="413" type="curve" smooth="yes"/>
      <point x="289" y="418"/>
      <point x="283" y="428"/>
      <point x="266" y="428" type="curve" smooth="yes"/>
      <point x="241" y="428"/>
      <point x="215" y="422"/>
      <point x="172" y="422" type="curve" smooth="yes"/>
      <point x="132" y="422"/>
      <point x="138" y="423"/>
      <point x="109" y="423" type="curve" smooth="yes"/>
      <point x="86" y="423"/>
      <point x="72" y="431"/>
      <point x="57" y="431" type="curve" smooth="yes"/>
      <point x="48" y="431"/>
      <point x="42" y="425"/>
      <point x="42" y="417" type="curve" smooth="yes"/>
      <point x="42" y="399"/>
      <point x="67" y="392"/>
      <point x="77" y="392" type="curve"/>
      <point x="128" y="389"/>
      <point x="133" y="359"/>
      <point x="133" y="344" type="curve" smooth="yes"/>
      <point x="133" y="338"/>
      <point x="126" y="241"/>
      <point x="113" y="158" type="curve" smooth="yes"/>
      <point x="106" y="113"/>
      <point x="105" y="26"/>
      <point x="45" y="26" type="curve" smooth="yes"/>
      <point x="23" y="26"/>
      <point x="20" y="18"/>
      <point x="20" y="14" type="curve" smooth="yes"/>
    </contour>
  </outline>
</glyph>
<glyph name="two" format="1">
  <advance width="450"/>
  <unicode hex="0032"/>
  <outline>
    <contour>
      <point x="20" y="3"/>
      <point x="25" y="-2"/>
      <point x="43" y="-2" type="curve" smooth="yes"/>
      <point x="70" y="-2"/>
      <point x="92" y="0"/>
      <point x="202" y="0" type="curve" smooth="yes"/>
      <point x="350" y="0" type="line" smooth="yes"/>
      <point x="369" y="0"/>
      <point x="380" y="36"/>
      <point x="382" y="41" type="curve" smooth="yes"/>
      <point x="407" y="99"/>
      <point x="421" y="105"/>
      <point x="421" y="114" type="curve" smooth="yes"/>
      <point x="421" y="120"/>
      <point x="417" y="125"/>
      <point x="409" y="125" type="curve" smooth="yes"/>
      <point x="406" y="125"/>
      <point x="399" y="120"/>
      <point x="393" y="113" type="curve" smooth="yes"/>
      <point x="374" y="91"/>
      <point x="360" y="60"/>
      <point x="283" y="60" type="curve" smooth="yes"/>
      <point x="217" y="60" type="line" smooth="yes"/>
      <point x="188" y="60"/>
      <point x="172" y="61"/>
      <point x="172" y="68" type="curve" smooth="yes"/>
      <point x="172" y="93"/>
      <point x="420" y="219"/>
      <point x="420" y="325" type="curve" smooth="yes"/>
      <point x="420" y="403"/>
      <point x="334" y="433"/>
      <point x="260" y="433" type="curve" smooth="yes"/>
      <point x="123" y="433"/>
      <point x="76" y="346"/>
      <point x="76" y="319" type="curve" smooth="yes"/>
      <point x="76" y="287"/>
      <point x="111" y="284"/>
      <point x="144" y="284" type="curve" smooth="yes"/>
      <point x="153" y="284"/>
      <point x="158" y="291"/>
      <point x="158" y="297" type="curve" smooth="yes"/>
      <point x="158" y="311"/>
      <point x="143" y="333"/>
      <point x="143" y="354" type="curve" smooth="yes"/>
      <point x="143" y="392"/>
      <point x="190" y="400"/>
      <point x="235" y="400" type="curve" smooth="yes"/>
      <point x="262" y="400"/>
      <point x="340" y="379"/>
      <point x="340" y="316" type="curve" smooth="yes"/>
      <point x="340" y="269"/>
      <point x="285" y="202"/>
      <point x="194" y="128" type="curve" smooth="yes"/>
      <point x="97" y="48"/>
      <point x="20" y="27"/>
      <point x="20" y="11" type="curve" smooth="yes"/>
    </contour>
  </outline>
</glyph>
<glyph name="three" format="1">
  <advance width="390"/>
  <unicode hex="0033"/>
  <outline>
    <contour>
      <point x="-20" y="-180"/>
      <point x="-3" y="-185"/>
      <point x="52" y="-185" type="curve" smooth="yes"/>
      <point x="251" y="-185"/>
      <point x="360" y="-30"/>
      <point x="360" y="53" type="curve" smooth="yes"/>
      <point x="360" y="167"/>
      <point x="204" y="164"/>
      <point x="204" y="176" type="curve" smooth="yes"/>
      <point x="204" y="180"/>
      <point x="209" y="180"/>
      <point x="237" y="201" type="curve"/>
      <point x="273" y="226"/>
      <point x="350" y="264"/>
      <point x="350" y="344" type="curve" smooth="yes"/>
      <point x="350" y="418"/>
      <point x="271" y="436"/>
      <point x="217" y="436" type="curve" smooth="yes"/>
      <point x="153" y="436"/>
      <point x="67" y="403"/>
      <point x="67" y="382" type="curve" smooth="yes"/>
      <point x="67" y="376"/>
      <point x="69" y="368"/>
      <point x="81" y="368" type="curve" smooth="yes"/>
      <point x="101" y="368"/>
      <point x="119" y="399"/>
      <point x="174" y="399" type="curve" smooth="yes"/>
      <point x="238" y="399"/>
      <point x="283" y="362"/>
      <point x="283" y="315" type="curve" smooth="yes"/>
      <point x="283" y="262"/>
      <point x="231" y="219"/>
      <point x="169" y="184" type="curve" smooth="yes"/>
      <point x="109" y="150"/>
      <point x="81" y="151"/>
      <point x="81" y="135" type="curve" smooth="yes"/>
      <point x="81" y="128"/>
      <point x="83" y="123"/>
      <point x="93" y="123" type="curve" smooth="yes"/>
      <point x="96" y="123"/>
      <point x="147" y="131"/>
      <point x="168" y="131" type="curve" smooth="yes"/>
      <point x="226" y="131"/>
      <point x="292" y="84"/>
      <point x="292" y="21" type="curve" smooth="yes"/>
      <point x="292" y="-42"/>
      <point x="211" y="-144"/>
      <point x="109" y="-144" type="curve" smooth="yes"/>
      <point x="45" y="-144"/>
      <point x="10" y="-94"/>
      <point x="0" y="-94" type="curve" smooth="yes"/>
      <point x="-13" y="-94"/>
      <point x="-20" y="-104"/>
      <point x="-20" y="-116" type="curve" smooth="yes"/>
    </contour>
  </outline>
</glyph>
<glyph name="four" format="1">
  <advance width="496"/>
  <unicode hex="0034"/>
  <outline>
    <contour>
      <point x="10" y="5"/>
      <point x="14" y="-2"/>
      <point x="32" y="-2" type="curve" smooth="yes"/>
      <point x="97" y="-2"/>
      <point x="107" y="4"/>
      <point x="223" y="4" type="curve" smooth="yes"/>
      <point x="272" y="4"/>
      <point x="287" y="4"/>
      <point x="287" y="-14" type="curve" smooth="yes"/>
      <point x="287" y="-23"/>
      <point x="261" y="-151"/>
      <point x="261" y="-165" type="curve" smooth="yes"/>
      <point x="261" y="-173"/>
      <point x="269" y="-189"/>
      <point x="292" y="-189" type="curve" smooth="yes"/>
      <point x="341" y="-189"/>
      <point x="335" y="-155"/>
      <point x="342" y="-83" type="curve" smooth="yes"/>
      <point x="349" y="-8"/>
      <point x="344" y="3"/>
      <point x="357" y="3" type="curve" smooth="yes"/>
      <point x="362" y="3"/>
      <point x="391" y="0"/>
      <point x="428" y="0" type="curve" smooth="yes"/>
      <point x="443" y="0"/>
      <point x="453" y="8"/>
      <point x="459" y="20" type="curve" smooth="yes"/>
      <point x="465" y="33"/>
      <point x="477" y="55"/>
      <point x="477" y="64" type="curve" smooth="yes"/>
      <point x="477" y="73"/>
      <point x="471" y="76"/>
      <point x="466" y="76" type="curve" smooth="yes"/>
      <point x="445" y="76"/>
      <point x="464" y="52"/>
      <point x="388" y="52" type="curve" smooth="yes"/>
      <point x="370" y="52"/>
      <point x="361" y="57"/>
      <point x="361" y="68" type="curve" smooth="yes"/>
      <point x="361" y="77"/>
      <point x="371" y="131"/>
      <point x="379" y="184" type="curve" smooth="yes"/>
      <point x="388" y="240" type="line" smooth="yes"/>
      <point x="407" y="365"/>
      <point x="421" y="379"/>
      <point x="421" y="406" type="curve" smooth="yes"/>
      <point x="421" y="418"/>
      <point x="416" y="423"/>
      <point x="408" y="423" type="curve" smooth="yes"/>
      <point x="389" y="423"/>
      <point x="358" y="388"/>
      <point x="344" y="373" type="curve" smooth="yes"/>
      <point x="62" y="81" type="line" smooth="yes"/>
      <point x="36" y="54"/>
      <point x="10" y="34"/>
      <point x="10" y="14" type="curve" smooth="yes"/>
    </contour>
    <contour>
      <point x="104" y="77"/>
      <point x="236" y="223"/>
      <point x="297" y="283" type="curve" smooth="yes"/>
      <point x="307" y="293"/>
      <point x="323" y="312"/>
      <point x="331" y="312" type="curve" smooth="yes"/>
      <point x="334" y="312"/>
      <point x="335" y="305"/>
      <point x="335" y="297" type="curve" smooth="yes"/>
      <point x="335" y="281"/>
      <point x="317" y="167"/>
      <point x="309" y="119" type="curve" smooth="yes"/>
      <point x="300" y="66"/>
      <point x="304" y="54"/>
      <point x="277" y="54" type="curve" smooth="yes"/>
      <point x="272" y="54" type="line"/>
      <point x="250" y="54" type="line" smooth="yes"/>
      <point x="225" y="54"/>
      <point x="193" y="53"/>
      <point x="170" y="53" type="curve" smooth="yes"/>
      <point x="119" y="53"/>
      <point x="104" y="55"/>
      <point x="104" y="69" type="curve" smooth="yes"/>
    </contour>
  </outline>
</glyph>
<glyph name="five" format="1">
  <advance width="373"/>
  <unicode hex="0035"/>
  <outline>
    <contour>
      <point x="-35" y="-139"/>
      <point x="-22" y="-166"/>
      <point x="-14" y="-175" type="curve" smooth="yes"/>
      <point x="-5" y="-185"/>
      <point x="10" y="-187"/>
      <point x="19" y="-187" type="curve" smooth="yes"/>
      <point x="146" y="-187"/>
      <point x="208" y="-144"/>
      <point x="249" y="-104" type="curve" smooth="yes"/>
      <point x="309" y="-45"/>
      <point x="343" y="30"/>
      <point x="343" y="99" type="curve" smooth="yes"/>
      <point x="343" y="140"/>
      <point x="332" y="177"/>
      <point x="306" y="207" type="curve" smooth="yes"/>
      <point x="230" y="296"/>
      <point x="107" y="262"/>
      <point x="107" y="295" type="curve" smooth="yes"/>
      <point x="107" y="298"/>
      <point x="116" y="322"/>
      <point x="120" y="342" type="curve" smooth="yes"/>
      <point x="123" y="359"/>
      <point x="134" y="361"/>
      <point x="141" y="361" type="curve" smooth="yes"/>
      <point x="145" y="361"/>
      <point x="150" y="360"/>
      <point x="186" y="360" type="curve" smooth="yes"/>
      <point x="319" y="360" type="line" smooth="yes"/>
      <point x="334" y="360"/>
      <point x="342" y="373"/>
      <point x="350" y="388" type="curve" smooth="yes"/>
      <point x="374" y="434"/>
      <point x="384" y="442"/>
      <point x="384" y="454" type="curve" smooth="yes"/>
      <point x="384" y="461"/>
      <point x="379" y="462"/>
      <point x="375" y="462" type="curve" smooth="yes"/>
      <point x="365" y="462"/>
      <point x="354" y="442"/>
      <point x="349" y="436" type="curve" smooth="yes"/>
      <point x="338" y="423"/>
      <point x="307" y="420"/>
      <point x="233" y="420" type="curve" smooth="yes"/>
      <point x="167" y="420"/>
      <point x="157" y="426"/>
      <point x="138" y="426" type="curve" smooth="yes"/>
      <point x="109" y="426"/>
      <point x="106" y="412"/>
      <point x="102" y="400" type="curve" smooth="yes"/>
      <point x="75" y="318" type="line" smooth="yes"/>
      <point x="51" y="248"/>
      <point x="49" y="242"/>
      <point x="49" y="239" type="curve" smooth="yes"/>
      <point x="49" y="220"/>
      <point x="58" y="219"/>
      <point x="79" y="219" type="curve" smooth="yes"/>
      <point x="226" y="219"/>
      <point x="282" y="143"/>
      <point x="282" y="59" type="curve" smooth="yes"/>
      <point x="282" y="-69"/>
      <point x="176" y="-143"/>
      <point x="102" y="-143" type="curve" smooth="yes"/>
      <point x="15" y="-143"/>
      <point x="4" y="-92"/>
      <point x="-19" y="-92" type="curve" smooth="yes"/>
      <point x="-32" y="-92"/>
      <point x="-35" y="-102"/>
      <point x="-35" y="-115" type="curve" smooth="yes"/>
    </contour>
  </outline>
</glyph>
<glyph name="six" format="1">
  <advance width="490"/>
  <unicode hex="0036"/>
  <outline>
    <contour>
      <point x="32" y="110"/>
      <point x="74" y="-13"/>
      <point x="236" y="-13" type="curve" smooth="yes"/>
      <point x="382" y="-13"/>
      <point x="463" y="113"/>
      <point x="463" y="232" type="curve" smooth="yes"/>
      <point x="463" y="336"/>
      <point x="401" y="435"/>
      <point x="267" y="435" type="curve" smooth="yes"/>
      <point x="184" y="435"/>
      <point x="145" y="381"/>
      <point x="134" y="381" type="curve" smooth="yes"/>
      <point x="132" y="381"/>
      <point x="130" y="383"/>
      <point x="130" y="386" type="curve" smooth="yes"/>
      <point x="130" y="451"/>
      <point x="244" y="593"/>
      <point x="348" y="641" type="curve" smooth="yes"/>
      <point x="410" y="670"/>
      <point x="444" y="656"/>
      <point x="444" y="679" type="curve" smooth="yes"/>
      <point x="444" y="686"/>
      <point x="432" y="692"/>
      <point x="421" y="692" type="curve" smooth="yes"/>
      <point x="266" y="692"/>
      <point x="32" y="464"/>
      <point x="32" y="246" type="curve" smooth="yes"/>
    </contour>
    <contour>
      <point x="103" y="323"/>
      <point x="142" y="399"/>
      <point x="232" y="399" type="curve" smooth="yes"/>
      <point x="337" y="399"/>
      <point x="388" y="297"/>
      <point x="388" y="198" type="curve" smooth="yes"/>
      <point x="388" y="107"/>
      <point x="344" y="19"/>
      <point x="260" y="19" type="curve" smooth="yes"/>
      <point x="184" y="19"/>
      <point x="103" y="96"/>
      <point x="103" y="239" type="curve" smooth="yes"/>
    </contour>
  </outline>
</glyph>
<glyph name="seven" format="1">
  <advance width="473"/>
  <unicode hex="0037"/>
  <outline>
    <contour>
      <point x="-23" y="-161"/>
      <point x="-13" y="-163"/>
      <point x="-1" y="-163" type="curve" smooth="yes"/>
      <point x="52" y="-163" type="line" smooth="yes"/>
      <point x="57" y="-163"/>
      <point x="77" y="-161"/>
      <point x="77" y="-140" type="curve" smooth="yes"/>
      <point x="77" y="-135" type="line" smooth="yes"/>
      <point x="77" y="-115"/>
      <point x="82" y="-108"/>
      <point x="146" y="-11" type="curve" smooth="yes"/>
      <point x="335" y="260" type="line"/>
      <point x="419" y="376" type="line" smooth="yes"/>
      <point x="435" y="397"/>
      <point x="453" y="414"/>
      <point x="453" y="428" type="curve" smooth="yes"/>
      <point x="453" y="437"/>
      <point x="449" y="439"/>
      <point x="443" y="439" type="curve" smooth="yes"/>
      <point x="427" y="439"/>
      <point x="422" y="424"/>
      <point x="396" y="424" type="curve" smooth="yes"/>
      <point x="332" y="424" type="line" smooth="yes"/>
      <point x="224" y="424"/>
      <point x="127" y="429"/>
      <point x="89" y="429" type="curve" smooth="yes"/>
      <point x="73" y="429" type="line" smooth="yes"/>
      <point x="44" y="429"/>
      <point x="50" y="417"/>
      <point x="40" y="392" type="curve" smooth="yes"/>
      <point x="31" y="369"/>
      <point x="20" y="347"/>
      <point x="20" y="332" type="curve" smooth="yes"/>
      <point x="20" y="322"/>
      <point x="25" y="315"/>
      <point x="39" y="315" type="curve" smooth="yes"/>
      <point x="54" y="315"/>
      <point x="53" y="324"/>
      <point x="58" y="334" type="curve"/>
      <point x="63" y="346"/>
      <point x="60" y="357"/>
      <point x="114" y="357" type="curve" smooth="yes"/>
      <point x="143" y="357"/>
      <point x="193" y="360"/>
      <point x="224" y="360" type="curve" smooth="yes"/>
      <point x="302" y="360" type="line" smooth="yes"/>
      <point x="318" y="360"/>
      <point x="332" y="361"/>
      <point x="342" y="361" type="curve" smooth="yes"/>
      <point x="357" y="361"/>
      <point x="365" y="359"/>
      <point x="365" y="355" type="curve" smooth="yes"/>
      <point x="365" y="345"/>
      <point x="293" y="262"/>
      <point x="211" y="165" type="curve" smooth="yes"/>
      <point x="134" y="75"/>
      <point x="62" y="-25"/>
      <point x="6" y="-93" type="curve" smooth="yes"/>
      <point x="-15" y="-118"/>
      <point x="-23" y="-141"/>
      <point x="-23" y="-152" type="curve" smooth="yes"/>
    </contour>
  </outline>
</glyph>
<glyph name="eight" format="1">
  <advance width="526"/>
  <unicode hex="0038"/>
  <outline>
    <contour>
      <point x="42" y="46"/>
      <point x="123" y="-25"/>
      <point x="243" y="-25" type="curve" smooth="yes"/>
      <point x="382" y="-25"/>
      <point x="494" y="63"/>
      <point x="494" y="195" type="curve" smooth="yes"/>
      <point x="494" y="327"/>
      <point x="356" y="371"/>
      <point x="356" y="380" type="curve" smooth="yes"/>
      <point x="356" y="390"/>
      <point x="493" y="409"/>
      <point x="493" y="539" type="curve" smooth="yes"/>
      <point x="493" y="643"/>
      <point x="399" y="688"/>
      <point x="306" y="688" type="curve" smooth="yes"/>
      <point x="167" y="688"/>
      <point x="103" y="583"/>
      <point x="103" y="511" type="curve" smooth="yes"/>
      <point x="103" y="411"/>
      <point x="212" y="357"/>
      <point x="212" y="351" type="curve" smooth="yes"/>
      <point x="212" y="346"/>
      <point x="42" y="303"/>
      <point x="42" y="148" type="curve" smooth="yes"/>
    </contour>
    <contour>
      <point x="101" y="203"/>
      <point x="129" y="250"/>
      <point x="143" y="271" type="curve" smooth="yes"/>
      <point x="169" y="310"/>
      <point x="233" y="340"/>
      <point x="242" y="340" type="curve" smooth="yes"/>
      <point x="247" y="340"/>
      <point x="318" y="315"/>
      <point x="339" y="303" type="curve" smooth="yes"/>
      <point x="383" y="278"/>
      <point x="426" y="238"/>
      <point x="426" y="178" type="curve" smooth="yes"/>
      <point x="426" y="109"/>
      <point x="394" y="66"/>
      <point x="357" y="41" type="curve" smooth="yes"/>
      <point x="311" y="10"/>
      <point x="286" y="5"/>
      <point x="247" y="5" type="curve" smooth="yes"/>
      <point x="143" y="5"/>
      <point x="101" y="87"/>
      <point x="101" y="158" type="curve" smooth="yes"/>
    </contour>
    <contour>
      <point x="153" y="618"/>
      <point x="224" y="659"/>
      <point x="300" y="659" type="curve" smooth="yes"/>
      <point x="396" y="659"/>
      <point x="440" y="586"/>
      <point x="440" y="535" type="curve" smooth="yes"/>
      <point x="440" y="448"/>
      <point x="355" y="393"/>
      <point x="324" y="393" type="curve" smooth="yes"/>
      <point x="314" y="393"/>
      <point x="153" y="434"/>
      <point x="153" y="533" type="curve" smooth="yes"/>
    </contour>
  </outline>
</glyph>
<glyph name="nine" format="1">
  <advance width="502"/>
  <unicode hex="0039"/>
  <outline>
    <contour>
      <point x="32" y="35"/>
      <point x="133" y="-19"/>
      <point x="230" y="-19" type="curve" smooth="yes"/>
      <point x="285" y="-19"/>
      <point x="313" y="5"/>
      <point x="331" y="5" type="curve" smooth="yes"/>
      <point x="334" y="5"/>
      <point x="335" y="3"/>
      <point x="335" y="1" type="curve" smooth="yes"/>
      <point x="335" y="-29"/>
      <point x="201" y="-172"/>
      <point x="73" y="-172" type="curve" smooth="yes"/>
      <point x="63" y="-172"/>
      <point x="53" y="-173"/>
      <point x="53" y="-188" type="curve" smooth="yes"/>
      <point x="53" y="-196"/>
      <point x="54" y="-205"/>
      <point x="85" y="-205" type="curve" smooth="yes"/>
      <point x="128" y="-205"/>
      <point x="172" y="-199"/>
      <point x="219" y="-177" type="curve" smooth="yes"/>
      <point x="285" y="-145"/>
      <point x="346" y="-99"/>
      <point x="393" y="-31" type="curve" smooth="yes"/>
      <point x="437" y="33"/>
      <point x="471" y="115"/>
      <point x="471" y="211" type="curve" smooth="yes"/>
      <point x="471" y="366"/>
      <point x="370" y="434"/>
      <point x="263" y="434" type="curve" smooth="yes"/>
      <point x="114" y="434"/>
      <point x="32" y="287"/>
      <point x="32" y="184" type="curve" smooth="yes"/>
    </contour>
    <contour>
      <point x="103" y="311"/>
      <point x="161" y="400"/>
      <point x="246" y="400" type="curve" smooth="yes"/>
      <point x="317" y="400"/>
      <point x="394" y="307"/>
      <point x="394" y="190" type="curve" smooth="yes"/>
      <point x="394" y="116"/>
      <point x="372" y="21"/>
      <point x="266" y="21" type="curve" smooth="yes"/>
      <point x="151" y="21"/>
      <point x="103" y="131"/>
      <point x="103" y="216" type="curve" smooth="yes"/>
    </contour>
  </outline>
</glyph>
<glyph name="colon" format="1">
  <advance width="298"/>
  <unicode hex="003A"/>
  <outline>
    <contour>
      <point x="70" y="40"/>
      <point x="89" y="27"/>
      <point x="102" y="11" type="curve" smooth="yes"/>
      <point x="113" y="-2"/>
      <point x="121" y="-14"/>
      <point x="133" y="-14" type="curve" smooth="yes"/>
      <point x="139" y="-14"/>
      <point x="153" y="4"/>
      <point x="165" y="16" type="curve" smooth="yes"/>
      <point x="180" y="30"/>
      <point x="195" y="45"/>
      <point x="195" y="57" type="curve" smooth="yes"/>
      <point x="195" y="64"/>
      <point x="186" y="73"/>
      <point x="177" y="83" type="curve" smooth="yes"/>
      <point x="161" y="102"/>
      <point x="154" y="116"/>
      <point x="146" y="116" type="curve" smooth="yes"/>
      <point x="130" y="116"/>
      <point x="120" y="100"/>
      <point x="98" y="83" type="curve" smooth="yes"/>
      <point x="94" y="80"/>
      <point x="70" y="58"/>
      <point x="70" y="50" type="curve" smooth="yes"/>
    </contour>
    <contour>
      <point x="104" y="359"/>
      <point x="114" y="351"/>
      <point x="128" y="337" type="curve" smooth="yes"/>
      <point x="137" y="328"/>
      <point x="147" y="310"/>
      <point x="154" y="310" type="curve" smooth="yes"/>
      <point x="162" y="310"/>
      <point x="223" y="354"/>
      <point x="223" y="374" type="curve" smooth="yes"/>
      <point x="223" y="378"/>
      <point x="182" y="429"/>
      <point x="172" y="429" type="curve" smooth="yes"/>
      <point x="161" y="429"/>
      <point x="104" y="379"/>
      <point x="104" y="368" type="curve" smooth="yes"/>
    </contour>
  </outline>
</glyph>
<glyph name="semicolon" format="1">
  <advance width="298"/>
  <unicode hex="003B"/>
  <outline>
    <contour>
      <point x="66" y="-161"/>
      <point x="73" y="-166"/>
      <point x="80" y="-166" type="curve" smooth="yes"/>
      <point x="110" y="-166"/>
      <point x="195" y="-73"/>
      <point x="195" y="0" type="curve" smooth="yes"/>
      <point x="195" y="87"/>
      <point x="158" y="118"/>
      <point x="138" y="118" type="curve" smooth="yes"/>
      <point x="120" y="118"/>
      <point x="81" y="59"/>
      <point x="81" y="56" type="curve" smooth="yes"/>
      <point x="81" y="35"/>
      <point x="136" y="28"/>
      <point x="136" y="-26" type="curve" smooth="yes"/>
      <point x="136" y="-64"/>
      <point x="117" y="-96"/>
      <point x="98" y="-117" type="curve" smooth="yes"/>
      <point x="88" y="-128"/>
      <point x="66" y="-140"/>
      <point x="66" y="-153" type="curve" smooth="yes"/>
    </contour>
    <contour>
      <point x="100" y="359"/>
      <point x="110" y="348"/>
      <point x="124" y="334" type="curve" smooth="yes"/>
      <point x="133" y="325"/>
      <point x="145" y="304"/>
      <point x="152" y="304" type="curve" smooth="yes"/>
      <point x="160" y="304"/>
      <point x="220" y="351"/>
      <point x="220" y="369" type="curve" smooth="yes"/>
      <point x="220" y="373"/>
      <point x="177" y="431"/>
      <point x="167" y="431" type="curve" smooth="yes"/>
      <point x="163" y="431"/>
      <point x="100" y="374"/>
      <point x="100" y="368" type="curve" smooth="yes"/>
    </contour>
  </outline>
</glyph>
<glyph name="less" format="1">
  <advance width="508"/>
  <unicode hex="003C"/>
  <outline>
    <contour>
      <point x="31" y="197"/>
      <point x="31" y="193"/>
      <point x="45" y="188" type="curve" smooth="yes"/>
      <point x="450" y="41"/>
      <point x="448" y="41"/>
      <point x="454" y="41" type="curve" smooth="yes"/>
      <point x="472" y="41"/>
      <point x="477" y="57"/>
      <point x="477" y="65" type="curve" smooth="yes"/>
      <point x="477" y="72"/>
      <point x="472" y="76"/>
      <point x="466" y="78" type="curve" smooth="yes"/>
      <point x="156" y="190" type="line" smooth="yes"/>
      <point x="136" y="197"/>
      <point x="114" y="203"/>
      <point x="114" y="208" type="curve" smooth="yes"/>
      <point x="114" y="213"/>
      <point x="137" y="222"/>
      <point x="156" y="229" type="curve" smooth="yes"/>
      <point x="461" y="340" type="line"/>
      <point x="469" y="342"/>
      <point x="477" y="347"/>
      <point x="477" y="356" type="curve" smooth="yes"/>
      <point x="477" y="377"/>
      <point x="467" y="381"/>
      <point x="458" y="381" type="curve" smooth="yes"/>
      <point x="452" y="381"/>
      <point x="453" y="379"/>
      <point x="46" y="231" type="curve" smooth="yes"/>
      <point x="31" y="225"/>
      <point x="31" y="221"/>
      <point x="31" y="211" type="curve" smooth="yes"/>
    </contour>
  </outline>
</glyph>
<glyph name="equal" format="1">
  <advance width="508"/>
  <unicode hex="003D"/>
  <outline>
    <contour>
      <point x="21" y="97"/>
      <point x="21" y="90"/>
      <point x="39" y="90" type="curve" smooth="yes"/>
      <point x="465" y="90" type="line" smooth="yes"/>
      <point x="486" y="90"/>
      <point x="486" y="97"/>
      <point x="486" y="114" type="curve" smooth="yes"/>
      <point x="486" y="128"/>
      <point x="486" y="135"/>
      <point x="470" y="135" type="curve" smooth="yes"/>
      <point x="40" y="135" type="line" smooth="yes"/>
      <point x="22" y="135"/>
      <point x="21" y="127"/>
      <point x="21" y="114" type="curve" smooth="yes"/>
    </contour>
    <contour>
      <point x="21" y="293"/>
      <point x="21" y="286"/>
      <point x="39" y="286" type="curve" smooth="yes"/>
      <point x="465" y="286" type="line" smooth="yes"/>
      <point x="486" y="286"/>
      <point x="486" y="292"/>
      <point x="486" y="309" type="curve" smooth="yes"/>
      <point x="486" y="323"/>
      <point x="486" y="330"/>
      <point x="470" y="330" type="curve" smooth="yes"/>
      <point x="40" y="330" type="line" smooth="yes"/>
      <point x="22" y="330"/>
      <point x="21" y="323"/>
      <point x="21" y="310" type="curve" smooth="yes"/>
    </contour>
  </outline>
</glyph>
<glyph name="greater" format="1">
  <advance width="508"/>
  <unicode hex="003E"/>
  <outline>
    <contour>
      <point x="31" y="57"/>
      <point x="36" y="41"/>
      <point x="54" y="41" type="curve" smooth="yes"/>
      <point x="60" y="41"/>
      <point x="57" y="41"/>
      <point x="462" y="188" type="curve" smooth="yes"/>
      <point x="476" y="193"/>
      <point x="477" y="197"/>
      <point x="477" y="211" type="curve" smooth="yes"/>
      <point x="477" y="221"/>
      <point x="476" y="225"/>
      <point x="461" y="231" type="curve" smooth="yes"/>
      <point x="54" y="379"/>
      <point x="55" y="381"/>
      <point x="49" y="381" type="curve" smooth="yes"/>
      <point x="40" y="381"/>
      <point x="31" y="377"/>
      <point x="31" y="356" type="curve" smooth="yes"/>
      <point x="31" y="347"/>
      <point x="38" y="342"/>
      <point x="46" y="340" type="curve"/>
      <point x="352" y="229" type="line" smooth="yes"/>
      <point x="371" y="222"/>
      <point x="394" y="213"/>
      <point x="394" y="208" type="curve" smooth="yes"/>
      <point x="394" y="203"/>
      <point x="372" y="197"/>
      <point x="352" y="190" type="curve" smooth="yes"/>
      <point x="42" y="78" type="line" smooth="yes"/>
      <point x="36" y="76"/>
      <point x="31" y="72"/>
      <point x="31" y="65" type="curve" smooth="yes"/>
    </contour>
  </outline>
</glyph>
<glyph name="B" format="1">
  <advance width="612"/>
  <unicode hex="0042"/>
  <outline>
    <contour>
      <point x="20" y="-2"/>
      <point x="31" y="-6"/>
      <point x="41" y="-6" type="curve" smooth="yes"/>
      <point x="81" y="-6"/>
      <point x="125" y="0"/>
      <point x="147" y="0" type="curve" smooth="yes"/>
      <point x="170" y="0"/>
      <point x="221" y="-3"/>
      <point x="282" y="-3" type="curve" smooth="yes"/>
      <point x="333" y="-3"/>
      <point x="375" y="1"/>
      <point x="410" y="12" type="curve" smooth="yes"/>
      <point x="522" y="49"/>
      <point x="568" y="148"/>
      <point x="568" y="209" type="curve" smooth="yes"/>
      <point x="568" y="354"/>
      <point x="424" y="359"/>
      <point x="424" y="370" type="curve" smooth="yes"/>
      <point x="424" y="376"/>
      <point x="565" y="428"/>
      <point x="565" y="547" type="curve" smooth="yes"/>
      <point x="565" y="662"/>
      <point x="470" y="706"/>
      <point x="362" y="706" type="curve" smooth="yes"/>
      <point x="327" y="706"/>
      <point x="293" y="705"/>
      <point x="250" y="705" type="curve" smooth="yes"/>
      <point x="232" y="705"/>
      <point x="179" y="704"/>
      <point x="143" y="704" type="curve" smooth="yes"/>
      <point x="113" y="704"/>
      <point x="85" y="708"/>
      <point x="75" y="708" type="curve" smooth="yes"/>
      <point x="71" y="708"/>
      <point x="62" y="704"/>
      <point x="62" y="696" type="curve" smooth="yes"/>
      <point x="62" y="672"/>
      <point x="100" y="687"/>
      <point x="125" y="669" type="curve" smooth="yes"/>
      <point x="146" y="654"/>
      <point x="150" y="640"/>
      <point x="150" y="626" type="curve" smooth="yes"/>
      <point x="150" y="599"/>
      <point x="113" y="234"/>
      <point x="96" y="122" type="curve" smooth="yes"/>
      <point x="91" y="87"/>
      <point x="89" y="25"/>
      <point x="34" y="25" type="curve" smooth="yes"/>
      <point x="24" y="25"/>
      <point x="20" y="14"/>
      <point x="20" y="9" type="curve" smooth="yes"/>
    </contour>
    <contour>
      <point x="164" y="81"/>
      <point x="168" y="106"/>
      <point x="171" y="134" type="curve" smooth="yes"/>
      <point x="179" y="201" type="line" smooth="yes"/>
      <point x="194" y="325"/>
      <point x="196" y="361"/>
      <point x="207" y="361" type="curve" smooth="yes"/>
      <point x="236" y="361" type="line" smooth="yes"/>
      <point x="251" y="361"/>
      <point x="276" y="359"/>
      <point x="318" y="356" type="curve" smooth="yes"/>
      <point x="437" y="346"/>
      <point x="483" y="271"/>
      <point x="483" y="195" type="curve" smooth="yes"/>
      <point x="483" y="136"/>
      <point x="433" y="28"/>
      <point x="286" y="28" type="curve" smooth="yes"/>
      <point x="183" y="28"/>
      <point x="164" y="47"/>
      <point x="164" y="75" type="curve" smooth="yes"/>
    </contour>
    <contour>
      <point x="208" y="408"/>
      <point x="212" y="460"/>
      <point x="225" y="545" type="curve" smooth="yes"/>
      <point x="237" y="627" type="line" smooth="yes"/>
      <point x="242" y="661"/>
      <point x="251" y="669"/>
      <point x="290" y="669" type="curve" smooth="yes"/>
      <point x="382" y="669"/>
      <point x="412" y="652"/>
      <point x="442" y="627" type="curve" smooth="yes"/>
      <point x="475" y="599"/>
      <point x="486" y="563"/>
      <point x="486" y="532" type="curve" smooth="yes"/>
      <point x="486" y="486"/>
      <point x="453" y="386"/>
      <point x="342" y="386" type="curve" smooth="yes"/>
      <point x="224" y="386"/>
      <point x="208" y="386"/>
      <point x="208" y="404" type="curve" smooth="yes"/>
    </contour>
  </outline>
</glyph>
<glyph name="D" format="1">
  <advance width="767"/>
  <unicode hex="0044"/>
  <outline>
    <contour>
      <point x="20" y="4"/>
      <point x="29" y="-5"/>
      <point x="42" y="-5" type="curve" smooth="yes"/>
      <point x="62" y="-5"/>
      <point x="83" y="3"/>
      <point x="143" y="3" type="curve" smooth="yes"/>
      <point x="230" y="3"/>
      <point x="239" y="0"/>
      <point x="298" y="0" type="curve" smooth="yes"/>
      <point x="389" y="0"/>
      <point x="463" y="20"/>
      <point x="524" y="57" type="curve" smooth="yes"/>
      <point x="554" y="75"/>
      <point x="623" y="136"/>
      <point x="655" y="186" type="curve" smooth="yes"/>
      <point x="703" y="260"/>
      <point x="733" y="349"/>
      <point x="733" y="432" type="curve" smooth="yes"/>
      <point x="733" y="581"/>
      <point x="635" y="714"/>
      <point x="364" y="714" type="curve" smooth="yes"/>
      <point x="286" y="714"/>
      <point x="263" y="704"/>
      <point x="208" y="704" type="curve" smooth="yes"/>
      <point x="161" y="704"/>
      <point x="143" y="715"/>
      <point x="107" y="715" type="curve" smooth="yes"/>
      <point x="82" y="715"/>
      <point x="76" y="704"/>
      <point x="76" y="697" type="curve" smooth="yes"/>
      <point x="76" y="686"/>
      <point x="91" y="677"/>
      <point x="122" y="675" type="curve" smooth="yes"/>
      <point x="144" y="674"/>
      <point x="167" y="655"/>
      <point x="167" y="634" type="curve" smooth="yes"/>
      <point x="167" y="629"/>
      <point x="166" y="624"/>
      <point x="165" y="616" type="curve" smooth="yes"/>
      <point x="97" y="116" type="line" smooth="yes"/>
      <point x="94" y="96"/>
      <point x="92" y="87"/>
      <point x="88" y="73" type="curve"/>
      <point x="68" y="12"/>
      <point x="20" y="39"/>
      <point x="20" y="13" type="curve" smooth="yes"/>
    </contour>
    <contour>
      <point x="172" y="73"/>
      <point x="234" y="578"/>
      <point x="244" y="617" type="curve" smooth="yes"/>
      <point x="259" y="671"/>
      <point x="275" y="672"/>
      <point x="353" y="672" type="curve" smooth="yes"/>
      <point x="588" y="672"/>
      <point x="641" y="528"/>
      <point x="641" y="431" type="curve" smooth="yes"/>
      <point x="641" y="381"/>
      <point x="628" y="218"/>
      <point x="512" y="113" type="curve" smooth="yes"/>
      <point x="453" y="59"/>
      <point x="359" y="34"/>
      <point x="308" y="34" type="curve" smooth="yes"/>
      <point x="220" y="34" type="line" smooth="yes"/>
      <point x="180" y="34"/>
      <point x="172" y="49"/>
      <point x="172" y="71" type="curve" smooth="yes"/>
    </contour>
  </outline>
</glyph>
<glyph name="F" format="1">
  <advance width="585"/>
  <unicode hex="0046"/>
  <outline>
    <contour>
      <point x="20" y="1"/>
      <point x="27" y="-5"/>
      <point x="45" y="-5" type="curve" smooth="yes"/>
      <point x="49" y="-5"/>
      <point x="112" y="3"/>
      <point x="167" y="3" type="curve" smooth="yes"/>
      <point x="224" y="3"/>
      <point x="254" y="-2"/>
      <point x="270" y="-2" type="curve" smooth="yes"/>
      <point x="282" y="-2"/>
      <point x="285" y="1"/>
      <point x="285" y="10" type="curve" smooth="yes"/>
      <point x="285" y="44"/>
      <point x="177" y="6"/>
      <point x="177" y="89" type="curve" smooth="yes"/>
      <point x="177" y="106"/>
      <point x="198" y="247"/>
      <point x="206" y="318" type="curve"/>
      <point x="207" y="334"/>
      <point x="221" y="340"/>
      <point x="242" y="340" type="curve" smooth="yes"/>
      <point x="421" y="340"/>
      <point x="446" y="337"/>
      <point x="446" y="271" type="curve" smooth="yes"/>
      <point x="446" y="260" type="line" smooth="yes"/>
      <point x="446" y="244"/>
      <point x="453" y="239"/>
      <point x="462" y="239" type="curve" smooth="yes"/>
      <point x="475" y="239"/>
      <point x="475" y="264"/>
      <point x="475" y="291" type="curve" smooth="yes"/>
      <point x="475" y="364"/>
      <point x="494" y="406"/>
      <point x="494" y="438" type="curve" smooth="yes"/>
      <point x="494" y="444"/>
      <point x="491" y="448"/>
      <point x="484" y="448" type="curve" smooth="yes"/>
      <point x="458" y="448"/>
      <point x="475" y="390"/>
      <point x="412" y="384" type="curve" smooth="yes"/>
      <point x="392" y="382"/>
      <point x="364" y="382"/>
      <point x="318" y="382" type="curve" smooth="yes"/>
      <point x="257" y="382" type="line" smooth="yes"/>
      <point x="217" y="382"/>
      <point x="215" y="387"/>
      <point x="215" y="400" type="curve" smooth="yes"/>
      <point x="215" y="413"/>
      <point x="236" y="571"/>
      <point x="240" y="599" type="curve" smooth="yes"/>
      <point x="250" y="659"/>
      <point x="247" y="669"/>
      <point x="309" y="669" type="curve" smooth="yes"/>
      <point x="343" y="669" type="line" smooth="yes"/>
      <point x="359" y="669"/>
      <point x="361" y="669"/>
      <point x="417" y="666" type="curve" smooth="yes"/>
      <point x="480" y="663"/>
      <point x="502" y="650"/>
      <point x="514" y="637" type="curve"/>
      <point x="557" y="594"/>
      <point x="535" y="557"/>
      <point x="559" y="557" type="curve" smooth="yes"/>
      <point x="566" y="557"/>
      <point x="571" y="565"/>
      <point x="571" y="584" type="curve" smooth="yes"/>
      <point x="571" y="605"/>
      <point x="566" y="622"/>
      <point x="566" y="638" type="curve" smooth="yes"/>
      <point x="566" y="691" type="line" smooth="yes"/>
      <point x="566" y="708"/>
      <point x="555" y="708"/>
      <point x="548" y="708" type="curve" smooth="yes"/>
      <point x="518" y="708"/>
      <point x="408" y="706"/>
      <point x="368" y="706" type="curve" smooth="yes"/>
      <point x="217" y="706"/>
      <point x="128" y="711"/>
      <point x="99" y="711" type="curve" smooth="yes"/>
      <point x="81" y="711"/>
      <point x="76" y="705"/>
      <point x="76" y="695" type="curve" smooth="yes"/>
      <point x="76" y="659"/>
      <point x="168" y="703"/>
      <point x="168" y="620" type="curve" smooth="yes"/>
      <point x="168" y="610"/>
      <point x="146" y="415"/>
      <point x="118" y="221" type="curve" smooth="yes"/>
      <point x="103" y="115"/>
      <point x="97" y="30"/>
      <point x="41" y="25" type="curve" smooth="yes"/>
      <point x="28" y="24"/>
      <point x="20" y="15"/>
      <point x="20" y="8" type="curve" smooth="yes"/>
    </contour>
  </outline>
</glyph>
<glyph name="H" format="1">
  <advance width="786"/>
  <unicode hex="0048"/>
  <outline>
    <contour>
      <point x="20" y="-1"/>
      <point x="34" y="-3"/>
      <point x="54" y="-3" type="curve" smooth="yes"/>
      <point x="78" y="-3"/>
      <point x="109" y="2"/>
      <point x="132" y="2" type="curve" smooth="yes"/>
      <point x="185" y="2"/>
      <point x="196" y="0"/>
      <point x="238" y="0" type="curve" smooth="yes"/>
      <point x="245" y="0"/>
      <point x="254" y="0"/>
      <point x="254" y="9" type="curve" smooth="yes"/>
      <point x="254" y="20"/>
      <point x="240" y="21"/>
      <point x="224" y="25" type="curve" smooth="yes"/>
      <point x="199" y="32"/>
      <point x="167" y="30"/>
      <point x="167" y="99" type="curve" smooth="yes"/>
      <point x="167" y="120"/>
      <point x="175" y="176"/>
      <point x="188" y="266" type="curve" smooth="yes"/>
      <point x="195" y="318" type="line" smooth="yes"/>
      <point x="198" y="342"/>
      <point x="196" y="343"/>
      <point x="219" y="343" type="curve" smooth="yes"/>
      <point x="454" y="343" type="line" smooth="yes"/>
      <point x="503" y="343"/>
      <point x="534" y="344"/>
      <point x="554" y="344" type="curve" smooth="yes"/>
      <point x="585" y="344"/>
      <point x="588" y="342"/>
      <point x="588" y="328" type="curve" smooth="yes"/>
      <point x="588" y="323"/>
      <point x="570" y="183"/>
      <point x="560" y="112" type="curve" smooth="yes"/>
      <point x="556" y="82"/>
      <point x="556" y="28"/>
      <point x="508" y="23" type="curve" smooth="yes"/>
      <point x="496" y="22"/>
      <point x="489" y="19"/>
      <point x="489" y="8" type="curve" smooth="yes"/>
      <point x="489" y="0"/>
      <point x="499" y="-5"/>
      <point x="521" y="-5" type="curve" smooth="yes"/>
      <point x="542" y="-5"/>
      <point x="560" y="3"/>
      <point x="611" y="3" type="curve" smooth="yes"/>
      <point x="653" y="3"/>
      <point x="674" y="-6"/>
      <point x="713" y="-6" type="curve" smooth="yes"/>
      <point x="723" y="-6"/>
      <point x="731" y="-4"/>
      <point x="731" y="6" type="curve" smooth="yes"/>
      <point x="731" y="17"/>
      <point x="713" y="23"/>
      <point x="698" y="24" type="curve" smooth="yes"/>
      <point x="672" y="26"/>
      <point x="636" y="22"/>
      <point x="636" y="100" type="curve" smooth="yes"/>
      <point x="636" y="137"/>
      <point x="662" y="281"/>
      <point x="690" y="545" type="curve" smooth="yes"/>
      <point x="693" y="577"/>
      <point x="700" y="639"/>
      <point x="720" y="662" type="curve" smooth="yes"/>
      <point x="735" y="680"/>
      <point x="767" y="672"/>
      <point x="767" y="688" type="curve" smooth="yes"/>
      <point x="767" y="702"/>
      <point x="752" y="703"/>
      <point x="745" y="703" type="curve" smooth="yes"/>
      <point x="725" y="703"/>
      <point x="702" y="699"/>
      <point x="659" y="699" type="curve" smooth="yes"/>
      <point x="603" y="699"/>
      <point x="580" y="702"/>
      <point x="552" y="702" type="curve" smooth="yes"/>
      <point x="531" y="702"/>
      <point x="525" y="697"/>
      <point x="525" y="689" type="curve" smooth="yes"/>
      <point x="525" y="673"/>
      <point x="564" y="676"/>
      <point x="579" y="670" type="curve" smooth="yes"/>
      <point x="600" y="661"/>
      <point x="619" y="639"/>
      <point x="619" y="605" type="curve" smooth="yes"/>
      <point x="619" y="594"/>
      <point x="603" y="454"/>
      <point x="600" y="425" type="curve" smooth="yes"/>
      <point x="596" y="388"/>
      <point x="592" y="384"/>
      <point x="570" y="384" type="curve" smooth="yes"/>
      <point x="550" y="384" type="line" smooth="yes"/>
      <point x="283" y="386"/>
      <point x="250" y="387"/>
      <point x="217" y="387" type="curve" smooth="yes"/>
      <point x="209" y="387"/>
      <point x="205" y="387"/>
      <point x="205" y="399" type="curve" smooth="yes"/>
      <point x="205" y="406"/>
      <point x="206" y="419"/>
      <point x="209" y="438" type="curve" smooth="yes"/>
      <point x="232" y="568"/>
      <point x="230" y="635"/>
      <point x="254" y="663" type="curve" smooth="yes"/>
      <point x="269" y="681"/>
      <point x="306" y="673"/>
      <point x="306" y="689" type="curve" smooth="yes"/>
      <point x="306" y="703"/>
      <point x="295" y="704"/>
      <point x="288" y="704" type="curve" smooth="yes"/>
      <point x="268" y="704"/>
      <point x="237" y="697"/>
      <point x="194" y="697" type="curve" smooth="yes"/>
      <point x="138" y="697"/>
      <point x="119" y="704"/>
      <point x="91" y="704" type="curve" smooth="yes"/>
      <point x="70" y="704"/>
      <point x="64" y="697"/>
      <point x="64" y="689" type="curve" smooth="yes"/>
      <point x="64" y="684"/>
      <point x="66" y="679"/>
      <point x="72" y="677" type="curve"/>
      <point x="87" y="670"/>
      <point x="158" y="678"/>
      <point x="158" y="619" type="curve" smooth="yes"/>
      <point x="158" y="617"/>
      <point x="139" y="465"/>
      <point x="122" y="326" type="curve" smooth="yes"/>
      <point x="98" y="121"/>
      <point x="96" y="66"/>
      <point x="75" y="45" type="curve" smooth="yes"/>
      <point x="47" y="17"/>
      <point x="20" y="33"/>
      <point x="20" y="11" type="curve" smooth="yes"/>
    </contour>
  </outline>
</glyph>
<glyph name="J" format="1">
  <advance width="405"/>
  <unicode hex="004A"/>
  <outline>
    <contour>
      <point x="-10" y="-57"/>
      <point x="11" y="-69"/>
      <point x="42" y="-69" type="curve" smooth="yes"/>
      <point x="99" y="-69"/>
      <point x="186" y="-16"/>
      <point x="222" y="66" type="curve" smooth="yes"/>
      <point x="239" y="104"/>
      <point x="252" y="148"/>
      <point x="259" y="195" type="curve" smooth="yes"/>
      <point x="286" y="375"/>
      <point x="302" y="547"/>
      <point x="310" y="597" type="curve" smooth="yes"/>
      <point x="330" y="719"/>
      <point x="385" y="658"/>
      <point x="385" y="695" type="curve" smooth="yes"/>
      <point x="385" y="705"/>
      <point x="371" y="707"/>
      <point x="362" y="707" type="curve" smooth="yes"/>
      <point x="347" y="707"/>
      <point x="321" y="699"/>
      <point x="265" y="699" type="curve" smooth="yes"/>
      <point x="205" y="699"/>
      <point x="198" y="708"/>
      <point x="167" y="708" type="curve" smooth="yes"/>
      <point x="149" y="708"/>
      <point x="141" y="700"/>
      <point x="141" y="692" type="curve" smooth="yes"/>
      <point x="141" y="680"/>
      <point x="151" y="675"/>
      <point x="166" y="674" type="curve" smooth="yes"/>
      <point x="190" y="672"/>
      <point x="234" y="667"/>
      <point x="234" y="629" type="curve" smooth="yes"/>
      <point x="234" y="623"/>
      <point x="232" y="615"/>
      <point x="231" y="604" type="curve" smooth="yes"/>
      <point x="189" y="246" type="line" smooth="yes"/>
      <point x="174" y="116"/>
      <point x="151" y="-17"/>
      <point x="93" y="-17" type="curve" smooth="yes"/>
      <point x="45" y="-17"/>
      <point x="47" y="38"/>
      <point x="27" y="38" type="curve" smooth="yes"/>
      <point x="5" y="38"/>
      <point x="-10" y="-34"/>
      <point x="-10" y="-39" type="curve" smooth="yes"/>
    </contour>
  </outline>
</glyph>
<glyph name="L" format="1">
  <advance width="589"/>
  <unicode hex="004C"/>
  <outline>
    <contour>
      <point x="25" y="4"/>
      <point x="30" y="-3"/>
      <point x="48" y="-3" type="curve" smooth="yes"/>
      <point x="97" y="-3"/>
      <point x="119" y="3"/>
      <point x="174" y="3" type="curve" smooth="yes"/>
      <point x="234" y="3"/>
      <point x="333" y="-8"/>
      <point x="420" y="-8" type="curve" smooth="yes"/>
      <point x="467" y="-8" type="line" smooth="yes"/>
      <point x="489" y="-8"/>
      <point x="503" y="-6"/>
      <point x="528" y="16" type="curve" smooth="yes"/>
      <point x="538" y="25"/>
      <point x="584" y="90"/>
      <point x="584" y="122" type="curve" smooth="yes"/>
      <point x="584" y="135"/>
      <point x="577" y="137"/>
      <point x="572" y="137" type="curve" smooth="yes"/>
      <point x="543" y="137"/>
      <point x="567" y="38"/>
      <point x="284" y="38" type="curve" smooth="yes"/>
      <point x="184" y="38"/>
      <point x="175" y="49"/>
      <point x="175" y="93" type="curve" smooth="yes"/>
      <point x="175" y="111"/>
      <point x="242" y="598"/>
      <point x="246" y="627" type="curve" smooth="yes"/>
      <point x="257" y="701"/>
      <point x="319" y="677"/>
      <point x="319" y="702" type="curve" smooth="yes"/>
      <point x="319" y="710"/>
      <point x="311" y="715"/>
      <point x="298" y="715" type="curve" smooth="yes"/>
      <point x="280" y="715"/>
      <point x="261" y="711"/>
      <point x="207" y="711" type="curve" smooth="yes"/>
      <point x="129" y="711"/>
      <point x="103" y="719"/>
      <point x="93" y="719" type="curve" smooth="yes"/>
      <point x="80" y="719"/>
      <point x="77" y="712"/>
      <point x="77" y="707" type="curve" smooth="yes"/>
      <point x="77" y="697"/>
      <point x="89" y="687"/>
      <point x="106" y="687" type="curve" smooth="yes"/>
      <point x="145" y="686"/>
      <point x="167" y="670"/>
      <point x="167" y="632" type="curve" smooth="yes"/>
      <point x="167" y="595"/>
      <point x="152" y="477"/>
      <point x="138" y="377" type="curve" smooth="yes"/>
      <point x="94" y="66"/>
      <point x="106" y="67"/>
      <point x="78" y="42" type="curve" smooth="yes"/>
      <point x="52" y="19"/>
      <point x="25" y="32"/>
      <point x="25" y="10" type="curve" smooth="yes"/>
    </contour>
  </outline>
</glyph>
<glyph name="M" format="1">
  <advance width="911"/>
  <unicode hex="004D"/>
  <outline>
    <contour>
      <point x="20" y="0"/>
      <point x="31" y="-2"/>
      <point x="43" y="-2" type="curve" smooth="yes"/>
      <point x="87" y="-2"/>
      <point x="104" y="1"/>
      <point x="116" y="1" type="curve" smooth="yes"/>
      <point x="130" y="1"/>
      <point x="175" y="-2"/>
      <point x="209" y="-2" type="curve" smooth="yes"/>
      <point x="217" y="-2"/>
      <point x="230" y="-1"/>
      <point x="230" y="10" type="curve" smooth="yes"/>
      <point x="230" y="25"/>
      <point x="208" y="25"/>
      <point x="186" y="29" type="curve" smooth="yes"/>
      <point x="164" y="33"/>
      <point x="143" y="41"/>
      <point x="143" y="71" type="curve" smooth="yes"/>
      <point x="143" y="131"/>
      <point x="188" y="307"/>
      <point x="205" y="449" type="curve" smooth="yes"/>
      <point x="206" y="459"/>
      <point x="214" y="493"/>
      <point x="219" y="493" type="curve" smooth="yes"/>
      <point x="224" y="493"/>
      <point x="224" y="493"/>
      <point x="247" y="440" type="curve" smooth="yes"/>
      <point x="424" y="38"/>
      <point x="440" y="3"/>
      <point x="449" y="3" type="curve" smooth="yes"/>
      <point x="468" y="3"/>
      <point x="460" y="7"/>
      <point x="542" y="166" type="curve" smooth="yes"/>
      <point x="688" y="449" type="line" smooth="yes"/>
      <point x="707" y="486"/>
      <point x="721" y="505"/>
      <point x="727" y="505" type="curve" smooth="yes"/>
      <point x="729" y="505"/>
      <point x="733" y="499"/>
      <point x="733" y="390" type="curve" smooth="yes"/>
      <point x="733" y="356"/>
      <point x="732" y="113"/>
      <point x="718" y="66" type="curve" smooth="yes"/>
      <point x="702" y="14"/>
      <point x="652" y="31"/>
      <point x="652" y="8" type="curve" smooth="yes"/>
      <point x="652" y="3"/>
      <point x="659" y="-4"/>
      <point x="673" y="-4" type="curve" smooth="yes"/>
      <point x="709" y="-4"/>
      <point x="728" y="1"/>
      <point x="756" y="1" type="curve" smooth="yes"/>
      <point x="799" y="1"/>
      <point x="836" y="-4"/>
      <point x="860" y="-4" type="curve" smooth="yes"/>
      <point x="878" y="-4"/>
      <point x="888" y="-1"/>
      <point x="888" y="10" type="curve" smooth="yes"/>
      <point x="888" y="15"/>
      <point x="882" y="21"/>
      <point x="873" y="22" type="curve" smooth="yes"/>
      <point x="864" y="23"/>
      <point x="856" y="24"/>
      <point x="849" y="25" type="curve"/>
      <point x="812" y="32"/>
      <point x="799" y="48"/>
      <point x="799" y="106" type="curve" smooth="yes"/>
      <point x="799" y="234"/>
      <point x="801" y="209"/>
      <point x="801" y="234" type="curve" smooth="yes"/>
      <point x="801" y="270"/>
      <point x="803" y="322"/>
      <point x="803" y="376" type="curve" smooth="yes"/>
      <point x="803" y="454" type="line" smooth="yes"/>
      <point x="803" y="484"/>
      <point x="803" y="518"/>
      <point x="808" y="564" type="curve" smooth="yes"/>
      <point x="822" y="694"/>
      <point x="843" y="676"/>
      <point x="877" y="683" type="curve"/>
      <point x="883" y="684"/>
      <point x="891" y="693"/>
      <point x="891" y="698" type="curve" smooth="yes"/>
      <point x="891" y="705"/>
      <point x="884" y="712"/>
      <point x="867" y="712" type="curve" smooth="yes"/>
      <point x="861" y="712"/>
      <point x="830" y="708"/>
      <point x="812" y="708" type="curve" smooth="yes"/>
      <point x="782" y="708" type="line" smooth="yes"/>
      <point x="759" y="708"/>
      <point x="755" y="674"/>
      <point x="709" y="577" type="curve" smooth="yes"/>
      <point x="685" y="526"/>
      <point x="655" y="470"/>
      <point x="636" y="432" type="curve" smooth="yes"/>
      <point x="531" y="221"/>
      <point x="482" y="126"/>
      <point x="475" y="126" type="curve" smooth="yes"/>
      <point x="468" y="126"/>
      <point x="353" y="370"/>
      <point x="272" y="571" type="curve" smooth="yes"/>
      <point x="224" y="690"/>
      <point x="217" y="713"/>
      <point x="194" y="713" type="curve" smooth="yes"/>
      <point x="175" y="713"/>
      <point x="157" y="712"/>
      <point x="130" y="712" type="curve" smooth="yes"/>
      <point x="124" y="712" type="line" smooth="yes"/>
      <point x="102" y="712"/>
      <point x="53" y="711"/>
      <point x="53" y="695" type="curve" smooth="yes"/>
      <point x="53" y="683"/>
      <point x="62" y="680"/>
      <point x="68" y="680" type="curve" smooth="yes"/>
      <point x="83" y="680" type="line" smooth="yes"/>
      <point x="112" y="680"/>
      <point x="127" y="677"/>
      <point x="144" y="655" type="curve" smooth="yes"/>
      <point x="157" y="637"/>
      <point x="174" y="605"/>
      <point x="174" y="562" type="curve" smooth="yes"/>
      <point x="174" y="547"/>
      <point x="175" y="533"/>
      <point x="175" y="519" type="curve" smooth="yes"/>
      <point x="175" y="458"/>
      <point x="139" y="299"/>
      <point x="125" y="225" type="curve" smooth="yes"/>
      <point x="103" y="105"/>
      <point x="97" y="49"/>
      <point x="58" y="34" type="curve" smooth="yes"/>
      <point x="23" y="20"/>
      <point x="20" y="22"/>
      <point x="20" y="10" type="curve" smooth="yes"/>
    </contour>
  </outline>
</glyph>
<glyph name="P" format="1">
  <advance width="576"/>
  <unicode hex="0050"/>
  <outline>
    <contour>
      <point x="19" y="0"/>
      <point x="35" y="-4"/>
      <point x="51" y="-4" type="curve" smooth="yes"/>
      <point x="60" y="-4"/>
      <point x="119" y="2"/>
      <point x="132" y="2" type="curve" smooth="yes"/>
      <point x="184" y="2"/>
      <point x="214" y="-5"/>
      <point x="235" y="-5" type="curve" smooth="yes"/>
      <point x="246" y="-5"/>
      <point x="254" y="-1"/>
      <point x="254" y="10" type="curve" smooth="yes"/>
      <point x="254" y="30"/>
      <point x="162" y="19"/>
      <point x="162" y="81" type="curve" smooth="yes"/>
      <point x="162" y="91"/>
      <point x="172" y="148"/>
      <point x="173" y="160" type="curve"/>
      <point x="196" y="348"/>
      <point x="209" y="459"/>
      <point x="218" y="529" type="curve" smooth="yes"/>
      <point x="226" y="589"/>
      <point x="230" y="618"/>
      <point x="235" y="638" type="curve" smooth="yes"/>
      <point x="246" y="683"/>
      <point x="251" y="682"/>
      <point x="268" y="683" type="curve"/>
      <point x="274" y="684"/>
      <point x="283" y="684"/>
      <point x="294" y="684" type="curve" smooth="yes"/>
      <point x="321" y="684"/>
      <point x="357" y="679"/>
      <point x="387" y="660" type="curve" smooth="yes"/>
      <point x="416" y="641"/>
      <point x="458" y="612"/>
      <point x="458" y="540" type="curve" smooth="yes"/>
      <point x="458" y="415"/>
      <point x="358" y="348"/>
      <point x="293" y="348" type="curve" smooth="yes"/>
      <point x="256" y="348"/>
      <point x="243" y="349"/>
      <point x="238" y="349" type="curve" smooth="yes"/>
      <point x="235" y="349"/>
      <point x="235" y="348"/>
      <point x="235" y="347" type="curve" smooth="yes"/>
      <point x="235" y="338"/>
      <point x="267" y="331"/>
      <point x="304" y="331" type="curve" smooth="yes"/>
      <point x="346" y="331"/>
      <point x="381" y="335"/>
      <point x="410" y="347" type="curve" smooth="yes"/>
      <point x="492" y="382"/>
      <point x="537" y="470"/>
      <point x="537" y="551" type="curve" smooth="yes"/>
      <point x="537" y="663"/>
      <point x="461" y="717"/>
      <point x="353" y="717" type="curve" smooth="yes"/>
      <point x="318" y="717"/>
      <point x="288" y="710"/>
      <point x="245" y="710" type="curve" smooth="yes"/>
      <point x="228" y="710"/>
      <point x="121" y="716"/>
      <point x="88" y="716" type="curve" smooth="yes"/>
      <point x="72" y="716"/>
      <point x="65" y="712"/>
      <point x="65" y="704" type="curve" smooth="yes"/>
      <point x="65" y="698"/>
      <point x="69" y="690"/>
      <point x="83" y="690" type="curve" smooth="yes"/>
      <point x="144" y="688"/>
      <point x="152" y="659"/>
      <point x="152" y="636" type="curve" smooth="yes"/>
      <point x="152" y="588"/>
      <point x="114" y="292"/>
      <point x="114" y="292" type="curve"/>
      <point x="103" y="200"/>
      <point x="91" y="97"/>
      <point x="87" y="78" type="curve" smooth="yes"/>
      <point x="78" y="39"/>
      <point x="59" y="29"/>
      <point x="44" y="26" type="curve" smooth="yes"/>
      <point x="30" y="23"/>
      <point x="19" y="22"/>
      <point x="19" y="10" type="curve" smooth="yes"/>
    </contour>
  </outline>
</glyph>
<glyph name="Q" format="1">
  <advance width="807"/>
  <unicode hex="0051"/>
  <outline>
    <contour>
      <point x="39" y="-131"/>
      <point x="63" y="-146"/>
      <point x="80" y="-146" type="curve" smooth="yes"/>
      <point x="88" y="-146"/>
      <point x="92" y="-138"/>
      <point x="92" y="-133" type="curve" smooth="yes"/>
      <point x="92" y="-120"/>
      <point x="69" y="-103"/>
      <point x="69" y="-52" type="curve" smooth="yes"/>
      <point x="69" y="-10"/>
      <point x="103" y="37"/>
      <point x="146" y="37" type="curve" smooth="yes"/>
      <point x="212" y="37"/>
      <point x="478" y="-200"/>
      <point x="646" y="-200" type="curve" smooth="yes"/>
      <point x="709" y="-200"/>
      <point x="771" y="-129"/>
      <point x="771" y="-96" type="curve" smooth="yes"/>
      <point x="771" y="-90"/>
      <point x="769" y="-86"/>
      <point x="763" y="-86" type="curve" smooth="yes"/>
      <point x="748" y="-86"/>
      <point x="737" y="-135"/>
      <point x="672" y="-135" type="curve" smooth="yes"/>
      <point x="594" y="-135"/>
      <point x="416" y="-31"/>
      <point x="416" y="-28" type="curve" smooth="yes"/>
      <point x="416" y="-21"/>
      <point x="418" y="-16"/>
      <point x="470" y="-10" type="curve" smooth="yes"/>
      <point x="627" y="9"/>
      <point x="773" y="165"/>
      <point x="773" y="367" type="curve" smooth="yes"/>
      <point x="773" y="433"/>
      <point x="755" y="523"/>
      <point x="702" y="595" type="curve" smooth="yes"/>
      <point x="687" y="615"/>
      <point x="670" y="630"/>
      <point x="650" y="646" type="curve" smooth="yes"/>
      <point x="634" y="659"/>
      <point x="576" y="717"/>
      <point x="443" y="717" type="curve" smooth="yes"/>
      <point x="120" y="717"/>
      <point x="39" y="440"/>
      <point x="39" y="300" type="curve" smooth="yes"/>
      <point x="39" y="160"/>
      <point x="118" y="107"/>
      <point x="118" y="88" type="curve" smooth="yes"/>
      <point x="118" y="74"/>
      <point x="39" y="69"/>
      <point x="39" y="-40" type="curve" smooth="yes"/>
    </contour>
    <contour>
      <point x="124" y="560"/>
      <point x="265" y="688"/>
      <point x="425" y="688" type="curve" smooth="yes"/>
      <point x="534" y="688"/>
      <point x="616" y="614"/>
      <point x="649" y="556" type="curve" smooth="yes"/>
      <point x="674" y="513"/>
      <point x="687" y="453"/>
      <point x="687" y="389" type="curve" smooth="yes"/>
      <point x="687" y="217"/>
      <point x="595" y="14"/>
      <point x="404" y="14" type="curve" smooth="yes"/>
      <point x="209" y="14"/>
      <point x="124" y="167"/>
      <point x="124" y="326" type="curve" smooth="yes"/>
    </contour>
  </outline>
</glyph>
<glyph name="V" format="1">
  <advance width="780"/>
  <unicode hex="0056"/>
  <outline>
    <contour>
      <point x="20" y="662"/>
      <point x="46" y="677"/>
      <point x="73" y="660" type="curve" smooth="yes"/>
      <point x="108" y="638"/>
      <point x="120" y="590"/>
      <point x="135" y="535" type="curve" smooth="yes"/>
      <point x="272" y="39" type="line" smooth="yes"/>
      <point x="283" y="-2"/>
      <point x="286" y="-21"/>
      <point x="301" y="-21" type="curve" smooth="yes"/>
      <point x="303" y="-21"/>
      <point x="308" y="-20"/>
      <point x="312" y="-16" type="curve" smooth="yes"/>
      <point x="347" y="21"/>
      <point x="445" y="198"/>
      <point x="516" y="319" type="curve" smooth="yes"/>
      <point x="594" y="451"/>
      <point x="663" y="624"/>
      <point x="709" y="662" type="curve" smooth="yes"/>
      <point x="739" y="687"/>
      <point x="760" y="671"/>
      <point x="760" y="693" type="curve" smooth="yes"/>
      <point x="760" y="701"/>
      <point x="746" y="704"/>
      <point x="726" y="704" type="curve" smooth="yes"/>
      <point x="687" y="704"/>
      <point x="691" y="702"/>
      <point x="675" y="702" type="curve" smooth="yes"/>
      <point x="642" y="702"/>
      <point x="579" y="707"/>
      <point x="565" y="707" type="curve" smooth="yes"/>
      <point x="547" y="707"/>
      <point x="545" y="702"/>
      <point x="545" y="693" type="curve" smooth="yes"/>
      <point x="545" y="665"/>
      <point x="624" y="685"/>
      <point x="624" y="638" type="curve" smooth="yes"/>
      <point x="624" y="594"/>
      <point x="356" y="107"/>
      <point x="346" y="107" type="curve" smooth="yes"/>
      <point x="329" y="107"/>
      <point x="196" y="599"/>
      <point x="196" y="622" type="curve" smooth="yes"/>
      <point x="196" y="696"/>
      <point x="250" y="665"/>
      <point x="250" y="692" type="curve" smooth="yes"/>
      <point x="250" y="700"/>
      <point x="241" y="705"/>
      <point x="214" y="705" type="curve" smooth="yes"/>
      <point x="193" y="705"/>
      <point x="156" y="701"/>
      <point x="136" y="701" type="curve" smooth="yes"/>
      <point x="108" y="701"/>
      <point x="78" y="705"/>
      <point x="56" y="705" type="curve" smooth="yes"/>
      <point x="31" y="705"/>
      <point x="20" y="701"/>
      <point x="20" y="690" type="curve" smooth="yes"/>
    </contour>
  </outline>
</glyph>
<glyph name="W" format="1">
  <advance width="1053"/>
  <unicode hex="0057"/>
  <outline>
    <contour>
      <point x="20" y="680"/>
      <point x="42" y="684"/>
      <point x="69" y="667" type="curve" smooth="yes"/>
      <point x="104" y="645"/>
      <point x="91" y="673"/>
      <point x="249" y="39" type="curve" smooth="yes"/>
      <point x="262" y="-14"/>
      <point x="266" y="-21"/>
      <point x="277" y="-21" type="curve" smooth="yes"/>
      <point x="283" y="-21"/>
      <point x="286" y="-17"/>
      <point x="289" y="-14" type="curve"/>
      <point x="308" y="9"/>
      <point x="466" y="283"/>
      <point x="470" y="283" type="curve" smooth="yes"/>
      <point x="473" y="283"/>
      <point x="475" y="275"/>
      <point x="478" y="263" type="curve" smooth="yes"/>
      <point x="537" y="39" type="line" smooth="yes"/>
      <point x="548" y="-2"/>
      <point x="546" y="-25"/>
      <point x="565" y="-25" type="curve" smooth="yes"/>
      <point x="577" y="-25"/>
      <point x="583" y="-20"/>
      <point x="586" y="-15" type="curve"/>
      <point x="629" y="46"/>
      <point x="709" y="198"/>
      <point x="780" y="319" type="curve" smooth="yes"/>
      <point x="858" y="451"/>
      <point x="927" y="626"/>
      <point x="973" y="664" type="curve" smooth="yes"/>
      <point x="1003" y="689"/>
      <point x="1033" y="672"/>
      <point x="1033" y="695" type="curve" smooth="yes"/>
      <point x="1033" y="703"/>
      <point x="1019" y="710"/>
      <point x="999" y="710" type="curve" smooth="yes"/>
      <point x="990" y="710"/>
      <point x="949" y="706"/>
      <point x="933" y="706" type="curve" smooth="yes"/>
      <point x="900" y="706"/>
      <point x="851" y="710"/>
      <point x="837" y="710" type="curve" smooth="yes"/>
      <point x="825" y="710"/>
      <point x="816" y="706"/>
      <point x="816" y="697" type="curve" smooth="yes"/>
      <point x="816" y="668"/>
      <point x="890" y="695"/>
      <point x="890" y="643" type="curve" smooth="yes"/>
      <point x="890" y="600"/>
      <point x="618" y="101"/>
      <point x="609" y="101" type="curve" smooth="yes"/>
      <point x="599" y="101"/>
      <point x="526" y="349"/>
      <point x="526" y="371" type="curve" smooth="yes"/>
      <point x="526" y="389"/>
      <point x="526" y="382"/>
      <point x="603" y="522" type="curve" smooth="yes"/>
      <point x="636" y="583"/>
      <point x="667" y="644"/>
      <point x="693" y="666" type="curve" smooth="yes"/>
      <point x="723" y="691"/>
      <point x="743" y="672"/>
      <point x="743" y="694" type="curve" smooth="yes"/>
      <point x="743" y="702"/>
      <point x="733" y="708"/>
      <point x="713" y="708" type="curve" smooth="yes"/>
      <point x="674" y="708"/>
      <point x="665" y="705"/>
      <point x="649" y="705" type="curve" smooth="yes"/>
      <point x="616" y="705"/>
      <point x="585" y="708"/>
      <point x="571" y="708" type="curve" smooth="yes"/>
      <point x="553" y="708"/>
      <point x="545" y="705"/>
      <point x="545" y="698" type="curve" smooth="yes"/>
      <point x="545" y="674"/>
      <point x="612" y="690"/>
      <point x="612" y="640" type="curve" smooth="yes"/>
      <point x="612" y="628"/>
      <point x="526" y="436"/>
      <point x="510" y="436" type="curve" smooth="yes"/>
      <point x="505" y="436"/>
      <point x="504" y="446"/>
      <point x="500" y="463" type="curve" smooth="yes"/>
      <point x="477" y="549"/>
      <point x="455" y="632"/>
      <point x="455" y="640" type="curve" smooth="yes"/>
      <point x="455" y="701"/>
      <point x="510" y="668"/>
      <point x="510" y="695" type="curve" smooth="yes"/>
      <point x="510" y="703"/>
      <point x="506" y="707"/>
      <point x="479" y="707" type="curve" smooth="yes"/>
      <point x="458" y="707"/>
      <point x="420" y="703"/>
      <point x="400" y="703" type="curve" smooth="yes"/>
      <point x="372" y="703"/>
      <point x="345" y="708"/>
      <point x="323" y="708" type="curve" smooth="yes"/>
      <point x="298" y="708"/>
      <point x="294" y="704"/>
      <point x="294" y="698" type="curve" smooth="yes"/>
      <point x="294" y="682"/>
      <point x="318" y="686"/>
      <point x="345" y="669" type="curve" smooth="yes"/>
      <point x="380" y="647"/>
      <point x="389" y="591"/>
      <point x="403" y="536" type="curve" smooth="yes"/>
      <point x="446" y="366" type="line" smooth="yes"/>
      <point x="450" y="350"/>
      <point x="451" y="353"/>
      <point x="451" y="333" type="curve" smooth="yes"/>
      <point x="451" y="311"/>
      <point x="321" y="103"/>
      <point x="317" y="103" type="curve" smooth="yes"/>
      <point x="300" y="103"/>
      <point x="177" y="605"/>
      <point x="177" y="628" type="curve" smooth="yes"/>
      <point x="177" y="650"/>
      <point x="179" y="663"/>
      <point x="187" y="671" type="curve" smooth="yes"/>
      <point x="205" y="689"/>
      <point x="239" y="678"/>
      <point x="239" y="695" type="curve" smooth="yes"/>
      <point x="239" y="700"/>
      <point x="238" y="707"/>
      <point x="211" y="707" type="curve" smooth="yes"/>
      <point x="190" y="707"/>
      <point x="152" y="703"/>
      <point x="132" y="703" type="curve" smooth="yes"/>
      <point x="86" y="703"/>
      <point x="54" y="710"/>
      <point x="40" y="710" type="curve" smooth="yes"/>
      <point x="31" y="710"/>
      <point x="20" y="708"/>
      <point x="20" y="700" type="curve" smooth="yes"/>
    </contour>
  </outline>
</glyph>
<glyph name="X" format="1">
  <advance width="737"/>
  <unicode hex="0058"/>
  <outline>
    <contour>
      <point x="20" y="-4"/>
      <point x="32" y="-7"/>
      <point x="48" y="-7" type="curve" smooth="yes"/>
      <point x="69" y="-7"/>
      <point x="110" y="3"/>
      <point x="128" y="3" type="curve" smooth="yes"/>
      <point x="137" y="3"/>
      <point x="219" y="-2"/>
      <point x="237" y="-2" type="curve" smooth="yes"/>
      <point x="256" y="-2"/>
      <point x="265" y="0"/>
      <point x="265" y="12" type="curve" smooth="yes"/>
      <point x="265" y="24"/>
      <point x="255" y="27"/>
      <point x="248" y="27" type="curve"/>
      <point x="196" y="31"/>
      <point x="188" y="51"/>
      <point x="188" y="60" type="curve" smooth="yes"/>
      <point x="188" y="83"/>
      <point x="210" y="115"/>
      <point x="240" y="156" type="curve" smooth="yes"/>
      <point x="333" y="280" type="line" smooth="yes"/>
      <point x="348" y="300"/>
      <point x="358" y="313"/>
      <point x="362" y="313" type="curve" smooth="yes"/>
      <point x="371" y="313"/>
      <point x="375" y="289"/>
      <point x="456" y="106" type="curve" smooth="yes"/>
      <point x="494" y="21"/>
      <point x="515" y="-7"/>
      <point x="629" y="-7" type="curve" smooth="yes"/>
      <point x="674" y="-7"/>
      <point x="727" y="11"/>
      <point x="727" y="37" type="curve" smooth="yes"/>
      <point x="727" y="41"/>
      <point x="725" y="48"/>
      <point x="717" y="48" type="curve" smooth="yes"/>
      <point x="697" y="48"/>
      <point x="693" y="33"/>
      <point x="661" y="33" type="curve" smooth="yes"/>
      <point x="594" y="33"/>
      <point x="565" y="78"/>
      <point x="537" y="127" type="curve" smooth="yes"/>
      <point x="485" y="218"/>
      <point x="416" y="376"/>
      <point x="416" y="390" type="curve" smooth="yes"/>
      <point x="416" y="395"/>
      <point x="417" y="390"/>
      <point x="510" y="510" type="curve" smooth="yes"/>
      <point x="636" y="672"/>
      <point x="646" y="676"/>
      <point x="693" y="684" type="curve" smooth="yes"/>
      <point x="703" y="686"/>
      <point x="707" y="692"/>
      <point x="707" y="698" type="curve" smooth="yes"/>
      <point x="707" y="710"/>
      <point x="696" y="716"/>
      <point x="676" y="716" type="curve" smooth="yes"/>
      <point x="656" y="716"/>
      <point x="629" y="713"/>
      <point x="593" y="713" type="curve" smooth="yes"/>
      <point x="558" y="713"/>
      <point x="555" y="716"/>
      <point x="512" y="716" type="curve" smooth="yes"/>
      <point x="502" y="716"/>
      <point x="495" y="711"/>
      <point x="495" y="701" type="curve" smooth="yes"/>
      <point x="495" y="679"/>
      <point x="554" y="696"/>
      <point x="554" y="657" type="curve" smooth="yes"/>
      <point x="554" y="637"/>
      <point x="532" y="603"/>
      <point x="482" y="537" type="curve" smooth="yes"/>
      <point x="417" y="450" type="line" smooth="yes"/>
      <point x="405" y="434"/>
      <point x="401" y="430"/>
      <point x="398" y="430" type="curve" smooth="yes"/>
      <point x="389" y="430"/>
      <point x="382" y="476"/>
      <point x="337" y="570" type="curve" smooth="yes"/>
      <point x="289" y="670"/>
      <point x="249" y="719"/>
      <point x="158" y="719" type="curve" smooth="yes"/>
      <point x="117" y="719"/>
      <point x="24" y="697"/>
      <point x="24" y="591" type="curve" smooth="yes"/>
      <point x="24" y="538"/>
      <point x="49" y="481"/>
      <point x="86" y="481" type="curve" smooth="yes"/>
      <point x="100" y="481"/>
      <point x="113" y="488"/>
      <point x="113" y="500" type="curve" smooth="yes"/>
      <point x="113" y="521"/>
      <point x="96" y="519"/>
      <point x="86" y="525" type="curve" smooth="yes"/>
      <point x="71" y="534"/>
      <point x="61" y="556"/>
      <point x="61" y="577" type="curve" smooth="yes"/>
      <point x="61" y="616"/>
      <point x="88" y="661"/>
      <point x="141" y="661" type="curve" smooth="yes"/>
      <point x="162" y="661"/>
      <point x="175" y="654"/>
      <point x="178" y="653" type="curve"/>
      <point x="212" y="645"/>
      <point x="260" y="569"/>
      <point x="296" y="477" type="curve" smooth="yes"/>
      <point x="321" y="414"/>
      <point x="345" y="361"/>
      <point x="345" y="358" type="curve" smooth="yes"/>
      <point x="345" y="353"/>
      <point x="345" y="354"/>
      <point x="273" y="263" type="curve" smooth="yes"/>
      <point x="214" y="189"/>
      <point x="167" y="126"/>
      <point x="125" y="84" type="curve" smooth="yes"/>
      <point x="49" y="8"/>
      <point x="20" y="40"/>
      <point x="20" y="10" type="curve" smooth="yes"/>
    </contour>
  </outline>
</glyph>
<glyph name="bracketleft" format="1">
  <advance width="266"/>
  <unicode hex="005B"/>
  <outline>
    <contour>
      <point x="55" y="-201"/>
      <point x="61" y="-204"/>
      <point x="82" y="-204" type="curve" smooth="yes"/>
      <point x="165" y="-204" type="line" smooth="yes"/>
      <point x="200" y="-204"/>
      <point x="217" y="-202"/>
      <point x="217" y="-174" type="curve" smooth="yes"/>
      <point x="217" y="-162"/>
      <point x="212" y="-158"/>
      <point x="197" y="-158" type="curve" smooth="yes"/>
      <point x="189" y="-158"/>
      <point x="130" y="-159"/>
      <point x="113" y="-159" type="curve" smooth="yes"/>
      <point x="106" y="-159"/>
      <point x="104" y="-151"/>
      <point x="104" y="-142" type="curve" smooth="yes"/>
      <point x="104" y="-101"/>
      <point x="162" y="391"/>
      <point x="180" y="559" type="curve" smooth="yes"/>
      <point x="197" y="722"/>
      <point x="193" y="722"/>
      <point x="203" y="722" type="curve" smooth="yes"/>
      <point x="218" y="722" type="line" smooth="yes"/>
      <point x="227" y="722"/>
      <point x="287" y="723"/>
      <point x="304" y="723" type="curve" smooth="yes"/>
      <point x="312" y="723"/>
      <point x="317" y="735"/>
      <point x="317" y="746" type="curve" smooth="yes"/>
      <point x="317" y="756"/>
      <point x="312" y="764"/>
      <point x="304" y="764" type="curve" smooth="yes"/>
      <point x="298" y="764"/>
      <point x="292" y="763"/>
      <point x="243" y="763" type="curve" smooth="yes"/>
      <point x="203" y="763" type="line" smooth="yes"/>
      <point x="169" y="763"/>
      <point x="156" y="761"/>
      <point x="154" y="738" type="curve" smooth="yes"/>
      <point x="152" y="721"/>
      <point x="149" y="671"/>
      <point x="138" y="570" type="curve" smooth="yes"/>
      <point x="117" y="372"/>
      <point x="81" y="77"/>
      <point x="64" y="-82" type="curve" smooth="yes"/>
      <point x="58" y="-143" type="line"/>
      <point x="57" y="-159"/>
      <point x="55" y="-170"/>
      <point x="55" y="-179" type="curve" smooth="yes"/>
    </contour>
  </outline>
</glyph>
<glyph name="bracketright" format="1">
  <advance width="266"/>
  <unicode hex="005D"/>
  <outline>
    <contour>
      <point x="-51" y="-196"/>
      <point x="-46" y="-204"/>
      <point x="-38" y="-204" type="curve" smooth="yes"/>
      <point x="23" y="-204" type="line"/>
      <point x="63" y="-204" type="line" smooth="yes"/>
      <point x="97" y="-204"/>
      <point x="110" y="-201"/>
      <point x="112" y="-178" type="curve" smooth="yes"/>
      <point x="114" y="-161"/>
      <point x="117" y="-111"/>
      <point x="128" y="-10" type="curve" smooth="yes"/>
      <point x="149" y="188"/>
      <point x="185" y="483"/>
      <point x="202" y="642" type="curve" smooth="yes"/>
      <point x="208" y="703" type="line"/>
      <point x="209" y="719"/>
      <point x="211" y="729"/>
      <point x="211" y="738" type="curve" smooth="yes"/>
      <point x="211" y="760"/>
      <point x="205" y="764"/>
      <point x="184" y="764" type="curve" smooth="yes"/>
      <point x="79" y="764"/>
      <point x="114" y="763"/>
      <point x="67" y="762" type="curve" smooth="yes"/>
      <point x="53" y="762"/>
      <point x="49" y="746"/>
      <point x="49" y="733" type="curve" smooth="yes"/>
      <point x="49" y="721"/>
      <point x="54" y="718"/>
      <point x="69" y="718" type="curve" smooth="yes"/>
      <point x="153" y="718" type="line" smooth="yes"/>
      <point x="160" y="718"/>
      <point x="162" y="711"/>
      <point x="162" y="702" type="curve" smooth="yes"/>
      <point x="162" y="661"/>
      <point x="104" y="169"/>
      <point x="86" y="1" type="curve" smooth="yes"/>
      <point x="69" y="-162"/>
      <point x="73" y="-163"/>
      <point x="63" y="-163" type="curve" smooth="yes"/>
      <point x="59" y="-163" type="line"/>
      <point x="-38" y="-163" type="line" smooth="yes"/>
      <point x="-46" y="-163"/>
      <point x="-51" y="-175"/>
      <point x="-51" y="-186" type="curve" smooth="yes"/>
    </contour>
  </outline>
</glyph>
<glyph name="grave" format="1">
  <advance width="439"/>
  <unicode hex="0060"/>
  <outline>
    <contour>
      <point x="131" y="608"/>
      <point x="234" y="482"/>
      <point x="248" y="482" type="curve" smooth="yes"/>
      <point x="253" y="482"/>
      <point x="258" y="486"/>
      <point x="258" y="492" type="curve" smooth="yes"/>
      <point x="258" y="504"/>
      <point x="237" y="521"/>
      <point x="199" y="642" type="curve" smooth="yes"/>
      <point x="194" y="658"/>
      <point x="186" y="660"/>
      <point x="183" y="660" type="curve" smooth="yes"/>
      <point x="178" y="660"/>
      <point x="131" y="653"/>
      <point x="131" y="634" type="curve" smooth="yes"/>
    </contour>
  </outline>
</glyph>
<glyph name="b" format="1">
  <advance width="471"/>
  <unicode hex="0062"/>
  <outline>
    <contour>
      <point x="44" y="13"/>
      <point x="107" y="-13"/>
      <point x="166" y="-13" type="curve" smooth="yes"/>
      <point x="321" y="-13"/>
      <point x="439" y="166"/>
      <point x="439" y="302" type="curve" smooth="yes"/>
      <point x="439" y="367"/>
      <point x="404" y="429"/>
      <point x="329" y="429" type="curve" smooth="yes"/>
      <point x="214" y="429"/>
      <point x="167" y="336"/>
      <point x="153" y="336" type="curve" smooth="yes"/>
      <point x="151" y="336"/>
      <point x="148" y="344"/>
      <point x="148" y="351" type="curve" smooth="yes"/>
      <point x="148" y="423"/>
      <point x="212" y="721"/>
      <point x="212" y="739" type="curve" smooth="yes"/>
      <point x="212" y="750"/>
      <point x="204" y="757"/>
      <point x="193" y="757" type="curve" smooth="yes"/>
      <point x="187" y="757"/>
      <point x="169" y="751"/>
      <point x="130" y="746" type="curve" smooth="yes"/>
      <point x="84" y="740"/>
      <point x="56" y="741"/>
      <point x="56" y="721" type="curve" smooth="yes"/>
      <point x="56" y="707"/>
      <point x="64" y="707"/>
      <point x="75" y="707" type="curve" smooth="yes"/>
      <point x="90" y="707"/>
      <point x="101" y="709"/>
      <point x="116" y="709" type="curve" smooth="yes"/>
      <point x="136" y="709"/>
      <point x="141" y="702"/>
      <point x="141" y="697" type="curve" smooth="yes"/>
      <point x="141" y="673"/>
      <point x="135" y="638"/>
      <point x="126" y="595" type="curve" smooth="yes"/>
      <point x="111" y="521"/>
      <point x="99" y="424"/>
      <point x="81" y="320" type="curve" smooth="yes"/>
      <point x="67" y="239"/>
      <point x="44" y="135"/>
      <point x="44" y="71" type="curve" smooth="yes"/>
    </contour>
    <contour>
      <point x="110" y="93"/>
      <point x="121" y="200"/>
      <point x="150" y="279" type="curve" smooth="yes"/>
      <point x="182" y="366"/>
      <point x="247" y="376"/>
      <point x="271" y="376" type="curve" smooth="yes"/>
      <point x="326" y="376"/>
      <point x="369" y="330"/>
      <point x="369" y="274" type="curve" smooth="yes"/>
      <point x="369" y="159"/>
      <point x="277" y="15"/>
      <point x="187" y="15" type="curve" smooth="yes"/>
      <point x="125" y="15"/>
      <point x="110" y="49"/>
      <point x="110" y="83" type="curve" smooth="yes"/>
    </contour>
  </outline>
</glyph>
<glyph name="c" format="1">
  <advance width="418"/>
  <unicode hex="0063"/>
  <outline>
    <contour>
      <point x="32" y="15"/>
      <point x="110" y="-12"/>
      <point x="183" y="-12" type="curve" smooth="yes"/>
      <point x="294" y="-12"/>
      <point x="365" y="73"/>
      <point x="365" y="87" type="curve" smooth="yes"/>
      <point x="365" y="93"/>
      <point x="360" y="100"/>
      <point x="352" y="100" type="curve" smooth="yes"/>
      <point x="334" y="100"/>
      <point x="300" y="46"/>
      <point x="218" y="46" type="curve" smooth="yes"/>
      <point x="140" y="46"/>
      <point x="100" y="97"/>
      <point x="100" y="199" type="curve" smooth="yes"/>
      <point x="100" y="290"/>
      <point x="154" y="351"/>
      <point x="166" y="362" type="curve" smooth="yes"/>
      <point x="193" y="386"/>
      <point x="222" y="397"/>
      <point x="231" y="397" type="curve" smooth="yes"/>
      <point x="301" y="397"/>
      <point x="310" y="325"/>
      <point x="353" y="325" type="curve" smooth="yes"/>
      <point x="371" y="325"/>
      <point x="386" y="344"/>
      <point x="386" y="364" type="curve" smooth="yes"/>
      <point x="386" y="421"/>
      <point x="296" y="436"/>
      <point x="286" y="436" type="curve" smooth="yes"/>
      <point x="144" y="436"/>
      <point x="32" y="286"/>
      <point x="32" y="149" type="curve" smooth="yes"/>
    </contour>
  </outline>
</glyph>
<glyph name="d" format="1">
  <advance width="495"/>
  <unicode hex="0064"/>
  <outline>
    <contour>
      <point x="17" y="50"/>
      <point x="52" y="-8"/>
      <point x="137" y="-8" type="curve" smooth="yes"/>
      <point x="236" y="-8"/>
      <point x="287" y="104"/>
      <point x="296" y="104" type="curve" smooth="yes"/>
      <point x="310" y="104"/>
      <point x="287" y="-8"/>
      <point x="357" y="-8" type="curve" smooth="yes"/>
      <point x="422" y="-8"/>
      <point x="485" y="93"/>
      <point x="485" y="114" type="curve" smooth="yes"/>
      <point x="485" y="118"/>
      <point x="482" y="123"/>
      <point x="474" y="123" type="curve" smooth="yes"/>
      <point x="458" y="123"/>
      <point x="435" y="61"/>
      <point x="391" y="61" type="curve" smooth="yes"/>
      <point x="368" y="61"/>
      <point x="365" y="82"/>
      <point x="365" y="104" type="curve" smooth="yes"/>
      <point x="365" y="134"/>
      <point x="375" y="197"/>
      <point x="386" y="273" type="curve" smooth="yes"/>
      <point x="442" y="682"/>
      <point x="452" y="714"/>
      <point x="452" y="740" type="curve" smooth="yes"/>
      <point x="452" y="749"/>
      <point x="445" y="757"/>
      <point x="436" y="757" type="curve" smooth="yes"/>
      <point x="409" y="757"/>
      <point x="415" y="755"/>
      <point x="359" y="741" type="curve" smooth="yes"/>
      <point x="331" y="734"/>
      <point x="296" y="738"/>
      <point x="296" y="721" type="curve" smooth="yes"/>
      <point x="296" y="714"/>
      <point x="302" y="710"/>
      <point x="312" y="710" type="curve" smooth="yes"/>
      <point x="313" y="710"/>
      <point x="336" y="711"/>
      <point x="347" y="711" type="curve" smooth="yes"/>
      <point x="362" y="711"/>
      <point x="376" y="701"/>
      <point x="376" y="686" type="curve" smooth="yes"/>
      <point x="376" y="679"/>
      <point x="343" y="416"/>
      <point x="340" y="416" type="curve" smooth="yes"/>
      <point x="312" y="416"/>
      <point x="292" y="429"/>
      <point x="266" y="429" type="curve" smooth="yes"/>
      <point x="147" y="429"/>
      <point x="17" y="280"/>
      <point x="17" y="125" type="curve" smooth="yes"/>
    </contour>
    <contour>
      <point x="87" y="258"/>
      <point x="169" y="408"/>
      <point x="261" y="408" type="curve" smooth="yes"/>
      <point x="288" y="408"/>
      <point x="328" y="395"/>
      <point x="328" y="368" type="curve" smooth="yes"/>
      <point x="328" y="328"/>
      <point x="313" y="152"/>
      <point x="273" y="102" type="curve" smooth="yes"/>
      <point x="247" y="69"/>
      <point x="208" y="50"/>
      <point x="172" y="50" type="curve" smooth="yes"/>
      <point x="111" y="50"/>
      <point x="87" y="95"/>
      <point x="87" y="153" type="curve" smooth="yes"/>
    </contour>
  </outline>
</glyph>
<glyph name="j" format="1">
  <advance width="242"/>
  <unicode hex="006A"/>
  <outline>
    <contour>
      <point x="-73" y="-139"/>
      <point x="-71" y="-145"/>
      <point x="-70" y="-172" type="curve" smooth="yes"/>
      <point x="-69" y="-196"/>
      <point x="-55" y="-200"/>
      <point x="-30" y="-200" type="curve" smooth="yes"/>
      <point x="14" y="-200"/>
      <point x="28" y="-181"/>
      <point x="46" y="-164" type="curve" smooth="yes"/>
      <point x="115" y="-99"/>
      <point x="104" y="-60"/>
      <point x="146" y="258" type="curve" smooth="yes"/>
      <point x="154" y="318"/>
      <point x="168" y="361"/>
      <point x="168" y="405" type="curve" smooth="yes"/>
      <point x="168" y="412"/>
      <point x="167" y="421"/>
      <point x="145" y="421" type="curve" smooth="yes"/>
      <point x="118" y="421"/>
      <point x="97" y="412"/>
      <point x="71" y="412" type="curve" smooth="yes"/>
      <point x="59" y="412"/>
      <point x="48" y="411"/>
      <point x="40" y="411" type="curve" smooth="yes"/>
      <point x="25" y="411"/>
      <point x="20" y="403"/>
      <point x="20" y="395" type="curve" smooth="yes"/>
      <point x="20" y="389"/>
      <point x="24" y="383"/>
      <point x="38" y="383" type="curve" smooth="yes"/>
      <point x="64" y="383" type="line" smooth="yes"/>
      <point x="76" y="383"/>
      <point x="96" y="379"/>
      <point x="96" y="359" type="curve" smooth="yes"/>
      <point x="96" y="350"/>
      <point x="73" y="188"/>
      <point x="56" y="54" type="curve" smooth="yes"/>
      <point x="34" y="-121"/>
      <point x="25" y="-157"/>
      <point x="4" y="-157" type="curve" smooth="yes"/>
      <point x="-23" y="-157"/>
      <point x="-38" y="-115"/>
      <point x="-60" y="-115" type="curve" smooth="yes"/>
      <point x="-70" y="-115"/>
      <point x="-73" y="-123"/>
      <point x="-73" y="-131" type="curve" smooth="yes"/>
    </contour>
    <contour>
      <point x="109" y="584"/>
      <point x="130" y="540"/>
      <point x="155" y="540" type="curve" smooth="yes"/>
      <point x="168" y="540"/>
      <point x="197" y="575"/>
      <point x="197" y="594" type="curve" smooth="yes"/>
      <point x="197" y="616"/>
      <point x="175" y="644"/>
      <point x="160" y="644" type="curve" smooth="yes"/>
      <point x="139" y="644"/>
      <point x="109" y="607"/>
      <point x="109" y="591" type="curve" smooth="yes"/>
    </contour>
  </outline>
</glyph>
<glyph name="k" format="1">
  <advance width="452"/>
  <unicode hex="006B"/>
  <outline>
    <contour>
      <point x="29" y="3"/>
      <point x="51" y="-1"/>
      <point x="62" y="-1" type="curve" smooth="yes"/>
      <point x="77" y="-1"/>
      <point x="93" y="3"/>
      <point x="96" y="29" type="curve" smooth="yes"/>
      <point x="114" y="160" type="line" smooth="yes"/>
      <point x="118" y="190"/>
      <point x="112" y="181"/>
      <point x="155" y="205" type="curve" smooth="yes"/>
      <point x="166" y="211"/>
      <point x="177" y="218"/>
      <point x="179" y="218" type="curve" smooth="yes"/>
      <point x="211" y="218"/>
      <point x="278" y="-3"/>
      <point x="335" y="-3" type="curve" smooth="yes"/>
      <point x="372" y="-3"/>
      <point x="432" y="68"/>
      <point x="432" y="105" type="curve" smooth="yes"/>
      <point x="432" y="114"/>
      <point x="430" y="123"/>
      <point x="423" y="123" type="curve" smooth="yes"/>
      <point x="410" y="123"/>
      <point x="388" y="67"/>
      <point x="353" y="67" type="curve" smooth="yes"/>
      <point x="336" y="67"/>
      <point x="312" y="116"/>
      <point x="285" y="164" type="curve" smooth="yes"/>
      <point x="261" y="207"/>
      <point x="235" y="249"/>
      <point x="235" y="254" type="curve" smooth="yes"/>
      <point x="235" y="260"/>
      <point x="389" y="337"/>
      <point x="389" y="396" type="curve" smooth="yes"/>
      <point x="389" y="416"/>
      <point x="377" y="433"/>
      <point x="357" y="433" type="curve" smooth="yes"/>
      <point x="310" y="433"/>
      <point x="312" y="384"/>
      <point x="290" y="347" type="curve" smooth="yes"/>
      <point x="257" y="293"/>
      <point x="145" y="215"/>
      <point x="135" y="215" type="curve" smooth="yes"/>
      <point x="126" y="215"/>
      <point x="126" y="220"/>
      <point x="126" y="234" type="curve" smooth="yes"/>
      <point x="126" y="255"/>
      <point x="134" y="285"/>
      <point x="135" y="294" type="curve" smooth="yes"/>
      <point x="144" y="363" type="line" smooth="yes"/>
      <point x="151" y="416"/>
      <point x="157" y="470"/>
      <point x="184" y="630" type="curve" smooth="yes"/>
      <point x="193" y="688" type="line" smooth="yes"/>
      <point x="196" y="706"/>
      <point x="200" y="730"/>
      <point x="200" y="734" type="curve" smooth="yes"/>
      <point x="200" y="745"/>
      <point x="189" y="749"/>
      <point x="182" y="749" type="curve" smooth="yes"/>
      <point x="156" y="749"/>
      <point x="142" y="737"/>
      <point x="60" y="734" type="curve"/>
      <point x="47" y="734"/>
      <point x="45" y="724"/>
      <point x="45" y="719" type="curve" smooth="yes"/>
      <point x="45" y="709"/>
      <point x="54" y="707"/>
      <point x="60" y="707" type="curve" smooth="yes"/>
      <point x="68" y="707"/>
      <point x="80" y="705"/>
      <point x="101" y="705" type="curve" smooth="yes"/>
      <point x="119" y="705"/>
      <point x="126" y="695"/>
      <point x="126" y="686" type="curve" smooth="yes"/>
      <point x="126" y="685"/>
      <point x="123" y="667"/>
      <point x="118" y="639" type="curve" smooth="yes"/>
      <point x="104" y="556"/>
      <point x="104" y="528"/>
      <point x="76" y="339" type="curve" smooth="yes"/>
      <point x="56" y="206" type="line" smooth="yes"/>
      <point x="48" y="151"/>
      <point x="29" y="50"/>
      <point x="29" y="23" type="curve" smooth="yes"/>
    </contour>
  </outline>
</glyph>
<glyph name="m" format="1">
  <advance width="762"/>
  <unicode hex="006D"/>
  <outline>
    <contour>
      <point x="24" y="309"/>
      <point x="25" y="298"/>
      <point x="36" y="298" type="curve" smooth="yes"/>
      <point x="58" y="298"/>
      <point x="66" y="356"/>
      <point x="97" y="356" type="curve" smooth="yes"/>
      <point x="107" y="356"/>
      <point x="123" y="346"/>
      <point x="123" y="307" type="curve" smooth="yes"/>
      <point x="123" y="230"/>
      <point x="78" y="71"/>
      <point x="78" y="29" type="curve" smooth="yes"/>
      <point x="78" y="0"/>
      <point x="95" y="-5"/>
      <point x="113" y="-5" type="curve" smooth="yes"/>
      <point x="131" y="-5"/>
      <point x="149" y="4"/>
      <point x="151" y="17" type="curve" smooth="yes"/>
      <point x="157" y="50"/>
      <point x="162" y="140"/>
      <point x="177" y="218" type="curve" smooth="yes"/>
      <point x="206" y="365"/>
      <point x="271" y="384"/>
      <point x="294" y="384" type="curve" smooth="yes"/>
      <point x="359" y="384"/>
      <point x="365" y="325"/>
      <point x="365" y="313" type="curve" smooth="yes"/>
      <point x="365" y="218"/>
      <point x="329" y="51"/>
      <point x="329" y="26" type="curve" smooth="yes"/>
      <point x="329" y="9"/>
      <point x="337" y="-6"/>
      <point x="357" y="-6" type="curve" smooth="yes"/>
      <point x="370" y="-6"/>
      <point x="396" y="-3"/>
      <point x="398" y="21" type="curve" smooth="yes"/>
      <point x="405" y="91"/>
      <point x="413" y="218"/>
      <point x="428" y="271" type="curve" smooth="yes"/>
      <point x="430" y="279"/>
      <point x="474" y="385"/>
      <point x="541" y="385" type="curve" smooth="yes"/>
      <point x="562" y="385"/>
      <point x="595" y="361"/>
      <point x="595" y="308" type="curve" smooth="yes"/>
      <point x="595" y="247"/>
      <point x="573" y="79"/>
      <point x="573" y="60" type="curve" smooth="yes"/>
      <point x="573" y="25"/>
      <point x="590" y="-3"/>
      <point x="610" y="-3" type="curve" smooth="yes"/>
      <point x="654" y="-3"/>
      <point x="742" y="62"/>
      <point x="742" y="101" type="curve" smooth="yes"/>
      <point x="742" y="107"/>
      <point x="739" y="113"/>
      <point x="732" y="113" type="curve" smooth="yes"/>
      <point x="717" y="113"/>
      <point x="714" y="100"/>
      <point x="702" y="85" type="curve"/>
      <point x="702" y="85"/>
      <point x="677" y="62"/>
      <point x="659" y="62" type="curve" smooth="yes"/>
      <point x="648" y="62"/>
      <point x="639" y="71"/>
      <point x="639" y="97" type="curve" smooth="yes"/>
      <point x="639" y="130"/>
      <point x="659" y="282"/>
      <point x="659" y="327" type="curve" smooth="yes"/>
      <point x="659" y="340"/>
      <point x="656" y="433"/>
      <point x="577" y="433" type="curve" smooth="yes"/>
      <point x="531" y="433"/>
      <point x="483" y="400"/>
      <point x="453" y="371" type="curve" smooth="yes"/>
      <point x="429" y="349"/>
      <point x="423" y="329"/>
      <point x="416" y="329" type="curve" smooth="yes"/>
      <point x="415" y="329"/>
      <point x="414" y="333"/>
      <point x="414" y="337" type="curve" smooth="yes"/>
      <point x="414" y="358" type="line" smooth="yes"/>
      <point x="414" y="389"/>
      <point x="404" y="432"/>
      <point x="355" y="432" type="curve" smooth="yes"/>
      <point x="341" y="432"/>
      <point x="322" y="430"/>
      <point x="297" y="421" type="curve" smooth="yes"/>
      <point x="204" y="388"/>
      <point x="181" y="330"/>
      <point x="174" y="330" type="curve" smooth="yes"/>
      <point x="161" y="330"/>
      <point x="178" y="433"/>
      <point x="120" y="433" type="curve" smooth="yes"/>
      <point x="82" y="433"/>
      <point x="24" y="352"/>
      <point x="24" y="322" type="curve" smooth="yes"/>
    </contour>
  </outline>
</glyph>
<glyph name="p" format="1">
  <advance width="488"/>
  <unicode hex="0070"/>
  <outline>
    <contour>
      <point x="3" y="-192"/>
      <point x="13" y="-196"/>
      <point x="20" y="-196" type="curve" smooth="yes"/>
      <point x="29" y="-196" type="line" smooth="yes"/>
      <point x="41" y="-196"/>
      <point x="61" y="-195"/>
      <point x="83" y="-195" type="curve" smooth="yes"/>
      <point x="111" y="-195"/>
      <point x="149" y="-196"/>
      <point x="183" y="-196" type="curve" smooth="yes"/>
      <point x="191" y="-196"/>
      <point x="197" y="-192"/>
      <point x="197" y="-183" type="curve" smooth="yes"/>
      <point x="197" y="-160"/>
      <point x="114" y="-179"/>
      <point x="114" y="-129" type="curve" smooth="yes"/>
      <point x="114" y="-119"/>
      <point x="120" y="-86"/>
      <point x="124" y="-56" type="curve" smooth="yes"/>
      <point x="132" y="3"/>
      <point x="129" y="4"/>
      <point x="144" y="4" type="curve" smooth="yes"/>
      <point x="158" y="4"/>
      <point x="183" y="0"/>
      <point x="198" y="0" type="curve" smooth="yes"/>
      <point x="247" y="0"/>
      <point x="288" y="12"/>
      <point x="330" y="42" type="curve" smooth="yes"/>
      <point x="384" y="81"/>
      <point x="395" y="107"/>
      <point x="417" y="145" type="curve" smooth="yes"/>
      <point x="447" y="196"/>
      <point x="456" y="232"/>
      <point x="456" y="294" type="curve" smooth="yes"/>
      <point x="456" y="400"/>
      <point x="371" y="428"/>
      <point x="279" y="428" type="curve" smooth="yes"/>
      <point x="225" y="428"/>
      <point x="203" y="423"/>
      <point x="194" y="423" type="curve" smooth="yes"/>
      <point x="190" y="423"/>
      <point x="189" y="425"/>
      <point x="189" y="428" type="curve" smooth="yes"/>
      <point x="189" y="432" type="line" smooth="yes"/>
      <point x="189" y="460"/>
      <point x="216" y="521"/>
      <point x="216" y="551" type="curve" smooth="yes"/>
      <point x="216" y="561"/>
      <point x="212" y="568"/>
      <point x="202" y="568" type="curve" smooth="yes"/>
      <point x="191" y="568"/>
      <point x="181" y="565"/>
      <point x="173" y="561" type="curve" smooth="yes"/>
      <point x="142" y="545"/>
      <point x="147" y="525"/>
      <point x="133" y="450" type="curve" smooth="yes"/>
      <point x="124" y="399"/>
      <point x="136" y="421"/>
      <point x="56" y="388" type="curve"/>
      <point x="50" y="385"/>
      <point x="49" y="380"/>
      <point x="49" y="375" type="curve" smooth="yes"/>
      <point x="49" y="371" type="line" smooth="yes"/>
      <point x="49" y="365"/>
      <point x="52" y="359"/>
      <point x="62" y="359" type="curve" smooth="yes"/>
      <point x="74" y="359"/>
      <point x="102" y="377"/>
      <point x="113" y="377" type="curve" smooth="yes"/>
      <point x="117" y="377"/>
      <point x="118" y="375"/>
      <point x="118" y="372" type="curve" smooth="yes"/>
      <point x="118" y="369"/>
      <point x="114" y="372"/>
      <point x="53" y="-103" type="curve" smooth="yes"/>
      <point x="50" y="-127"/>
      <point x="49" y="-136"/>
      <point x="47" y="-142" type="curve" smooth="yes"/>
      <point x="40" y="-163"/>
      <point x="3" y="-157"/>
      <point x="3" y="-183" type="curve" smooth="yes"/>
    </contour>
    <contour>
      <point x="141" y="80"/>
      <point x="155" y="167"/>
      <point x="161" y="212" type="curve" smooth="yes"/>
      <point x="174" y="323" type="line" smooth="yes"/>
      <point x="180" y="375"/>
      <point x="184" y="400"/>
      <point x="191" y="400" type="curve" smooth="yes"/>
      <point x="197" y="400"/>
      <point x="199" y="403"/>
      <point x="215" y="403" type="curve" smooth="yes"/>
      <point x="251" y="403"/>
      <point x="383" y="394"/>
      <point x="383" y="257" type="curve" smooth="yes"/>
      <point x="383" y="167"/>
      <point x="298" y="27"/>
      <point x="198" y="27" type="curve" smooth="yes"/>
      <point x="152" y="27"/>
      <point x="141" y="45"/>
      <point x="141" y="51" type="curve" smooth="yes"/>
    </contour>
  </outline>
</glyph>
<glyph name="q" format="1">
  <advance width="507"/>
  <unicode hex="0071"/>
  <outline>
    <contour>
      <point x="22" y="27"/>
      <point x="76" y="-10"/>
      <point x="116" y="-10" type="curve" smooth="yes"/>
      <point x="281" y="-10"/>
      <point x="320" y="122"/>
      <point x="333" y="122" type="curve" smooth="yes"/>
      <point x="334" y="122"/>
      <point x="335" y="119"/>
      <point x="335" y="116" type="curve" smooth="yes"/>
      <point x="335" y="103"/>
      <point x="316" y="-6"/>
      <point x="303" y="-107" type="curve" smooth="yes"/>
      <point x="293" y="-192"/>
      <point x="217" y="-160"/>
      <point x="217" y="-185" type="curve" smooth="yes"/>
      <point x="217" y="-191"/>
      <point x="222" y="-200"/>
      <point x="248" y="-200" type="curve" smooth="yes"/>
      <point x="272" y="-200"/>
      <point x="273" y="-195"/>
      <point x="321" y="-195" type="curve" smooth="yes"/>
      <point x="341" y="-195"/>
      <point x="369" y="-199"/>
      <point x="409" y="-199" type="curve" smooth="yes"/>
      <point x="420" y="-199"/>
      <point x="433" y="-198"/>
      <point x="433" y="-189" type="curve" smooth="yes"/>
      <point x="433" y="-155"/>
      <point x="360" y="-185"/>
      <point x="360" y="-145" type="curve" smooth="yes"/>
      <point x="360" y="-112"/>
      <point x="367" y="-78"/>
      <point x="406" y="189" type="curve" smooth="yes"/>
      <point x="425" y="314"/>
      <point x="417" y="273"/>
      <point x="423" y="324" type="curve" smooth="yes"/>
      <point x="434" y="412"/>
      <point x="458" y="454"/>
      <point x="458" y="475" type="curve" smooth="yes"/>
      <point x="458" y="480"/>
      <point x="454" y="487"/>
      <point x="446" y="487" type="curve" smooth="yes"/>
      <point x="425" y="487"/>
      <point x="407" y="409"/>
      <point x="384" y="409" type="curve" smooth="yes"/>
      <point x="370" y="409"/>
      <point x="366" y="427"/>
      <point x="309" y="427" type="curve" smooth="yes"/>
      <point x="260" y="427"/>
      <point x="194" y="409"/>
      <point x="135" y="345" type="curve" smooth="yes"/>
      <point x="82" y="286"/>
      <point x="22" y="190"/>
      <point x="22" y="116" type="curve" smooth="yes"/>
    </contour>
    <contour>
      <point x="90" y="220"/>
      <point x="184" y="400"/>
      <point x="294" y="400" type="curve" smooth="yes"/>
      <point x="339" y="400"/>
      <point x="368" y="372"/>
      <point x="368" y="346" type="curve" smooth="yes"/>
      <point x="368" y="332"/>
      <point x="358" y="244"/>
      <point x="346" y="203" type="curve" smooth="yes"/>
      <point x="317" y="103"/>
      <point x="238" y="35"/>
      <point x="176" y="35" type="curve" smooth="yes"/>
      <point x="124" y="35"/>
      <point x="90" y="80"/>
      <point x="90" y="129" type="curve" smooth="yes"/>
    </contour>
  </outline>
</glyph>
<glyph name="r" format="1">
  <advance width="352"/>
  <unicode hex="0072"/>
  <outline>
    <contour>
      <point x="15" y="282"/>
      <point x="23" y="279"/>
      <point x="27" y="279" type="curve" smooth="yes"/>
      <point x="32" y="279"/>
      <point x="35" y="282"/>
      <point x="38" y="285" type="curve"/>
      <point x="44" y="292"/>
      <point x="52" y="352"/>
      <point x="93" y="352" type="curve" smooth="yes"/>
      <point x="111" y="352"/>
      <point x="127" y="334"/>
      <point x="127" y="284" type="curve" smooth="yes"/>
      <point x="127" y="209"/>
      <point x="84" y="62"/>
      <point x="84" y="22" type="curve" smooth="yes"/>
      <point x="84" y="-2"/>
      <point x="104" y="-4"/>
      <point x="114" y="-4" type="curve" smooth="yes"/>
      <point x="119" y="-4" type="line" smooth="yes"/>
      <point x="155" y="-4"/>
      <point x="153" y="-4"/>
      <point x="175" y="166" type="curve" smooth="yes"/>
      <point x="180" y="199" type="line" smooth="yes"/>
      <point x="185" y="241"/>
      <point x="210" y="372"/>
      <point x="255" y="372" type="curve" smooth="yes"/>
      <point x="291" y="372"/>
      <point x="287" y="330"/>
      <point x="309" y="330" type="curve" smooth="yes"/>
      <point x="327" y="330"/>
      <point x="329" y="361"/>
      <point x="331" y="368" type="curve" smooth="yes"/>
      <point x="334" y="379"/>
      <point x="342" y="392"/>
      <point x="342" y="405" type="curve" smooth="yes"/>
      <point x="342" y="419"/>
      <point x="331" y="436"/>
      <point x="305" y="436" type="curve" smooth="yes"/>
      <point x="231" y="436"/>
      <point x="181" y="333"/>
      <point x="174" y="333" type="curve" smooth="yes"/>
      <point x="172" y="333"/>
      <point x="171" y="334"/>
      <point x="146" y="399" type="curve" smooth="yes"/>
      <point x="140" y="415"/>
      <point x="130" y="434"/>
      <point x="109" y="434" type="curve" smooth="yes"/>
      <point x="100" y="434"/>
      <point x="15" y="410"/>
      <point x="15" y="296" type="curve" smooth="yes"/>
    </contour>
  </outline>
</glyph>
<glyph name="t" format="1">
  <advance width="299"/>
  <unicode hex="0074"/>
  <outline>
    <contour>
      <point x="29" y="362"/>
      <point x="88" y="384"/>
      <point x="88" y="363" type="curve" smooth="yes"/>
      <point x="88" y="336"/>
      <point x="46" y="174"/>
      <point x="46" y="82" type="curve" smooth="yes"/>
      <point x="46" y="4"/>
      <point x="83" y="-12"/>
      <point x="110" y="-12" type="curve" smooth="yes"/>
      <point x="172" y="-12"/>
      <point x="257" y="56"/>
      <point x="257" y="82" type="curve" smooth="yes"/>
      <point x="257" y="96"/>
      <point x="249" y="96"/>
      <point x="246" y="96" type="curve" smooth="yes"/>
      <point x="230" y="96"/>
      <point x="207" y="52"/>
      <point x="152" y="52" type="curve" smooth="yes"/>
      <point x="148" y="52"/>
      <point x="111" y="54"/>
      <point x="111" y="107" type="curve" smooth="yes"/>
      <point x="111" y="123"/>
      <point x="134" y="253"/>
      <point x="143" y="315" type="curve" smooth="yes"/>
      <point x="149" y="356"/>
      <point x="146" y="374"/>
      <point x="175" y="374" type="curve" smooth="yes"/>
      <point x="197" y="374"/>
      <point x="240" y="369"/>
      <point x="256" y="369" type="curve" smooth="yes"/>
      <point x="274" y="369"/>
      <point x="280" y="375"/>
      <point x="280" y="398" type="curve" smooth="yes"/>
      <point x="280" y="410"/>
      <point x="275" y="417"/>
      <point x="254" y="417" type="curve" smooth="yes"/>
      <point x="243" y="417"/>
      <point x="235" y="416"/>
      <point x="196" y="416" type="curve" smooth="yes"/>
      <point x="163" y="416"/>
      <point x="161" y="417"/>
      <point x="161" y="423" type="curve" smooth="yes"/>
      <point x="161" y="438"/>
      <point x="179" y="485"/>
      <point x="179" y="498" type="curve" smooth="yes"/>
      <point x="179" y="507"/>
      <point x="174" y="510"/>
      <point x="169" y="510" type="curve" smooth="yes"/>
      <point x="153" y="510"/>
      <point x="151" y="497"/>
      <point x="111" y="455" type="curve" smooth="yes"/>
      <point x="67" y="409"/>
      <point x="29" y="410"/>
      <point x="29" y="390" type="curve" smooth="yes"/>
    </contour>
  </outline>
</glyph>
<glyph name="v" format="1">
  <advance width="427"/>
  <unicode hex="0076"/>
  <outline>
    <contour>
      <point x="10" y="124"/>
      <point x="98" y="162"/>
      <point x="98" y="142" type="curve" smooth="yes"/>
      <point x="98" y="72"/>
      <point x="105" y="-13"/>
      <point x="163" y="-13" type="curve" smooth="yes"/>
      <point x="177" y="-13"/>
      <point x="215" y="8"/>
      <point x="238" y="23" type="curve" smooth="yes"/>
      <point x="290" y="57"/>
      <point x="332" y="123"/>
      <point x="353" y="164" type="curve" smooth="yes"/>
      <point x="383" y="221"/>
      <point x="407" y="334"/>
      <point x="407" y="377" type="curve" smooth="yes"/>
      <point x="407" y="423"/>
      <point x="388" y="431"/>
      <point x="375" y="431" type="curve" smooth="yes"/>
      <point x="367" y="431"/>
      <point x="339" y="420"/>
      <point x="339" y="397" type="curve" smooth="yes"/>
      <point x="339" y="374"/>
      <point x="360" y="356"/>
      <point x="360" y="322" type="curve" smooth="yes"/>
      <point x="360" y="207"/>
      <point x="280" y="54"/>
      <point x="208" y="54" type="curve" smooth="yes"/>
      <point x="180" y="54"/>
      <point x="158" y="84"/>
      <point x="158" y="115" type="curve" smooth="yes"/>
      <point x="158" y="221"/>
      <point x="178" y="289"/>
      <point x="178" y="349" type="curve" smooth="yes"/>
      <point x="178" y="388"/>
      <point x="165" y="430"/>
      <point x="133" y="430" type="curve" smooth="yes"/>
      <point x="92" y="430"/>
      <point x="10" y="357"/>
      <point x="10" y="253" type="curve" smooth="yes"/>
    </contour>
    <contour>
      <point x="36" y="289"/>
      <point x="84" y="351"/>
      <point x="100" y="351" type="curve" smooth="yes"/>
      <point x="112" y="351"/>
      <point x="114" y="339"/>
      <point x="114" y="333" type="curve" smooth="yes"/>
      <point x="114" y="312"/>
      <point x="100" y="208"/>
      <point x="100" y="208" type="curve"/>
      <point x="97" y="187"/>
      <point x="98" y="176"/>
      <point x="81" y="176" type="curve" smooth="yes"/>
      <point x="77" y="176"/>
      <point x="36" y="183"/>
      <point x="36" y="242" type="curve" smooth="yes"/>
    </contour>
  </outline>
</glyph>
<glyph name="w" format="1">
  <advance width="675"/>
  <unicode hex="0077"/>
  <outline>
    <contour>
      <point x="10" y="137"/>
      <point x="100" y="161"/>
      <point x="100" y="144" type="curve" smooth="yes"/>
      <point x="100" y="74"/>
      <point x="110" y="-11"/>
      <point x="161" y="-11" type="curve" smooth="yes"/>
      <point x="257" y="-11"/>
      <point x="339" y="182"/>
      <point x="344" y="182" type="curve" smooth="yes"/>
      <point x="345" y="182"/>
      <point x="347" y="177"/>
      <point x="347" y="163" type="curve" smooth="yes"/>
      <point x="349" y="24"/>
      <point x="377" y="-10"/>
      <point x="406" y="-10" type="curve" smooth="yes"/>
      <point x="446" y="-10"/>
      <point x="534" y="40"/>
      <point x="600" y="166" type="curve" smooth="yes"/>
      <point x="630" y="223"/>
      <point x="655" y="332"/>
      <point x="655" y="384" type="curve" smooth="yes"/>
      <point x="655" y="423"/>
      <point x="639" y="429"/>
      <point x="626" y="429" type="curve" smooth="yes"/>
      <point x="610" y="429"/>
      <point x="588" y="412"/>
      <point x="588" y="396" type="curve" smooth="yes"/>
      <point x="588" y="364"/>
      <point x="607" y="376"/>
      <point x="607" y="287" type="curve" smooth="yes"/>
      <point x="607" y="229"/>
      <point x="531" y="53"/>
      <point x="455" y="53" type="curve" smooth="yes"/>
      <point x="429" y="53"/>
      <point x="420" y="73"/>
      <point x="413" y="103" type="curve" smooth="yes"/>
      <point x="406" y="137"/>
      <point x="403" y="168"/>
      <point x="403" y="198" type="curve" smooth="yes"/>
      <point x="403" y="290"/>
      <point x="430" y="361"/>
      <point x="430" y="402" type="curve" smooth="yes"/>
      <point x="430" y="417"/>
      <point x="424" y="427"/>
      <point x="401" y="427" type="curve" smooth="yes"/>
      <point x="373" y="427"/>
      <point x="372" y="415"/>
      <point x="367" y="381" type="curve" smooth="yes"/>
      <point x="354" y="289"/>
      <point x="338" y="232"/>
      <point x="324" y="198" type="curve" smooth="yes"/>
      <point x="303" y="149"/>
      <point x="250" y="56"/>
      <point x="200" y="56" type="curve" smooth="yes"/>
      <point x="181" y="56"/>
      <point x="161" y="86"/>
      <point x="161" y="117" type="curve" smooth="yes"/>
      <point x="161" y="217"/>
      <point x="173" y="268"/>
      <point x="173" y="350" type="curve" smooth="yes"/>
      <point x="173" y="380"/>
      <point x="163" y="429"/>
      <point x="131" y="429" type="curve" smooth="yes"/>
      <point x="90" y="429"/>
      <point x="10" y="348"/>
      <point x="10" y="248" type="curve" smooth="yes"/>
    </contour>
    <contour>
      <point x="43" y="293"/>
      <point x="83" y="342"/>
      <point x="99" y="342" type="curve" smooth="yes"/>
      <point x="110" y="342"/>
      <point x="114" y="328"/>
      <point x="114" y="320" type="curve" smooth="yes"/>
      <point x="114" y="306"/>
      <point x="112" y="268"/>
      <point x="109" y="242" type="curve" smooth="yes"/>
      <point x="104" y="194"/>
      <point x="102" y="182"/>
      <point x="86" y="182" type="curve" smooth="yes"/>
      <point x="73" y="182"/>
      <point x="57" y="187"/>
      <point x="47" y="209" type="curve"/>
      <point x="44" y="217"/>
      <point x="43" y="229"/>
      <point x="43" y="243" type="curve" smooth="yes"/>
    </contour>
  </outline>
</glyph>
<glyph name="x" format="1">
  <advance width="475"/>
  <unicode hex="0078"/>
  <outline>
    <contour>
      <point x="20" y="2"/>
      <point x="35" y="-15"/>
      <point x="56" y="-15" type="curve" smooth="yes"/>
      <point x="152" y="-15"/>
      <point x="216" y="166"/>
      <point x="224" y="166" type="curve" smooth="yes"/>
      <point x="232" y="166"/>
      <point x="247" y="113"/>
      <point x="266" y="65" type="curve" smooth="yes"/>
      <point x="275" y="42"/>
      <point x="277" y="-12"/>
      <point x="375" y="-12" type="curve" smooth="yes"/>
      <point x="382" y="-12"/>
      <point x="441" y="-6"/>
      <point x="441" y="20" type="curve" smooth="yes"/>
      <point x="441" y="27"/>
      <point x="435" y="32"/>
      <point x="427" y="32" type="curve" smooth="yes"/>
      <point x="418" y="32"/>
      <point x="405" y="30"/>
      <point x="393" y="30" type="curve" smooth="yes"/>
      <point x="376" y="30"/>
      <point x="356" y="44"/>
      <point x="343" y="70" type="curve" smooth="yes"/>
      <point x="314" y="128"/>
      <point x="265" y="238"/>
      <point x="265" y="247" type="curve" smooth="yes"/>
      <point x="265" y="256"/>
      <point x="335" y="367"/>
      <point x="368" y="367" type="curve" smooth="yes"/>
      <point x="380" y="367"/>
      <point x="392" y="360"/>
      <point x="411" y="360" type="curve" smooth="yes"/>
      <point x="433" y="360"/>
      <point x="445" y="378"/>
      <point x="445" y="397" type="curve" smooth="yes"/>
      <point x="445" y="417"/>
      <point x="429" y="438"/>
      <point x="408" y="438" type="curve" smooth="yes"/>
      <point x="321" y="438"/>
      <point x="267" y="278"/>
      <point x="258" y="278" type="curve" smooth="yes"/>
      <point x="246" y="278"/>
      <point x="214" y="436"/>
      <point x="147" y="436" type="curve" smooth="yes"/>
      <point x="133" y="436"/>
      <point x="107" y="422"/>
      <point x="93" y="402" type="curve" smooth="yes"/>
      <point x="77" y="380"/>
      <point x="68" y="343"/>
      <point x="68" y="330" type="curve" smooth="yes"/>
      <point x="68" y="302"/>
      <point x="72" y="295"/>
      <point x="82" y="295" type="curve" smooth="yes"/>
      <point x="104" y="295"/>
      <point x="92" y="355"/>
      <point x="140" y="355" type="curve" smooth="yes"/>
      <point x="147" y="355"/>
      <point x="155" y="352"/>
      <point x="163" y="339" type="curve" smooth="yes"/>
      <point x="182" y="310"/>
      <point x="215" y="210"/>
      <point x="215" y="208" type="curve"/>
      <point x="215" y="208"/>
      <point x="135" y="54"/>
      <point x="98" y="54" type="curve" smooth="yes"/>
      <point x="82" y="54"/>
      <point x="75" y="64"/>
      <point x="55" y="64" type="curve" smooth="yes"/>
      <point x="35" y="64"/>
      <point x="20" y="56"/>
      <point x="20" y="23" type="curve" smooth="yes"/>
    </contour>
  </outline>
</glyph>
<glyph name="y" format="1">
  <advance width="407"/>
  <unicode hex="0079"/>
  <outline>
    <contour>
      <point x="7" y="-171"/>
      <point x="47" y="-184"/>
      <point x="90" y="-184" type="curve" smooth="yes"/>
      <point x="184" y="-184"/>
      <point x="248" y="-70"/>
      <point x="295" y="49" type="curve" smooth="yes"/>
      <point x="354" y="198"/>
      <point x="378" y="336"/>
      <point x="378" y="381" type="curve" smooth="yes"/>
      <point x="378" y="412"/>
      <point x="361" y="434"/>
      <point x="339" y="434" type="curve" smooth="yes"/>
      <point x="315" y="434"/>
      <point x="305" y="415"/>
      <point x="305" y="397" type="curve" smooth="yes"/>
      <point x="305" y="370"/>
      <point x="330" y="350"/>
      <point x="330" y="321" type="curve" smooth="yes"/>
      <point x="330" y="254"/>
      <point x="308" y="147"/>
      <point x="294" y="147" type="curve" smooth="yes"/>
      <point x="283" y="147"/>
      <point x="188" y="431"/>
      <point x="91" y="431" type="curve" smooth="yes"/>
      <point x="30" y="431"/>
      <point x="10" y="344"/>
      <point x="10" y="302" type="curve" smooth="yes"/>
      <point x="10" y="285"/>
      <point x="14" y="280"/>
      <point x="20" y="280" type="curve" smooth="yes"/>
      <point x="50" y="280"/>
      <point x="29" y="355"/>
      <point x="87" y="355" type="curve" smooth="yes"/>
      <point x="140" y="355"/>
      <point x="250" y="97"/>
      <point x="250" y="41" type="curve" smooth="yes"/>
      <point x="250" y="3"/>
      <point x="184" y="-125"/>
      <point x="126" y="-125" type="curve" smooth="yes"/>
      <point x="80" y="-125"/>
      <point x="79" y="-92"/>
      <point x="39" y="-92" type="curve" smooth="yes"/>
      <point x="22" y="-92"/>
      <point x="7" y="-108"/>
      <point x="7" y="-125" type="curve" smooth="yes"/>
    </contour>
  </outline>
</glyph>
<glyph name="braceleft" format="1">
  <advance width="266"/>
  <unicode hex="007B"/>
  <outline>
    <contour>
      <point x="52" y="-181"/>
      <point x="56" y="-186"/>
      <point x="62" y="-186" type="curve" smooth="yes"/>
      <point x="81" y="-186"/>
      <point x="84" y="-172"/>
      <point x="133" y="-172" type="curve" smooth="yes"/>
      <point x="170" y="-172"/>
      <point x="195" y="-181"/>
      <point x="200" y="-181" type="curve" smooth="yes"/>
      <point x="207" y="-181"/>
      <point x="208" y="-174"/>
      <point x="208" y="-169" type="curve" smooth="yes"/>
      <point x="208" y="-150"/>
      <point x="186" y="-135"/>
      <point x="180" y="-131" type="curve"/>
      <point x="152" y="-114"/>
      <point x="114" y="-116"/>
      <point x="114" y="-106" type="curve" smooth="yes"/>
      <point x="114" y="-104"/>
      <point x="146" y="239"/>
      <point x="196" y="676" type="curve"/>
      <point x="196" y="680"/>
      <point x="200" y="685"/>
      <point x="204" y="685" type="curve" smooth="yes"/>
      <point x="233" y="685"/>
      <point x="303" y="707"/>
      <point x="303" y="741" type="curve" smooth="yes"/>
      <point x="303" y="748"/>
      <point x="293" y="750"/>
      <point x="287" y="750" type="curve" smooth="yes"/>
      <point x="271" y="750"/>
      <point x="258" y="744"/>
      <point x="224" y="744" type="curve" smooth="yes"/>
      <point x="201" y="744"/>
      <point x="186" y="752"/>
      <point x="167" y="752" type="curve" smooth="yes"/>
      <point x="160" y="752"/>
      <point x="149" y="749"/>
      <point x="148" y="734" type="curve"/>
      <point x="133" y="589"/>
      <point x="122" y="450"/>
      <point x="108" y="321" type="curve" smooth="yes"/>
      <point x="105" y="287"/>
      <point x="68" y="299"/>
      <point x="68" y="263" type="curve" smooth="yes"/>
      <point x="68" y="239"/>
      <point x="95" y="240"/>
      <point x="95" y="208" type="curve" smooth="yes"/>
      <point x="95" y="192"/>
      <point x="52" y="-161"/>
      <point x="52" y="-175" type="curve" smooth="yes"/>
    </contour>
  </outline>
</glyph>
<glyph name="bar" format="1">
  <advance width="209"/>
  <unicode hex="007C"/>
  <outline>
    <contour>
      <point x="78" y="-148" type="line" smooth="yes"/>
      <point x="78" y="-203"/>
      <point x="81" y="-209"/>
      <point x="111" y="-209" type="curve" smooth="yes"/>
      <point x="127" y="-209"/>
      <point x="128" y="-190"/>
      <point x="128" y="-171" type="curve" smooth="yes"/>
      <point x="128" y="-163" type="line" smooth="yes"/>
      <point x="128" y="-152"/>
      <point x="127" y="-142"/>
      <point x="127" y="-137" type="curve"/>
      <point x="126" y="-87"/>
      <point x="126" y="-32"/>
      <point x="126" y="10" type="curve" smooth="yes"/>
      <point x="126" y="160"/>
      <point x="131" y="402"/>
      <point x="131" y="559" type="curve" smooth="yes"/>
      <point x="131" y="652"/>
      <point x="129" y="698"/>
      <point x="129" y="714" type="curve" smooth="yes"/>
      <point x="129" y="723"/>
      <point x="130" y="731"/>
      <point x="130" y="737" type="curve" smooth="yes"/>
      <point x="130" y="754"/>
      <point x="127" y="762"/>
      <point x="108" y="762" type="curve" smooth="yes"/>
      <point x="89" y="762"/>
      <point x="83" y="755"/>
      <point x="83" y="738" type="curve" smooth="yes"/>
      <point x="83" y="721"/>
      <point x="84" y="671"/>
      <point x="84" y="570" type="curve" smooth="yes"/>
      <point x="84" y="372"/>
      <point x="78" y="72"/>
      <point x="78" y="-87" type="curve" smooth="yes"/>
    </contour>
  </outline>
</glyph>
<glyph name="braceright" format="1">
  <advance width="266"/>
  <unicode hex="007D"/>
  <outline>
    <contour>
      <point x="-35" y="-177"/>
      <point x="-33" y="-181"/>
      <point x="-28" y="-181" type="curve" smooth="yes"/>
      <point x="-23" y="-181"/>
      <point x="4" y="-172"/>
      <point x="41" y="-172" type="curve" smooth="yes"/>
      <point x="90" y="-172"/>
      <point x="89" y="-186"/>
      <point x="108" y="-186" type="curve" smooth="yes"/>
      <point x="129" y="-186"/>
      <point x="117" y="-175"/>
      <point x="158" y="202" type="curve" smooth="yes"/>
      <point x="162" y="244"/>
      <point x="197" y="237"/>
      <point x="197" y="271" type="curve" smooth="yes"/>
      <point x="197" y="297"/>
      <point x="168" y="290"/>
      <point x="168" y="317" type="curve" smooth="yes"/>
      <point x="168" y="331"/>
      <point x="215" y="720"/>
      <point x="215" y="737" type="curve" smooth="yes"/>
      <point x="215" y="749"/>
      <point x="208" y="752"/>
      <point x="201" y="752" type="curve" smooth="yes"/>
      <point x="182" y="752"/>
      <point x="165" y="744"/>
      <point x="142" y="744" type="curve" smooth="yes"/>
      <point x="108" y="744"/>
      <point x="96" y="750"/>
      <point x="80" y="750" type="curve" smooth="yes"/>
      <point x="66" y="750"/>
      <point x="62" y="745"/>
      <point x="62" y="737" type="curve" smooth="yes"/>
      <point x="62" y="702"/>
      <point x="125" y="685"/>
      <point x="149" y="685" type="curve" smooth="yes"/>
      <point x="152" y="685"/>
      <point x="155" y="681"/>
      <point x="155" y="677" type="curve"/>
      <point x="78" y="-106"/>
      <point x="115" y="286"/>
      <point x="73" y="-105" type="curve" smooth="yes"/>
      <point x="72" y="-115"/>
      <point x="34" y="-114"/>
      <point x="2" y="-131" type="curve" smooth="yes"/>
      <point x="-13" y="-139"/>
      <point x="-35" y="-157"/>
      <point x="-35" y="-174" type="curve" smooth="yes"/>
    </contour>
  </outline>
</glyph>
<glyph name="exclamdown" format="1">
  <advance width="249"/>
  <unicode hex="00A1"/>
  <outline>
    <contour>
      <point x="68" y="-5"/>
      <point x="86" y="-11"/>
      <point x="104" y="-11" type="curve" smooth="yes"/>
      <point x="155" y="-11"/>
      <point x="151" y="28"/>
      <point x="152" y="48" type="curve" smooth="yes"/>
      <point x="178" y="437" type="line" smooth="yes"/>
      <point x="179" y="448"/>
      <point x="180" y="457"/>
      <point x="180" y="464" type="curve" smooth="yes"/>
      <point x="180" y="475"/>
      <point x="177" y="481"/>
      <point x="167" y="481" type="curve" smooth="yes"/>
      <point x="155" y="481"/>
      <point x="147" y="467"/>
      <point x="146" y="461" type="curve"/>
      <point x="128" y="375"/>
      <point x="115" y="298"/>
      <point x="104" y="219" type="curve" smooth="yes"/>
      <point x="83" y="67"/>
      <point x="68" y="57"/>
      <point x="68" y="21" type="curve" smooth="yes"/>
    </contour>
    <contour>
      <point x="122" y="613"/>
      <point x="131" y="603"/>
      <point x="140" y="593" type="curve" smooth="yes"/>
      <point x="156" y="574"/>
      <point x="163" y="560"/>
      <point x="171" y="560" type="curve" smooth="yes"/>
      <point x="187" y="560"/>
      <point x="197" y="576"/>
      <point x="219" y="593" type="curve" smooth="yes"/>
      <point x="223" y="596"/>
      <point x="245" y="617"/>
      <point x="245" y="625" type="curve" smooth="yes"/>
      <point x="245" y="635"/>
      <point x="228" y="648"/>
      <point x="215" y="664" type="curve" smooth="yes"/>
      <point x="204" y="677"/>
      <point x="196" y="687"/>
      <point x="184" y="687" type="curve" smooth="yes"/>
      <point x="178" y="687"/>
      <point x="164" y="672"/>
      <point x="152" y="660" type="curve" smooth="yes"/>
      <point x="137" y="646"/>
      <point x="122" y="632"/>
      <point x="122" y="620" type="curve" smooth="yes"/>
    </contour>
  </outline>
</glyph>
<glyph name="cent" format="1">
  <advance width="418"/>
  <unicode hex="00A2"/>
  <outline>
    <contour>
      <point x="32" y="73"/>
      <point x="69" y="15"/>
      <point x="133" y="-9" type="curve" smooth="yes"/>
      <point x="177" y="-26"/>
      <point x="187" y="-14"/>
      <point x="187" y="-24" type="curve" smooth="yes"/>
      <point x="187" y="-28"/>
      <point x="181" y="-79"/>
      <point x="181" y="-90" type="curve" smooth="yes"/>
      <point x="181" y="-97"/>
      <point x="183" y="-102"/>
      <point x="195" y="-102" type="curve" smooth="yes"/>
      <point x="205" y="-102"/>
      <point x="215" y="-100"/>
      <point x="216" y="-91" type="curve" smooth="yes"/>
      <point x="224" y="-16"/>
      <point x="217" y="-21"/>
      <point x="236" y="-19" type="curve" smooth="yes"/>
      <point x="330" y="-7"/>
      <point x="383" y="62"/>
      <point x="383" y="74" type="curve" smooth="yes"/>
      <point x="383" y="79"/>
      <point x="379" y="83"/>
      <point x="374" y="83" type="curve" smooth="yes"/>
      <point x="362" y="83"/>
      <point x="320" y="31"/>
      <point x="246" y="31" type="curve" smooth="yes"/>
      <point x="234" y="31"/>
      <point x="230" y="35"/>
      <point x="230" y="41" type="curve" smooth="yes"/>
      <point x="230" y="42"/>
      <point x="231" y="44"/>
      <point x="231" y="45" type="curve"/>
      <point x="266" y="356" type="line" smooth="yes"/>
      <point x="268" y="373"/>
      <point x="271" y="376"/>
      <point x="274" y="376" type="curve" smooth="yes"/>
      <point x="277" y="376"/>
      <point x="279" y="375"/>
      <point x="290" y="369" type="curve" smooth="yes"/>
      <point x="358" y="331"/>
      <point x="343" y="305"/>
      <point x="362" y="305" type="curve" smooth="yes"/>
      <point x="378" y="305"/>
      <point x="380" y="387"/>
      <point x="380" y="387" type="curve"/>
      <point x="380" y="404"/>
      <point x="376" y="405"/>
      <point x="370" y="409" type="curve"/>
      <point x="325" y="436"/>
      <point x="274" y="418"/>
      <point x="274" y="436" type="curve" smooth="yes"/>
      <point x="274" y="441"/>
      <point x="280" y="475"/>
      <point x="280" y="481" type="curve" smooth="yes"/>
      <point x="280" y="485"/>
      <point x="277" y="491"/>
      <point x="258" y="491" type="curve" smooth="yes"/>
      <point x="250" y="491"/>
      <point x="243" y="487"/>
      <point x="243" y="481" type="curve"/>
      <point x="239" y="445" type="line" smooth="yes"/>
      <point x="236" y="417"/>
      <point x="236" y="429"/>
      <point x="200" y="416" type="curve" smooth="yes"/>
      <point x="98" y="379"/>
      <point x="32" y="273"/>
      <point x="32" y="159" type="curve" smooth="yes"/>
    </contour>
    <contour>
      <point x="105" y="314"/>
      <point x="173" y="388"/>
      <point x="217" y="388" type="curve" smooth="yes"/>
      <point x="229" y="388"/>
      <point x="231" y="388"/>
      <point x="231" y="381" type="curve" smooth="yes"/>
      <point x="231" y="374" type="line"/>
      <point x="196" y="58" type="line" smooth="yes"/>
      <point x="195" y="46"/>
      <point x="192" y="43"/>
      <point x="189" y="43" type="curve" smooth="yes"/>
      <point x="179" y="43"/>
      <point x="105" y="94"/>
      <point x="105" y="199" type="curve" smooth="yes"/>
    </contour>
  </outline>
</glyph>
<glyph name="sterling" format="1">
  <advance width="530"/>
  <unicode hex="00A3"/>
  <outline>
    <contour>
      <point x="20" y="13"/>
      <point x="36" y="-11"/>
      <point x="71" y="-11" type="curve" smooth="yes"/>
      <point x="130" y="-11"/>
      <point x="155" y="26"/>
      <point x="169" y="27" type="curve"/>
      <point x="176" y="24"/>
      <point x="262" y="-17"/>
      <point x="350" y="-17" type="curve" smooth="yes"/>
      <point x="465" y="-17"/>
      <point x="511" y="112"/>
      <point x="511" y="138" type="curve" smooth="yes"/>
      <point x="511" y="146"/>
      <point x="506" y="151"/>
      <point x="500" y="151" type="curve" smooth="yes"/>
      <point x="484" y="151"/>
      <point x="455" y="50"/>
      <point x="327" y="50" type="curve" smooth="yes"/>
      <point x="266" y="50"/>
      <point x="210" y="64"/>
      <point x="200" y="67" type="curve"/>
      <point x="201" y="68"/>
      <point x="253" y="140"/>
      <point x="253" y="228" type="curve" smooth="yes"/>
      <point x="253" y="278"/>
      <point x="239" y="324"/>
      <point x="239" y="329" type="curve" smooth="yes"/>
      <point x="239" y="332"/>
      <point x="248" y="333"/>
      <point x="260" y="333" type="curve" smooth="yes"/>
      <point x="373" y="333" type="line" smooth="yes"/>
      <point x="387" y="333"/>
      <point x="398" y="333"/>
      <point x="398" y="364" type="curve" smooth="yes"/>
      <point x="398" y="373"/>
      <point x="394" y="376"/>
      <point x="379" y="376" type="curve" smooth="yes"/>
      <point x="236" y="376" type="line" smooth="yes"/>
      <point x="228" y="376"/>
      <point x="225" y="378"/>
      <point x="220" y="396" type="curve" smooth="yes"/>
      <point x="210" y="431"/>
      <point x="192" y="482"/>
      <point x="192" y="540" type="curve" smooth="yes"/>
      <point x="192" y="663"/>
      <point x="272" y="683"/>
      <point x="313" y="683" type="curve" smooth="yes"/>
      <point x="352" y="683"/>
      <point x="388" y="665"/>
      <point x="403" y="635" type="curve" smooth="yes"/>
      <point x="419" y="602"/>
      <point x="417" y="565"/>
      <point x="435" y="565" type="curve" smooth="yes"/>
      <point x="444" y="565"/>
      <point x="479" y="589"/>
      <point x="479" y="623" type="curve" smooth="yes"/>
      <point x="479" y="680"/>
      <point x="409" y="719"/>
      <point x="333" y="719" type="curve" smooth="yes"/>
      <point x="230" y="719"/>
      <point x="123" y="646"/>
      <point x="123" y="490" type="curve" smooth="yes"/>
      <point x="123" y="432"/>
      <point x="139" y="383"/>
      <point x="139" y="377" type="curve" smooth="yes"/>
      <point x="139" y="376"/>
      <point x="137" y="375"/>
      <point x="123" y="375" type="curve" smooth="yes"/>
      <point x="68" y="375" type="line" smooth="yes"/>
      <point x="56" y="375"/>
      <point x="53" y="360"/>
      <point x="53" y="348" type="curve" smooth="yes"/>
      <point x="53" y="334"/>
      <point x="60" y="332"/>
      <point x="64" y="332" type="curve" smooth="yes"/>
      <point x="106" y="332"/>
      <point x="127" y="333"/>
      <point x="139" y="333" type="curve" smooth="yes"/>
      <point x="155" y="333"/>
      <point x="154" y="329"/>
      <point x="160" y="311" type="curve"/>
      <point x="165" y="294"/>
      <point x="189" y="224"/>
      <point x="189" y="167" type="curve" smooth="yes"/>
      <point x="189" y="123"/>
      <point x="168" y="82"/>
      <point x="162" y="79" type="curve"/>
      <point x="156" y="79"/>
      <point x="126" y="100"/>
      <point x="90" y="100" type="curve" smooth="yes"/>
      <point x="40" y="100"/>
      <point x="20" y="66"/>
      <point x="20" y="37" type="curve" smooth="yes"/>
    </contour>
    <contour>
      <point x="55" y="51"/>
      <point x="60" y="63"/>
      <point x="84" y="63" type="curve" smooth="yes"/>
      <point x="106" y="63"/>
      <point x="135" y="52"/>
      <point x="138" y="47" type="curve"/>
      <point x="136" y="43"/>
      <point x="111" y="17"/>
      <point x="84" y="17" type="curve" smooth="yes"/>
      <point x="67" y="17"/>
      <point x="55" y="31"/>
      <point x="55" y="42" type="curve" smooth="yes"/>
    </contour>
  </outline>
</glyph>
<glyph name="currency" format="1">
  <advance width="527"/>
  <unicode hex="00A4"/>
  <outline>
    <contour>
      <point x="20" y="31"/>
      <point x="30" y="18"/>
      <point x="46" y="18" type="curve" smooth="yes"/>
      <point x="61" y="18"/>
      <point x="75" y="33"/>
      <point x="77" y="35" type="curve" smooth="yes"/>
      <point x="146" y="103" type="line"/>
      <point x="178" y="79"/>
      <point x="220" y="65"/>
      <point x="263" y="65" type="curve" smooth="yes"/>
      <point x="307" y="65"/>
      <point x="349" y="80"/>
      <point x="381" y="104" type="curve"/>
      <point x="450" y="35" type="line" smooth="yes"/>
      <point x="459" y="26"/>
      <point x="468" y="17"/>
      <point x="480" y="17" type="curve" smooth="yes"/>
      <point x="493" y="17"/>
      <point x="507" y="28"/>
      <point x="507" y="44" type="curve" smooth="yes"/>
      <point x="507" y="59"/>
      <point x="491" y="72"/>
      <point x="489" y="74" type="curve" smooth="yes"/>
      <point x="420" y="144" type="line"/>
      <point x="444" y="176"/>
      <point x="461" y="217"/>
      <point x="461" y="260" type="curve" smooth="yes"/>
      <point x="461" y="304"/>
      <point x="444" y="345"/>
      <point x="420" y="378" type="curve"/>
      <point x="489" y="448" type="line" smooth="yes"/>
      <point x="498" y="457"/>
      <point x="507" y="466"/>
      <point x="507" y="478" type="curve" smooth="yes"/>
      <point x="507" y="491"/>
      <point x="496" y="504"/>
      <point x="480" y="504" type="curve" smooth="yes"/>
      <point x="465" y="504"/>
      <point x="452" y="489"/>
      <point x="450" y="487" type="curve" smooth="yes"/>
      <point x="381" y="418" type="line"/>
      <point x="350" y="441"/>
      <point x="310" y="457"/>
      <point x="263" y="457" type="curve" smooth="yes"/>
      <point x="220" y="457"/>
      <point x="178" y="442"/>
      <point x="146" y="418" type="curve"/>
      <point x="77" y="487" type="line" smooth="yes"/>
      <point x="68" y="496"/>
      <point x="58" y="505"/>
      <point x="46" y="505" type="curve" smooth="yes"/>
      <point x="33" y="505"/>
      <point x="20" y="494"/>
      <point x="20" y="478" type="curve" smooth="yes"/>
      <point x="20" y="463"/>
      <point x="36" y="450"/>
      <point x="38" y="448" type="curve" smooth="yes"/>
      <point x="105" y="379" type="line"/>
      <point x="81" y="347"/>
      <point x="67" y="305"/>
      <point x="67" y="262" type="curve" smooth="yes"/>
      <point x="67" y="217"/>
      <point x="81" y="176"/>
      <point x="106" y="143" type="curve"/>
      <point x="38" y="74" type="line" smooth="yes"/>
      <point x="29" y="65"/>
      <point x="20" y="56"/>
      <point x="20" y="44" type="curve" smooth="yes"/>
    </contour>
    <contour>
      <point x="124" y="338"/>
      <point x="185" y="404"/>
      <point x="263" y="404" type="curve" smooth="yes"/>
      <point x="340" y="404"/>
      <point x="403" y="338"/>
      <point x="403" y="261" type="curve" smooth="yes"/>
      <point x="403" y="183"/>
      <point x="339" y="120"/>
      <point x="263" y="120" type="curve" smooth="yes"/>
      <point x="187" y="120"/>
      <point x="124" y="181"/>
      <point x="124" y="260" type="curve" smooth="yes"/>
    </contour>
  </outline>
</glyph>
<glyph name="yen" format="1">
  <advance width="690"/>
  <unicode hex="00A5"/>
  <outline>
    <contour>
      <point x="20" y="677"/>
      <point x="55" y="684"/>
      <point x="67" y="680" type="curve" smooth="yes"/>
      <point x="89" y="673"/>
      <point x="112" y="654"/>
      <point x="155" y="570" type="curve" smooth="yes"/>
      <point x="232" y="422" type="line" smooth="yes"/>
      <point x="236" y="414"/>
      <point x="240" y="410"/>
      <point x="240" y="408" type="curve" smooth="yes"/>
      <point x="240" y="406"/>
      <point x="237" y="405"/>
      <point x="228" y="405" type="curve" smooth="yes"/>
      <point x="160" y="405" type="line" smooth="yes"/>
      <point x="144" y="405"/>
      <point x="134" y="404"/>
      <point x="134" y="374" type="curve" smooth="yes"/>
      <point x="134" y="365"/>
      <point x="136" y="361"/>
      <point x="153" y="361" type="curve" smooth="yes"/>
      <point x="248" y="361" type="line" smooth="yes"/>
      <point x="266" y="361"/>
      <point x="264" y="360"/>
      <point x="271" y="344" type="curve" smooth="yes"/>
      <point x="280" y="323"/>
      <point x="284" y="313"/>
      <point x="284" y="302" type="curve" smooth="yes"/>
      <point x="284" y="294"/>
      <point x="281" y="273"/>
      <point x="280" y="261" type="curve" smooth="yes"/>
      <point x="278" y="242"/>
      <point x="282" y="241"/>
      <point x="257" y="241" type="curve" smooth="yes"/>
      <point x="128" y="241" type="line" smooth="yes"/>
      <point x="116" y="241"/>
      <point x="114" y="226"/>
      <point x="114" y="214" type="curve" smooth="yes"/>
      <point x="114" y="202"/>
      <point x="120" y="198"/>
      <point x="125" y="198" type="curve" smooth="yes"/>
      <point x="148" y="198"/>
      <point x="135" y="197"/>
      <point x="239" y="197" type="curve" smooth="yes"/>
      <point x="266" y="197"/>
      <point x="270" y="194"/>
      <point x="270" y="184" type="curve" smooth="yes"/>
      <point x="270" y="182"/>
      <point x="269" y="173"/>
      <point x="257" y="89" type="curve" smooth="yes"/>
      <point x="252" y="51"/>
      <point x="247" y="33"/>
      <point x="227" y="27" type="curve" smooth="yes"/>
      <point x="209" y="22"/>
      <point x="189" y="24"/>
      <point x="189" y="6" type="curve" smooth="yes"/>
      <point x="189" y="0"/>
      <point x="195" y="-7"/>
      <point x="216" y="-7" type="curve" smooth="yes"/>
      <point x="240" y="-7"/>
      <point x="254" y="1"/>
      <point x="300" y="1" type="curve" smooth="yes"/>
      <point x="331" y="1"/>
      <point x="399" y="-6"/>
      <point x="413" y="-6" type="curve" smooth="yes"/>
      <point x="431" y="-6"/>
      <point x="432" y="0"/>
      <point x="432" y="8" type="curve" smooth="yes"/>
      <point x="432" y="30"/>
      <point x="391" y="14"/>
      <point x="359" y="40" type="curve" smooth="yes"/>
      <point x="345" y="52"/>
      <point x="337" y="62"/>
      <point x="337" y="79" type="curve" smooth="yes"/>
      <point x="337" y="89"/>
      <point x="344" y="161"/>
      <point x="346" y="182" type="curve" smooth="yes"/>
      <point x="347" y="197"/>
      <point x="346" y="197"/>
      <point x="358" y="197" type="curve" smooth="yes"/>
      <point x="484" y="197" type="line" smooth="yes"/>
      <point x="501" y="197"/>
      <point x="511" y="200"/>
      <point x="511" y="229" type="curve" smooth="yes"/>
      <point x="511" y="238"/>
      <point x="508" y="242"/>
      <point x="491" y="242" type="curve" smooth="yes"/>
      <point x="478" y="242"/>
      <point x="414" y="241"/>
      <point x="362" y="241" type="curve" smooth="yes"/>
      <point x="354" y="241"/>
      <point x="352" y="242"/>
      <point x="352" y="247" type="curve" smooth="yes"/>
      <point x="352" y="253"/>
      <point x="359" y="311"/>
      <point x="375" y="338" type="curve" smooth="yes"/>
      <point x="387" y="359"/>
      <point x="380" y="362"/>
      <point x="430" y="362" type="curve" smooth="yes"/>
      <point x="516" y="362" type="line" smooth="yes"/>
      <point x="521" y="362"/>
      <point x="531" y="364"/>
      <point x="531" y="388" type="curve" smooth="yes"/>
      <point x="531" y="400"/>
      <point x="525" y="405"/>
      <point x="520" y="405" type="curve" smooth="yes"/>
      <point x="427" y="405"/>
      <point x="427" y="405"/>
      <point x="427" y="408" type="curve" smooth="yes"/>
      <point x="427" y="411"/>
      <point x="436" y="419"/>
      <point x="447" y="435" type="curve" smooth="yes"/>
      <point x="499" y="508"/>
      <point x="577" y="627"/>
      <point x="607" y="659" type="curve" smooth="yes"/>
      <point x="629" y="682"/>
      <point x="671" y="683"/>
      <point x="671" y="698" type="curve" smooth="yes"/>
      <point x="671" y="705"/>
      <point x="670" y="713"/>
      <point x="645" y="713" type="curve" smooth="yes"/>
      <point x="607" y="713"/>
      <point x="587" y="710"/>
      <point x="542" y="710" type="curve" smooth="yes"/>
      <point x="526" y="710"/>
      <point x="500" y="712"/>
      <point x="489" y="712" type="curve" smooth="yes"/>
      <point x="470" y="712"/>
      <point x="463" y="709"/>
      <point x="463" y="698" type="curve" smooth="yes"/>
      <point x="463" y="665"/>
      <point x="534" y="696"/>
      <point x="534" y="654" type="curve" smooth="yes"/>
      <point x="534" y="608"/>
      <point x="399" y="426"/>
      <point x="398" y="425" type="curve"/>
      <point x="384" y="406"/>
      <point x="389" y="405"/>
      <point x="375" y="405" type="curve" smooth="yes"/>
      <point x="332" y="405" type="line" smooth="yes"/>
      <point x="321" y="405"/>
      <point x="323" y="407"/>
      <point x="312" y="431" type="curve" smooth="yes"/>
      <point x="239" y="585"/>
      <point x="215" y="619"/>
      <point x="215" y="657" type="curve" smooth="yes"/>
      <point x="215" y="683"/>
      <point x="265" y="678"/>
      <point x="265" y="699" type="curve" smooth="yes"/>
      <point x="265" y="706"/>
      <point x="261" y="714"/>
      <point x="235" y="714" type="curve" smooth="yes"/>
      <point x="218" y="714"/>
      <point x="169" y="710"/>
      <point x="146" y="710" type="curve" smooth="yes"/>
      <point x="129" y="710"/>
      <point x="66" y="714"/>
      <point x="53" y="714" type="curve" smooth="yes"/>
      <point x="26" y="714"/>
      <point x="20" y="707"/>
      <point x="20" y="700" type="curve" smooth="yes"/>
    </contour>
  </outline>
</glyph>
<glyph name="section" format="1">
  <advance width="542"/>
  <unicode hex="00A7"/>
  <outline>
    <contour>
      <point x="59" y="-12"/>
      <point x="64" y="-132"/>
      <point x="83" y="-143" type="curve" smooth="yes"/>
      <point x="139" y="-177"/>
      <point x="175" y="-181"/>
      <point x="224" y="-181" type="curve" smooth="yes"/>
      <point x="377" y="-181"/>
      <point x="448" y="-64"/>
      <point x="448" y="21" type="curve" smooth="yes"/>
      <point x="448" y="35"/>
      <point x="445" y="50"/>
      <point x="441" y="65" type="curve" smooth="yes"/>
      <point x="425" y="119"/>
      <point x="394" y="123"/>
      <point x="394" y="131" type="curve" smooth="yes"/>
      <point x="394" y="138"/>
      <point x="481" y="182"/>
      <point x="481" y="306" type="curve" smooth="yes"/>
      <point x="481" y="491"/>
      <point x="187" y="460"/>
      <point x="187" y="577" type="curve" smooth="yes"/>
      <point x="187" y="617"/>
      <point x="223" y="683"/>
      <point x="304" y="683" type="curve" smooth="yes"/>
      <point x="337" y="683"/>
      <point x="361" y="676"/>
      <point x="380" y="665" type="curve" smooth="yes"/>
      <point x="465" y="616"/>
      <point x="437" y="526"/>
      <point x="468" y="526" type="curve" smooth="yes"/>
      <point x="479" y="526"/>
      <point x="483" y="545"/>
      <point x="483" y="564" type="curve" smooth="yes"/>
      <point x="483" y="589"/>
      <point x="479" y="650"/>
      <point x="478" y="690" type="curve"/>
      <point x="478" y="697"/>
      <point x="468" y="700"/>
      <point x="463" y="700" type="curve" smooth="yes"/>
      <point x="456" y="700"/>
      <point x="444" y="693"/>
      <point x="440" y="693" type="curve" smooth="yes"/>
      <point x="418" y="693"/>
      <point x="398" y="720"/>
      <point x="323" y="720" type="curve" smooth="yes"/>
      <point x="206" y="720"/>
      <point x="125" y="631"/>
      <point x="125" y="536" type="curve" smooth="yes"/>
      <point x="125" y="454"/>
      <point x="195" y="438"/>
      <point x="195" y="426" type="curve" smooth="yes"/>
      <point x="195" y="418"/>
      <point x="83" y="383"/>
      <point x="83" y="258" type="curve" smooth="yes"/>
      <point x="83" y="80"/>
      <point x="393" y="92"/>
      <point x="393" y="-17" type="curve" smooth="yes"/>
      <point x="393" y="-79"/>
      <point x="329" y="-136"/>
      <point x="236" y="-136" type="curve" smooth="yes"/>
      <point x="143" y="-136"/>
      <point x="107" y="-39"/>
      <point x="95" y="6" type="curve" smooth="yes"/>
      <point x="90" y="25"/>
      <point x="90" y="40"/>
      <point x="75" y="40" type="curve" smooth="yes"/>
      <point x="62" y="40"/>
      <point x="59" y="22"/>
      <point x="59" y="12" type="curve" smooth="yes"/>
    </contour>
    <contour>
      <point x="144" y="366"/>
      <point x="223" y="404"/>
      <point x="236" y="404" type="curve" smooth="yes"/>
      <point x="242" y="404"/>
      <point x="275" y="392"/>
      <point x="300" y="381" type="curve" smooth="yes"/>
      <point x="340" y="364"/>
      <point x="425" y="334"/>
      <point x="425" y="263" type="curve" smooth="yes"/>
      <point x="425" y="207"/>
      <point x="371" y="153"/>
      <point x="355" y="153" type="curve" smooth="yes"/>
      <point x="350" y="153"/>
      <point x="217" y="205"/>
      <point x="189" y="225" type="curve" smooth="yes"/>
      <point x="157" y="247"/>
      <point x="144" y="273"/>
      <point x="144" y="299" type="curve" smooth="yes"/>
    </contour>
  </outline>
</glyph>
<glyph name="dieresis" format="1">
  <advance width="439"/>
  <unicode hex="00A8"/>
  <outline>
    <contour>
      <point x="122" y="572"/>
      <point x="140" y="540"/>
      <point x="166" y="540" type="curve" smooth="yes"/>
      <point x="174" y="540"/>
      <point x="212" y="570"/>
      <point x="212" y="593" type="curve" smooth="yes"/>
      <point x="212" y="612"/>
      <point x="192" y="640"/>
      <point x="172" y="640" type="curve" smooth="yes"/>
      <point x="151" y="640"/>
      <point x="122" y="604"/>
      <point x="122" y="589" type="curve" smooth="yes"/>
    </contour>
    <contour>
      <point x="276" y="572"/>
      <point x="294" y="540"/>
      <point x="320" y="540" type="curve" smooth="yes"/>
      <point x="328" y="540"/>
      <point x="367" y="570"/>
      <point x="367" y="593" type="curve" smooth="yes"/>
      <point x="367" y="612"/>
      <point x="347" y="640"/>
      <point x="327" y="640" type="curve" smooth="yes"/>
      <point x="306" y="640"/>
      <point x="276" y="604"/>
      <point x="276" y="589" type="curve" smooth="yes"/>
    </contour>
  </outline>
</glyph>
<glyph name="copyright" format="1">
  <advance width="796"/>
  <unicode hex="00A9"/>
  <outline>
    <contour>
      <point x="44" y="134"/>
      <point x="207" y="-21"/>
      <point x="399" y="-21" type="curve" smooth="yes"/>
      <point x="603" y="-21"/>
      <point x="756" y="144"/>
      <point x="756" y="335" type="curve" smooth="yes"/>
      <point x="756" y="529"/>
      <point x="599" y="692"/>
      <point x="400" y="692" type="curve" smooth="yes"/>
      <point x="199" y="692"/>
      <point x="44" y="528"/>
      <point x="44" y="335" type="curve" smooth="yes"/>
    </contour>
    <contour>
      <point x="86" y="506"/>
      <point x="223" y="649"/>
      <point x="399" y="649" type="curve" smooth="yes"/>
      <point x="579" y="649"/>
      <point x="714" y="503"/>
      <point x="714" y="336" type="curve" smooth="yes"/>
      <point x="714" y="155"/>
      <point x="567" y="21"/>
      <point x="400" y="21" type="curve" smooth="yes"/>
      <point x="231" y="21"/>
      <point x="86" y="158"/>
      <point x="86" y="335" type="curve" smooth="yes"/>
    </contour>
    <contour>
      <point x="164" y="263"/>
      <point x="194" y="109"/>
      <point x="415" y="109" type="curve" smooth="yes"/>
      <point x="490" y="109"/>
      <point x="530" y="136"/>
      <point x="579" y="158" type="curve"/>
      <point x="582" y="159"/>
      <point x="590" y="163"/>
      <point x="592" y="172" type="curve" smooth="yes"/>
      <point x="597" y="196"/>
      <point x="604" y="238"/>
      <point x="604" y="255" type="curve" smooth="yes"/>
      <point x="604" y="259"/>
      <point x="602" y="263"/>
      <point x="597" y="263" type="curve" smooth="yes"/>
      <point x="578" y="263"/>
      <point x="584" y="249"/>
      <point x="567" y="225" type="curve" smooth="yes"/>
      <point x="543" y="191"/>
      <point x="497" y="146"/>
      <point x="431" y="146" type="curve" smooth="yes"/>
      <point x="270" y="146"/>
      <point x="230" y="276"/>
      <point x="230" y="358" type="curve" smooth="yes"/>
      <point x="230" y="458"/>
      <point x="301" y="525"/>
      <point x="401" y="525" type="curve" smooth="yes"/>
      <point x="480" y="525"/>
      <point x="535" y="482"/>
      <point x="570" y="418" type="curve"/>
      <point x="573" y="412"/>
      <point x="578" y="407"/>
      <point x="584" y="407" type="curve" smooth="yes"/>
      <point x="594" y="407"/>
      <point x="597" y="415"/>
      <point x="597" y="422" type="curve" smooth="yes"/>
      <point x="597" y="426"/>
      <point x="596" y="431"/>
      <point x="595" y="438" type="curve" smooth="yes"/>
      <point x="585" y="503"/>
      <point x="592" y="521"/>
      <point x="574" y="521" type="curve" smooth="yes"/>
      <point x="566" y="521"/>
      <point x="566" y="515"/>
      <point x="562" y="515" type="curve" smooth="yes"/>
      <point x="555" y="515"/>
      <point x="487" y="559"/>
      <point x="401" y="559" type="curve" smooth="yes"/>
      <point x="245" y="559"/>
      <point x="164" y="451"/>
      <point x="164" y="322" type="curve" smooth="yes"/>
    </contour>
  </outline>
</glyph>
<glyph name="ordfeminine" format="1">
  <advance width="337"/>
  <unicode hex="00AA"/>
  <outline>
    <contour>
      <point x="20" y="427"/>
      <point x="28" y="388"/>
      <point x="86" y="388" type="curve" smooth="yes"/>
      <point x="148" y="388"/>
      <point x="202" y="447"/>
      <point x="214" y="458" type="curve"/>
      <point x="217" y="446"/>
      <point x="216" y="393"/>
      <point x="258" y="393" type="curve" smooth="yes"/>
      <point x="279" y="393"/>
      <point x="328" y="444"/>
      <point x="328" y="470" type="curve" smooth="yes"/>
      <point x="328" y="477"/>
      <point x="324" y="479"/>
      <point x="321" y="479" type="curve" smooth="yes"/>
      <point x="308" y="479"/>
      <point x="295" y="440"/>
      <point x="277" y="440" type="curve" smooth="yes"/>
      <point x="269" y="440"/>
      <point x="259" y="456"/>
      <point x="259" y="472" type="curve" smooth="yes"/>
      <point x="259" y="500"/>
      <point x="283" y="621"/>
      <point x="284" y="624" type="curve"/>
      <point x="289" y="643"/>
      <point x="295" y="655"/>
      <point x="295" y="665" type="curve" smooth="yes"/>
      <point x="295" y="675"/>
      <point x="291" y="677"/>
      <point x="288" y="677" type="curve" smooth="yes"/>
      <point x="277" y="677"/>
      <point x="263" y="647"/>
      <point x="253" y="647" type="curve" smooth="yes"/>
      <point x="230" y="647"/>
      <point x="214" y="654"/>
      <point x="192" y="654" type="curve" smooth="yes"/>
      <point x="86" y="654"/>
      <point x="20" y="531"/>
      <point x="20" y="467" type="curve" smooth="yes"/>
    </contour>
    <contour>
      <point x="66" y="518"/>
      <point x="83" y="551"/>
      <point x="105" y="587" type="curve"/>
      <point x="125" y="616"/>
      <point x="162" y="634"/>
      <point x="190" y="634" type="curve" smooth="yes"/>
      <point x="211" y="634"/>
      <point x="234" y="630"/>
      <point x="234" y="614" type="curve" smooth="yes"/>
      <point x="234" y="603"/>
      <point x="216" y="503"/>
      <point x="202" y="478" type="curve" smooth="yes"/>
      <point x="196" y="468"/>
      <point x="164" y="426"/>
      <point x="114" y="426" type="curve" smooth="yes"/>
      <point x="85" y="426"/>
      <point x="66" y="444"/>
      <point x="66" y="471" type="curve" smooth="yes"/>
    </contour>
  </outline>
</glyph>
<glyph name="guillemotleft" format="1">
  <advance width="351"/>
  <unicode hex="00AB"/>
  <outline>
    <contour>
      <point x="20" y="212"/>
      <point x="22" y="210"/>
      <point x="24" y="208" type="curve" smooth="yes"/>
      <point x="144" y="84"/>
      <point x="143" y="84"/>
      <point x="147" y="84" type="curve" smooth="yes"/>
      <point x="154" y="84"/>
      <point x="164" y="97"/>
      <point x="164" y="103" type="curve" smooth="yes"/>
      <point x="164" y="116"/>
      <point x="89" y="204"/>
      <point x="89" y="217" type="curve" smooth="yes"/>
      <point x="89" y="227"/>
      <point x="188" y="319"/>
      <point x="188" y="331" type="curve" smooth="yes"/>
      <point x="188" y="337"/>
      <point x="182" y="349"/>
      <point x="176" y="349" type="curve" smooth="yes"/>
      <point x="172" y="349"/>
      <point x="173" y="349"/>
      <point x="27" y="227" type="curve"/>
      <point x="25" y="225"/>
      <point x="20" y="221"/>
      <point x="20" y="215" type="curve" smooth="yes"/>
    </contour>
    <contour>
      <point x="143" y="212"/>
      <point x="145" y="210"/>
      <point x="147" y="208" type="curve" smooth="yes"/>
      <point x="267" y="84"/>
      <point x="265" y="84"/>
      <point x="270" y="84" type="curve" smooth="yes"/>
      <point x="278" y="84"/>
      <point x="286" y="99"/>
      <point x="286" y="102" type="curve" smooth="yes"/>
      <point x="286" y="112"/>
      <point x="212" y="205"/>
      <point x="212" y="217" type="curve" smooth="yes"/>
      <point x="212" y="228"/>
      <point x="312" y="319"/>
      <point x="312" y="331" type="curve" smooth="yes"/>
      <point x="312" y="337"/>
      <point x="305" y="349"/>
      <point x="299" y="349" type="curve" smooth="yes"/>
      <point x="294" y="349"/>
      <point x="295" y="349"/>
      <point x="149" y="227" type="curve"/>
      <point x="148" y="226"/>
      <point x="143" y="222"/>
      <point x="143" y="215" type="curve" smooth="yes"/>
    </contour>
  </outline>
</glyph>
<glyph name="logicalnot" format="1">
  <advance width="508"/>
  <unicode hex="00AC"/>
  <outline>
    <contour>
      <point x="21" y="196"/>
      <point x="22" y="188"/>
      <point x="41" y="188" type="curve" smooth="yes"/>
      <point x="416" y="188" type="line" smooth="yes"/>
      <point x="432" y="188"/>
      <point x="442" y="185"/>
      <point x="442" y="171" type="curve" smooth="yes"/>
      <point x="442" y="60" type="line" smooth="yes"/>
      <point x="442" y="40"/>
      <point x="453" y="40"/>
      <point x="472" y="40" type="curve" smooth="yes"/>
      <point x="485" y="40"/>
      <point x="487" y="45"/>
      <point x="487" y="55" type="curve" smooth="yes"/>
      <point x="487" y="213" type="line" smooth="yes"/>
      <point x="487" y="230"/>
      <point x="484" y="232"/>
      <point x="467" y="232" type="curve" smooth="yes"/>
      <point x="40" y="232" type="line" smooth="yes"/>
      <point x="31" y="232"/>
      <point x="21" y="232"/>
      <point x="21" y="215" type="curve" smooth="yes"/>
    </contour>
  </outline>
</glyph>
<glyph name="macron" format="1">
  <advance width="439"/>
  <unicode hex="00AF"/>
  <outline>
    <contour>
      <point x="125" y="572"/>
      <point x="128" y="564"/>
      <point x="133" y="564" type="curve" smooth="yes"/>
      <point x="169" y="564"/>
      <point x="303" y="563"/>
      <point x="321" y="563" type="curve" smooth="yes"/>
      <point x="335" y="563"/>
      <point x="338" y="576"/>
      <point x="338" y="592" type="curve" smooth="yes"/>
      <point x="338" y="605"/>
      <point x="335" y="606"/>
      <point x="325" y="606" type="curve" smooth="yes"/>
      <point x="238" y="606"/>
      <point x="285" y="608"/>
      <point x="145" y="608" type="curve" smooth="yes"/>
      <point x="131" y="608"/>
      <point x="125" y="593"/>
      <point x="125" y="581" type="curve" smooth="yes"/>
    </contour>
  </outline>
</glyph>
<glyph name="plusminus" format="1">
  <advance width="508"/>
  <unicode hex="00B1"/>
  <outline>
    <contour>
      <point x="21" y="75"/>
      <point x="28" y="73"/>
      <point x="39" y="73" type="curve" smooth="yes"/>
      <point x="465" y="73" type="line" smooth="yes"/>
      <point x="485" y="73"/>
      <point x="486" y="82"/>
      <point x="486" y="97" type="curve" smooth="yes"/>
      <point x="486" y="112"/>
      <point x="483" y="117"/>
      <point x="468" y="117" type="curve" smooth="yes"/>
      <point x="40" y="117" type="line" smooth="yes"/>
      <point x="22" y="117"/>
      <point x="21" y="108"/>
      <point x="21" y="90" type="curve" smooth="yes"/>
    </contour>
    <contour>
      <point x="21" y="309"/>
      <point x="22" y="301"/>
      <point x="39" y="301" type="curve" smooth="yes"/>
      <point x="215" y="301" type="line" smooth="yes"/>
      <point x="230" y="301"/>
      <point x="231" y="297"/>
      <point x="231" y="284" type="curve" smooth="yes"/>
      <point x="231" y="152" type="line" smooth="yes"/>
      <point x="231" y="139"/>
      <point x="238" y="138"/>
      <point x="259" y="138" type="curve" smooth="yes"/>
      <point x="269" y="138"/>
      <point x="275" y="139"/>
      <point x="275" y="152" type="curve" smooth="yes"/>
      <point x="275" y="284" type="line" smooth="yes"/>
      <point x="275" y="294"/>
      <point x="277" y="301"/>
      <point x="287" y="301" type="curve" smooth="yes"/>
      <point x="465" y="301" type="line" smooth="yes"/>
      <point x="486" y="301"/>
      <point x="486" y="311"/>
      <point x="486" y="331" type="curve" smooth="yes"/>
      <point x="486" y="344"/>
      <point x="480" y="346"/>
      <point x="471" y="346" type="curve" smooth="yes"/>
      <point x="287" y="346" type="line" smooth="yes"/>
      <point x="277" y="346"/>
      <point x="275" y="351"/>
      <point x="275" y="357" type="curve" smooth="yes"/>
      <point x="275" y="365" type="line"/>
      <point x="275" y="493" type="line" smooth="yes"/>
      <point x="275" y="507"/>
      <point x="271" y="510"/>
      <point x="247" y="510" type="curve" smooth="yes"/>
      <point x="238" y="510"/>
      <point x="231" y="506"/>
      <point x="231" y="495" type="curve" smooth="yes"/>
      <point x="231" y="365" type="line"/>
      <point x="231" y="356" type="line" smooth="yes"/>
      <point x="231" y="350"/>
      <point x="230" y="346"/>
      <point x="221" y="346" type="curve" smooth="yes"/>
      <point x="40" y="346" type="line" smooth="yes"/>
      <point x="25" y="346"/>
      <point x="21" y="336"/>
      <point x="21" y="324" type="curve" smooth="yes"/>
    </contour>
  </outline>
</glyph>
<glyph name="acute" format="1">
  <advance width="439"/>
  <unicode hex="00B4"/>
  <outline>
    <contour>
      <point x="187" y="486"/>
      <point x="190" y="482"/>
      <point x="195" y="482" type="curve" smooth="yes"/>
      <point x="210" y="482"/>
      <point x="345" y="614"/>
      <point x="345" y="637" type="curve" smooth="yes"/>
      <point x="345" y="653"/>
      <point x="306" y="660"/>
      <point x="298" y="660" type="curve" smooth="yes"/>
      <point x="295" y="660"/>
      <point x="286" y="658"/>
      <point x="278" y="642" type="curve" smooth="yes"/>
      <point x="210" y="511"/>
      <point x="187" y="503"/>
      <point x="187" y="490" type="curve" smooth="yes"/>
    </contour>
  </outline>
</glyph>
<glyph name="paragraph" format="1">
  <advance width="485"/>
  <unicode hex="00B6"/>
  <outline>
    <contour>
      <point x="39" y="334"/>
      <point x="153" y="321"/>
      <point x="237" y="321" type="curve" smooth="yes"/>
      <point x="255" y="321"/>
      <point x="258" y="317"/>
      <point x="258" y="306" type="curve" smooth="yes"/>
      <point x="258" y="301"/>
      <point x="257" y="293"/>
      <point x="256" y="284" type="curve" smooth="yes"/>
      <point x="241" y="116" type="line" smooth="yes"/>
      <point x="236" y="59"/>
      <point x="222" y="-155"/>
      <point x="150" y="-155" type="curve" smooth="yes"/>
      <point x="86" y="-155"/>
      <point x="105" y="-78"/>
      <point x="86" y="-78" type="curve" smooth="yes"/>
      <point x="73" y="-78"/>
      <point x="51" y="-127"/>
      <point x="51" y="-149" type="curve" smooth="yes"/>
      <point x="51" y="-158"/>
      <point x="53" y="-168"/>
      <point x="56" y="-170" type="curve" smooth="yes"/>
      <point x="76" y="-183"/>
      <point x="92" y="-185"/>
      <point x="116" y="-185" type="curve" smooth="yes"/>
      <point x="225" y="-185"/>
      <point x="308" y="-60"/>
      <point x="324" y="94" type="curve" smooth="yes"/>
      <point x="345" y="296"/>
      <point x="360" y="409"/>
      <point x="381" y="611" type="curve" smooth="yes"/>
      <point x="385" y="651"/>
      <point x="392" y="668"/>
      <point x="401" y="677" type="curve" smooth="yes"/>
      <point x="419" y="696"/>
      <point x="446" y="693"/>
      <point x="446" y="709" type="curve" smooth="yes"/>
      <point x="446" y="712"/>
      <point x="442" y="718"/>
      <point x="439" y="718" type="curve" smooth="yes"/>
      <point x="428" y="718" type="line" smooth="yes"/>
      <point x="407" y="718"/>
      <point x="389" y="716"/>
      <point x="372" y="716" type="curve" smooth="yes"/>
      <point x="332" y="716"/>
      <point x="296" y="715"/>
      <point x="247" y="715" type="curve" smooth="yes"/>
      <point x="164" y="715"/>
      <point x="39" y="630"/>
      <point x="39" y="474" type="curve" smooth="yes"/>
    </contour>
    <contour>
      <point x="206" y="431"/>
      <point x="212" y="605"/>
      <point x="238" y="672" type="curve" smooth="yes"/>
      <point x="244" y="688"/>
      <point x="266" y="693"/>
      <point x="275" y="693" type="curve" smooth="yes"/>
      <point x="291" y="693"/>
      <point x="297" y="685"/>
      <point x="297" y="666" type="curve" smooth="yes"/>
      <point x="297" y="644"/>
      <point x="296" y="670"/>
      <point x="280" y="517" type="curve" smooth="yes"/>
      <point x="276" y="481"/>
      <point x="274" y="446"/>
      <point x="270" y="404" type="curve" smooth="yes"/>
      <point x="267" y="371"/>
      <point x="265" y="350"/>
      <point x="239" y="350" type="curve" smooth="yes"/>
      <point x="215" y="350"/>
      <point x="206" y="381"/>
      <point x="206" y="429" type="curve" smooth="yes"/>
    </contour>
    <contour>
      <point x="245" y="-39"/>
      <point x="249" y="-44"/>
      <point x="256" y="26" type="curve"/>
      <point x="256" y="26"/>
      <point x="297" y="485"/>
      <point x="323" y="683" type="curve" smooth="yes"/>
      <point x="324" y="691"/>
      <point x="334" y="696"/>
      <point x="341" y="696" type="curve" smooth="yes"/>
      <point x="350" y="696"/>
      <point x="360" y="689"/>
      <point x="360" y="679" type="curve" smooth="yes"/>
      <point x="360" y="678" type="line"/>
      <point x="304" y="120" type="line" smooth="yes"/>
      <point x="293" y="13"/>
      <point x="258" y="-59"/>
      <point x="251" y="-59" type="curve" smooth="yes"/>
      <point x="246" y="-59"/>
      <point x="245" y="-56"/>
      <point x="245" y="-51" type="curve" smooth="yes"/>
    </contour>
  </outline>
</glyph>
<glyph name="periodcentered" format="1">
  <advance width="301"/>
  <unicode hex="00B7"/>
  <outline>
    <contour>
      <point x="104" y="322"/>
      <point x="130" y="278"/>
      <point x="148" y="278" type="curve" smooth="yes"/>
      <point x="157" y="278"/>
      <point x="192" y="311"/>
      <point x="192" y="331" type="curve" smooth="yes"/>
      <point x="192" y="349"/>
      <point x="173" y="384"/>
      <point x="153" y="384" type="curve" smooth="yes"/>
      <point x="135" y="384"/>
      <point x="104" y="341"/>
      <point x="104" y="332" type="curve" smooth="yes"/>
    </contour>
  </outline>
</glyph>
<glyph name="cedilla" format="1">
  <advance width="439"/>
  <unicode hex="00B8"/>
  <outline>
    <contour>
      <point x="172" y="-96"/>
      <point x="224" y="-94"/>
      <point x="224" y="-139" type="curve" smooth="yes"/>
      <point x="224" y="-180"/>
      <point x="184" y="-187"/>
      <point x="184" y="-195" type="curve" smooth="yes"/>
      <point x="184" y="-197"/>
      <point x="186" y="-199"/>
      <point x="189" y="-199" type="curve" smooth="yes"/>
      <point x="202" y="-199"/>
      <point x="270" y="-170"/>
      <point x="270" y="-105" type="curve" smooth="yes"/>
      <point x="270" y="-61"/>
      <point x="224" y="-46"/>
      <point x="220" y="-46" type="curve" smooth="yes"/>
      <point x="206" y="-46"/>
      <point x="172" y="-79"/>
      <point x="172" y="-79" type="curve"/>
    </contour>
  </outline>
</glyph>
<glyph name="ordmasculine" format="1">
  <advance width="291"/>
  <unicode hex="00BA"/>
  <outline>
    <contour>
      <point x="20" y="421"/>
      <point x="64" y="385"/>
      <point x="121" y="385" type="curve" smooth="yes"/>
      <point x="221" y="385"/>
      <point x="271" y="473"/>
      <point x="271" y="549" type="curve" smooth="yes"/>
      <point x="271" y="607"/>
      <point x="242" y="658"/>
      <point x="175" y="658" type="curve" smooth="yes"/>
      <point x="71" y="658"/>
      <point x="20" y="572"/>
      <point x="20" y="496" type="curve" smooth="yes"/>
    </contour>
    <contour>
      <point x="71" y="533"/>
      <point x="90" y="635"/>
      <point x="166" y="635" type="curve" smooth="yes"/>
      <point x="198" y="635"/>
      <point x="222" y="612"/>
      <point x="222" y="556" type="curve" smooth="yes"/>
      <point x="222" y="527"/>
      <point x="216" y="494"/>
      <point x="204" y="466" type="curve" smooth="yes"/>
      <point x="192" y="437"/>
      <point x="173" y="408"/>
      <point x="128" y="408" type="curve" smooth="yes"/>
      <point x="96" y="408"/>
      <point x="71" y="435"/>
      <point x="71" y="495" type="curve" smooth="yes"/>
    </contour>
  </outline>
</glyph>
<glyph name="guillemotright" format="1">
  <advance width="351"/>
  <unicode hex="00BB"/>
  <outline>
    <contour>
      <point x="39" y="96"/>
      <point x="45" y="84"/>
      <point x="52" y="84" type="curve" smooth="yes"/>
      <point x="57" y="84"/>
      <point x="55" y="84"/>
      <point x="201" y="206" type="curve"/>
      <point x="204" y="208"/>
      <point x="208" y="211"/>
      <point x="208" y="217" type="curve" smooth="yes"/>
      <point x="208" y="220"/>
      <point x="206" y="223"/>
      <point x="204" y="225" type="curve" smooth="yes"/>
      <point x="84" y="349"/>
      <point x="86" y="349"/>
      <point x="81" y="349" type="curve" smooth="yes"/>
      <point x="73" y="349"/>
      <point x="65" y="334"/>
      <point x="65" y="331" type="curve" smooth="yes"/>
      <point x="65" y="321"/>
      <point x="139" y="227"/>
      <point x="139" y="215" type="curve" smooth="yes"/>
      <point x="139" y="209"/>
      <point x="39" y="114"/>
      <point x="39" y="102" type="curve" smooth="yes"/>
    </contour>
    <contour>
      <point x="162" y="96"/>
      <point x="168" y="84"/>
      <point x="175" y="84" type="curve" smooth="yes"/>
      <point x="179" y="84"/>
      <point x="178" y="84"/>
      <point x="324" y="206" type="curve"/>
      <point x="326" y="208"/>
      <point x="331" y="211"/>
      <point x="331" y="217" type="curve" smooth="yes"/>
      <point x="331" y="220"/>
      <point x="329" y="223"/>
      <point x="327" y="225" type="curve" smooth="yes"/>
      <point x="207" y="349"/>
      <point x="208" y="349"/>
      <point x="204" y="349" type="curve" smooth="yes"/>
      <point x="197" y="349"/>
      <point x="187" y="338"/>
      <point x="187" y="331" type="curve" smooth="yes"/>
      <point x="187" y="325"/>
      <point x="261" y="229"/>
      <point x="261" y="216" type="curve" smooth="yes"/>
      <point x="261" y="206"/>
      <point x="162" y="114"/>
      <point x="162" y="102" type="curve" smooth="yes"/>
    </contour>
  </outline>
</glyph>
